<svg xmlns="http://www.w3.org/2000/svg" width="247" height="247.88" viewBox="0 0 247 247.88">
 <g transform="matrix(.84412 0 0 .84412 -108.26 -44.954)">
  <path d="m273.69 54.617v2.8828l4.9785 0.26172-0.52539 13.883h3.4062l0.52344-13.883 4.9785 0.26172v-2.8809zm-9.9531 0.26172-11.525 1.3105 2.0957 16.766 3.4043-0.26367-0.78516-7.0723 7.0723-0.78516-0.26172-2.8809-7.0723 0.78516-0.52344-3.9297 7.8574-1.0469zm27.242 0.52539-2.6191 16.764 3.1445 0.52344 1.0469-7.0723h0.78516c0.78585 0.26195 1.3101 0.26149 1.834 0.52344 0.26195 0.26195 0.52516 0.78688 0.78711 1.0488 0.26195 0.26195 0.52275 1.3094 1.3086 2.6191l1.834 3.9297 4.1328 0.25781-0.20312 0.26562 3.4043 1.0488 2.3574-3.4062 6.5488 1.834 0.26172 4.1914 3.668 1.0469-1.834-18.074-3.4043-1.0469-10.762 14.092-1.5508-3.6152c-0.78585-1.3097-1.0484-2.357-1.5723-2.8809-0.26195-0.5239-0.78446-1.0484-1.5703-1.5723 1.5717 0 2.8802-0.26102 3.666-1.0469 0.78585-0.5239 1.3103-1.5711 1.5723-2.8809 0.26195-0.78585 2.3e-4 -1.8352-0.26172-2.6211s-0.78641-1.3081-1.5723-1.832-2.096-0.78688-3.9297-1.0488zm-48.836 2.6348c-0.55665 0.03274-1.1313 0.11512-1.7207 0.24609-1.3098 0.26195-2.6184 0.78642-3.4043 1.5723-0.78585 0.5239-1.3101 1.3099-1.834 2.0957s-0.78492 1.5713-1.0469 2.6191c-0.26195 1.3097-0.26218 2.8814 0.26172 4.4531 0.5239 2.6195 1.8324 4.452 3.666 5.7617 1.8336 1.0478 3.9296 1.311 6.2871 0.78711 2.3576-0.5239 4.1924-1.8343 5.2402-3.668s1.0473-4.191 0.52343-6.8105c-0.5239-2.6195-1.8346-4.4537-3.4062-6.0254-1.3752-0.78585-2.8965-1.1295-4.5664-1.0312zm51.98 0.50781 2.6191 0.52344c1.3098 0.26195 2.0955 0.52539 2.3574 0.52539 0.5239 0 0.78492 0.52321 1.0469 0.78516 0.26195 0.26195 0.26368 0.7847 0.26368 1.3086 0 0.5239-0.26344 1.0486-0.52539 1.3105s-0.52298 0.52344-1.0469 0.52344c-0.5239-1e-6 -1.5728 2.3e-4 -3.1445-0.26172l-2.6191-0.26172zm-51.506 2.75c0.62213 0.06549 1.2105 0.26332 1.7344 0.65625 1.0478 0.78585 1.8335 2.0941 2.3574 3.9277 0.5239 2.0956 0.26219 3.669-0.26171 4.7168s-1.5711 1.8318-2.8809 2.0938c-1.3098 0.5239-2.6202 0.26241-3.668-0.52344s-1.8335-2.096-2.3574-3.9297c-0.26195-2.0956-0.26219-3.667 0.26171-4.7148 0.5239-1.0478 1.5731-1.8338 2.8828-2.0957 0.65487-0.13097 1.3095-0.19635 1.9316-0.13086zm-19.744 2.752-12.312 5.5 1.0469 2.6191 4.4531-2.0957 5.7637 12.836 3.4062-1.3105-5.7637-12.834 4.4531-2.0957zm91.682 0.26172 0.52343 6.5488-4.4531-1.3105zm12.574 0-6.8106 15.455 2.8809 1.0469 4.4531-9.9531 1.834 12.834 3.1426 1.5723 6.8105-15.455-2.8809-1.3086-4.4531 10.215-1.834-13.098zm-120.24 7.0723-2.6191 1.5723 5.7637 9.6914-11.789-6.2871-2.8809 1.5723 8.6445 14.668 2.6191-1.5703-5.5-9.4316 11.525 6.2871 2.8809-1.834zm137.95 2.0293c-0.42567 0.06549-0.81802 0.19715-1.2109 0.32812-0.78585 0.26195-1.3101 0.78642-1.834 1.5723-0.78585 1.0478-1.0473 2.3563-0.52344 3.666 0.26195 1.0478 1.0477 2.0965 2.3574 3.4062 0.78585 1.0478 1.572 1.8338 1.834 2.0957 0.5239 0.5239 0.78516 1.0466 0.78516 1.3086 0 0.26195 2.3e-4 0.78688-0.26172 1.0488-0.26195 0.5239-1.0484 1.0469-1.5723 1.0469s-1.3096-0.26126-2.3574-0.78516c-1.0478-0.5239-1.5701-1.3101-1.832-1.834s-0.26218-1.5713 0.26172-2.6191l-2.8828-1.3105c-0.78585 1.8336-1.0478 3.4053 0 4.4531 0.5239 1.3097 1.5726 2.6202 3.4062 3.668 1.3098 0.78585 2.3565 1.3105 3.4043 1.3105 1.0478 0 2.097-0.0015 2.8828-0.52539 0.78585-0.26195 1.5718-1.0462 2.0957-1.832s0.78516-1.8352 0.78516-2.6211c0-0.78585-0.26126-1.5716-0.78516-2.3574-0.5239-0.78585-1.3094-1.5711-2.6191-2.8809-1.3098-1.3097-1.8338-2.0952-2.0957-2.6191-0.26195-0.26195-0.26195-0.78688 0-1.0488 0.26195-0.26195 0.52297-0.52344 1.0469-0.52344 0.78585 0 1.5716 0.26126 2.3574 0.78516 0.78585 0.5239 1.3103 1.0484 1.5723 1.5723 0 0.5239 2.3e-4 1.3099-0.26172 2.0957l2.8809 1.5723c0.78585-1.3097 1.0473-2.6199 0.52344-3.9297s-1.5706-2.6202-3.4043-3.668c-1.0478-0.78585-2.0967-1.0466-3.1445-1.3086-0.5239-0.13098-0.98253-0.13189-1.4082-0.06641zm-153.4 7.6621-9.9531 7.5977 10.215 13.359 10.74-7.5977-1.834-2.3574-7.5957 5.7637-2.8809-3.668 6.8105-5.2383-1.834-2.3574-6.8106 5.2383-2.3574-2.8809 7.334-5.502zm167.12 0-10.217 13.359 2.6191 2.0957 3.9297-4.9766 1.834 1.3105c1.0478 1.0478 2.095 1.8338 2.8809 2.0957 0.52389 0.26195 1.0481 0.52344 1.834 0.52344 0.5239 0 1.3098 4.62e-4 2.0957-0.52344 0.78585-0.5239 1.5718-1.0481 2.0957-1.834 0.78584-1.0478 1.3105-2.0967 1.3105-3.1445s-0.26321-2.095-0.78711-2.8809c-0.5239-0.5239-1.5709-1.3094-3.1426-2.6191zm1.0469 4.4531 1.5723 0.78711c1.0478 0.78585 1.572 1.3084 1.834 1.5703 0.26195 0.26195 0.52344 0.78665 0.52344 1.3105 0 0.5239-0.26149 1.0484-0.52344 1.5723-0.26194 0.26195-0.52492 0.52321-1.0488 0.78516-0.5239 0.26195-0.7847 0-1.3086 0s-1.3096-0.5247-2.3574-1.3105l-1.5723-1.0469zm-182.05 6.5488-3.668 3.668 6.0254 10.215-10.217-6.0234-3.666 3.666 12.049 11.789 2.0957-2.3574-9.4297-9.168 11.787 7.0723 2.3574-2.3574-7.0723-11.789 9.4297 9.4316 2.3574-2.3574zm194.63 2.3574c-0.78585 0-1.8333 0.26344-2.6191 0.52539-1.3098 0.5239-2.3582 1.3094-3.668 2.6191-1.8336 1.8336-2.8811 3.9281-2.6191 5.7617 0 2.0956 0.7855 3.93 2.6191 5.7637 1.5717 1.8336 3.6681 2.6191 5.7637 2.6191 2.0956 0 4.1898-1.0472 6.0234-2.8809 1.8336-1.8336 2.8828-3.9298 2.8828-6.0254 0-2.0956-0.7855-3.93-2.6191-5.7637-1.0478-1.0478-2.0967-1.5698-3.1445-2.0938-0.78584-0.26195-1.5713-0.52539-2.6191-0.52539zm1.1992 3.3535c0.89636 0.08595 1.6829 0.57548 2.4688 1.3613 1.0478 1.0478 1.3086 2.0965 1.3086 3.4063s-0.78596 2.6199-2.0957 3.9297c-1.3098 1.3097-2.618 2.0957-3.9277 2.0957s-2.3584-0.26275-3.4062-1.3106-1.3106-2.0946-1.3106-3.4043c0-1.3097 0.78596-2.6199 2.0957-3.9297 1.3098-1.3097 2.6199-2.0957 3.9297-2.0957 0.32744-0.06549 0.63872-0.08138 0.9375-0.05273zm-210.23 8.1719-8.1211 10.74 2.3574 1.834 3.1426-3.9297 11.264 8.6445 1.834-2.8809-11.264-8.6445 3.1445-3.9297zm223.18 0.5254-13.359 10.215 2.6211 2.6211 5.5-4.1914 0.52344 0.52343c0.26195 0.78585 0.78711 1.0484 0.78711 1.5723v1.3086c0 0.5239-0.26321 1.3092-0.78711 2.8809l-1.3086 4.1914 2.3574 3.1445 1.3086-3.668c0.5239-1.3098 1.0488-2.3567 1.0488-3.1426v-2.3574c1.0478 1.0478 2.0948 1.832 3.1426 1.832s2.0967-0.26102 3.1445-1.0469c0.78585-0.5239 1.3084-1.3099 1.5703-2.0957 0.26195-1.0478 0.26195-1.8333 0-2.6191s-1.0479-2.0965-2.0957-3.4062zm-0.26171 4.4531 1.5723 2.0957c1.0478 1.3098 1.3103 1.8338 1.5723 2.0957s0.26172 0.78469 0.26172 1.3086-0.26321 1.0486-0.78711 1.3106-0.7847 0.52343-1.3086 0.52343c-0.26195 0-0.78688 2.4e-4 -1.0488-0.26171-0.52389-0.26195-1.0479-1.0477-2.0957-2.3574l-1.5703-2.0957zm10.479 9.6914-2.3574 1.5723 2.6191 4.1914-12.049 7.0723 1.5703 3.1426 12.051-7.0723 2.6191 4.1914 2.3574-1.5723zm-241.52 1.0488c-0.78585 0-1.8335 0.26126-2.3574 0.78516s-1.3096 1.5709-2.3574 3.1426l-3.668 6.2871 14.408 8.6445 1.5703-2.8809-6.0234-3.668 0.52344-0.52344c0.5239-0.5239 0.78492-1.0486 1.0469-1.3105s0.52493-0.52344 1.0488-0.52344 1.5709-0.26172 3.1426-0.26172l4.4531-0.26172 2.0957-3.4062h-3.9297c-1.5717 0-2.6184-2.3e-4 -3.4043 0.26172-0.5239 0-1.3098 0.26321-2.0957 0.78711 0.5239-1.3098 0.52367-2.6202 0.26172-3.668s-1.0479-2.0952-2.0957-2.6191c-0.78584-0.5239-1.5713-0.78516-2.6191-0.78516zm-0.26172 3.4043c0.26195 0 0.7847-2.3e-4 1.3086 0.26172 0.26195 0.26195 0.52516 0.78688 0.78711 1.0488v1.3086c0 0.26195-0.5247 1.3114-1.3106 2.6211l-1.3106 2.0938-3.4043-2.0938 1.3105-2.3594c0.78585-1.0478 1.0466-1.8338 1.3086-2.0957 0.5239-0.5239 0.78665-0.78516 1.3105-0.78516zm251.21 12.836-18.074 1.0469 1.5723 3.4062 4.1914-0.26171 2.8809 6.0254-2.8809 2.8808 1.5703 3.4043 12.312-13.098zm-264.04 3.1426-1.3106 3.4062 12.836 12.836 1.3105-3.4062-2.8828-2.8809 2.6211-6.2871 4.1914 0.26171 1.5703-3.4043zm261.43 0.26172-4.7148 4.7168-1.834-4.1914zm-258.54 3.1445 6.8105 0.26172-1.834 4.1914zm265.88 3.4043-2.6191 0.78711 1.5723 4.7148-13.359 4.4531 1.0469 3.4043 13.359-4.4531 1.5723 4.7168 2.6191-0.78711zm-269.78 4.5195c-0.55664 0-1.0796 0.0663-1.6035 0.19727-1.0478 0.26195-1.8335 1.0462-2.3574 1.832-0.26194 0.78585-0.78664 1.8341-1.3105 3.9297l-1.5723 5.2402 16.242 4.9766 1.0469-3.1445-6.2871-2.3574 0.52539-2.0957c0.5239-1.3098 0.78515-2.6184 0.78515-3.4043 0-0.5239 2.3e-4 -1.0481-0.26172-1.834 0-0.5239-0.52492-1.3101-1.0488-1.834s-1.3096-1.0466-2.3574-1.3086c-0.65487-0.13097-1.2441-0.19727-1.8008-0.19727zm0.23047 3.4063c0.26195 0 0.52321 0.0643 0.78516 0.19531 0.26195 0.26195 0.78492 0.5232 1.0469 0.78515 0.26195 0.5239 0.52539 0.78665 0.52539 1.3106s-0.26344 1.3094-0.52539 2.6191l-0.52344 1.834-4.7148-1.3106 0.78516-1.832c0.26195-1.3098 0.52516-2.0955 0.78711-2.3574 0.26195-0.5239 0.52297-0.78688 1.0469-1.0488 0.26195-0.13098 0.52516-0.19531 0.78711-0.19531zm274.52 7.5293-16.504 3.9297 0.78711 3.4062 16.502-3.9297zm-282.64 4.9785-2.0957 12.311 16.502 2.8828 2.0957-12.312-2.8809-0.52344-1.5723 9.168-4.4531-0.78516 1.5723-8.3828-2.6191-0.52344-1.5723 8.3809-3.668-0.78515 1.5723-8.9063zm278.16 2.9473c-0.7531 0-1.5384 0.0643-2.3242 0.19532-2.6195 0.26195-4.1922 1.0472-5.502 2.8808-1.3098 1.8336-1.5725 3.9296-1.3106 6.2871 0.26195 2.3576 1.3109 4.1922 3.1445 5.502 1.5717 1.3098 3.9293 1.8325 6.5488 1.3086 2.6195-0.26195 4.7156-1.3089 6.0254-3.1426s1.5706-3.9296 1.3086-6.2871c-0.26195-1.3097-0.7847-2.3565-1.3086-3.4043-0.5239-0.5239-1.0481-1.3101-1.834-1.834-0.78585-0.78585-1.8333-1.0486-2.6191-1.3105-0.65488-0.13098-1.3758-0.19532-2.1289-0.19532zm0.88477 3.5684c0.72036 0.0982 1.2439 0.29469 1.5059 0.55664 1.0478 0.78585 1.572 1.8328 1.834 3.1426 0.26195 1.5717-1e-3 2.6202-0.78711 3.668-1.0478 0.78585-2.3578 1.572-4.1914 1.834-1.8336 0.5239-3.4053 0.26242-4.4531-0.52343s-1.834-1.5728-1.834-3.1445c0-1.5717 0.26298-2.6202 1.0488-3.668 1.0478-0.78585 2.3578-1.5701 4.1914-1.832 1.0478-0.13098 1.9652-0.13144 2.6856-0.0332zm-275.44 10.707c-0.65487 0.0655-1.2437 0.19715-1.7676 0.32813-1.0478 0.5239-2.097 0.78446-2.8828 1.5703-0.78585 0.5239-1.3084 1.3096-1.5703 2.3574-0.26195 0.78585-0.52539 1.8348-0.52539 3.1445l-0.26172 6.2871 17.027 0.78516 0.26172-6.2871c0-1.3098 2.3e-4 -2.3567-0.26172-3.1426-0.26195-1.0478-0.78665-1.8335-1.3106-2.3574-0.78584-0.78585-1.5711-1.3101-2.8809-1.834-1.0478-0.5239-2.3563-0.78711-3.666-0.78711-0.78585-0.13098-1.5072-0.12994-2.1621-0.0645zm1.8984 3.4707c1.3098 0.26195 2.3587 0.26148 3.1445 0.52343s1.3103 0.78688 1.5723 1.0488 0.52344 0.7847 0.52344 1.3086v4.7148l-11.264-0.52344 0.26172-1.5703c0-1.5717-2.3e-4 -2.3589 0.26172-2.8828 0-0.5239 0.5232-1.3084 0.78515-1.5703 0.26195-0.26195 0.78642-0.52516 1.5723-0.78711s1.8328-0.26172 3.1426-0.26172zm281.34 1.834-16.766 0.26172v3.1426l11.002-0.26172-11.002 7.0723v3.4062l16.766-0.26171v-3.1445l-11.266 0.26367 11.266-7.0742zm-270.6 38.768-8.1191 2.3574c-1.8336 0.5239-3.1438 1.0484-3.9297 1.5723-0.5239 0.5239-1.3103 0.78641-1.5723 1.5723s-0.78516 1.5716-0.78516 2.3574c0 0.78585-4.6e-4 2.0963 0.52344 3.668 0.26195 1.3098 0.78665 2.095 1.3106 2.8809s1.0462 1.3103 1.832 1.5723 1.5716 0.52367 2.3574 0.26172 2.3578-0.52493 4.1914-1.0488l8.3828-2.6191-1.0469-3.1426-8.9062 2.6191c-1.3098 0.5239-2.3589 0.78516-2.8828 0.78516s-1.0464-0.26149-1.5703-0.52344-1.0486-0.78619-1.3106-1.834c-0.26195-1.0478-0.26195-1.8335 0-2.3574 0.26195-0.78585 0.78665-1.3103 1.3106-1.5723 0.26195 0 1.3094-0.26126 2.6191-0.78516l8.6445-2.6191zm266.93 7.5977-18.074 1.0469-1.0488 3.4062 13.885 11.525 1.0469-3.4062-3.1426-2.6191 2.0957-6.2871 4.1895-0.26172zm-8.3828 3.9297-1.3086 4.4531-5.2402-4.1914zm-253.57 4.7148-15.453 6.8105 1.5703 2.8809 9.9551-4.4531-7.3359 10.74 1.3106 3.1426 15.193-6.8106-1.3106-2.8809-10.215 4.4531 7.5957-10.74zm242.37 4.9102c-0.58939 0.0655-1.1148 0.19715-1.6387 0.32813-1.8336 0.5239-3.1419 1.8343-3.9277 3.668-0.78585 2.3575-1.0495 4.1915-0.26367 6.2871 0.78585 1.8336 2.359 3.4051 4.9785 4.7148 2.3575 1.0478 4.4532 1.3091 6.5488 0.78516 2.0956-0.5239 3.4053-1.8341 4.4531-3.9297 0.78585-1.8336 1.0471-3.1432 0.78516-4.7148-0.26195-1.3097-1.0474-2.6199-2.6192-3.9297l-2.3574 2.6211c1.0478 0.78585 1.5716 1.5713 2.3574 2.6191 0.26195 0.78585 2.4e-4 1.5716-0.26171 2.3574-0.5239 1.0478-1.5733 1.8338-2.6211 2.0957-1.3098 0.26195-2.8812-1e-3 -4.7148-1.0488-1.8336-0.78585-2.8804-1.8331-3.4043-2.8809s-0.5239-2.3584 0-3.4062c0.26195-0.78585 0.78642-1.5701 1.5723-1.832s1.5716-0.52367 2.3574-0.26172l0.78515-3.4062c-0.78584-0.13098-1.4399-0.13189-2.0293-0.0664zm-235.04 10.807-14.67 8.3828 1.834 2.8809 14.408-8.3828zm224.75 3.4043-1.832 2.8828 14.406 8.6445 1.834-2.8828zm-221.87 2.0957-2.3574 1.5723 2.8809 4.1914-11.525 7.8574 2.0957 2.8828 11.525-7.8594 2.6191 3.9297 2.3594-1.5723zm218.07 5.9922c-0.39292 0.0982-0.78676 0.29469-1.1797 0.55664-0.5239 0.5239-1.5713 1.3111-2.6191 2.8828l-4.1914 5.7617 13.621 9.9551 1.834-2.3574-5.7637-4.1914 0.52539-0.52539c0.26195-0.78585 0.78493-1.0466 1.0469-1.3086s0.52493-0.52344 1.0488-0.52344h3.1426l4.4531 0.26172 2.3574-3.1445-3.9297-0.26172h-3.4043c-0.5239 0-1.3099 0.26149-2.0957 0.52344 0.78585-1.3098 1.0471-2.6182 0.78516-3.666-0.26195-1.3098-0.78619-2.095-1.834-2.8809-0.78584-0.5239-1.8333-1.0488-2.6191-1.0488-0.39292-0.13097-0.78481-0.13143-1.1777-0.0332zm0.6543 2.9141c0.5239 0 0.78664 0.26344 1.3105 0.52539 0.26195 0.26195 0.78516 0.52298 0.78516 1.0469s0.26195 0.78665 0 1.3106c0 0.5239-0.52447 1.3094-1.5723 2.6191l-1.5723 2.0957-3.4043-3.1445 1.5723-2.0957c0.78585-1.0478 1.3084-1.5701 1.5703-1.832 0.5239-0.26195 0.78665-0.52539 1.3106-0.52539zm-209.56 4.1914-12.836 11.002 8.6445 9.4297 2.0957-1.832-6.2871-7.0742 3.4062-3.1426 5.5 6.2871 2.0957-1.834-5.5-6.2871 2.8809-2.3574 6.0254 6.8105 2.0957-1.5723zm198.82 4.4531-8.6445 8.9062 12.051 11.789 9.168-8.9062-2.0957-2.0957-6.5488 6.8106-3.4062-3.1445 5.7637-6.0234-2.0957-2.0957-5.7637 6.0234-2.6191-2.6191 6.2871-6.5488zm-188.34 7.0723-11.525 12.836 4.7148 4.1914c1.0478 1.0478 1.8333 1.572 2.6191 1.834s1.8333 0.52344 2.6191 0.52344c1.0478 0 2.3584-0.52298 3.4062-1.0469s1.8331-1.3096 2.8809-2.3574c1.0478-1.3098 1.8335-2.3584 2.3574-3.4062 0.26195-1.0478 0.52344-2.0948 0.52344-3.1426s-0.26126-2.097-0.78516-2.8828c-0.26195-0.5239-1.0479-1.3096-2.0957-2.3574zm177.34 4.1914-3.9297 3.1445 4.4531 11.002-9.4297-7.0723-3.9297 3.1426 10.479 13.098 2.6191-1.834-8.3828-10.479 11.002 8.3828 2.6211-2.0957-5.7637-12.574 8.3828 10.479 2.3574-2.0957zm-176.82 0.26172 1.3106 1.0488c1.0478 1.0478 1.8338 1.5718 2.0957 2.0957s0.26149 1.0484 0.52344 1.5723 2.3e-4 1.0462-0.26172 1.832c-0.26195 0.5239-1.0481 1.3096-1.834 2.3574-0.78585 1.0478-1.5716 1.5718-2.3574 2.0957-0.78585 0.26195-1.3101 0.52539-1.834 0.52539-0.5239 0.26195-1.0484 2.3e-4 -1.5723-0.26172-0.26195-0.26195-0.78447-0.78665-1.5703-1.3106l-1.834-1.5723zm19.287 12.51c-0.42567 0.0655-0.81996 0.1952-1.2129 0.32617-0.78585 0.26195-1.3081 0.78642-1.832 1.5723-0.78585 1.0478-1.0493 2.3582-0.52539 3.668 0.26195 1.0478 1.0477 2.0946 2.3574 3.4043 0.78585 1.0478 1.572 1.8338 1.834 2.0957 0.5239 0.5239 0.78711 1.0486 0.78711 1.3105s-2e-3 0.78493-0.26368 1.0469c-0.26195 0.5239-1.0464 1.0488-1.5703 1.0488s-1.3096-0.26321-2.3574-0.78711-1.572-1.3101-1.834-1.834c-0.26195-0.5239-0.26219-1.5713 0.26171-2.6191l-2.8809-1.3086c-0.78584 1.8336-0.5239 2.6197 0 4.1914 0.5239 1.5717 1.5706 2.8799 3.4043 3.9277 1.3098 0.78585 2.3584 1.0486 3.4062 1.3106 1.0478 0 2.095 4.6e-4 2.8809-0.52344 0.78585-0.26195 1.5718-1.0481 2.0957-1.834 0.5239-0.78584 0.78516-1.8333 0.78516-2.6191 0-0.78584-0.26126-1.5716-0.78516-2.3574s-1.3094-1.5731-2.6191-2.8828-1.8338-2.0952-2.0957-2.6191c-0.26195-0.26195-0.26195-0.78493 0-1.0469s0.52298-0.52539 1.0469-0.52539c0.78584 0 1.5716 0.26321 2.3574 0.78711s1.5723 1.0484 1.5723 1.5723 2.3e-4 1.3079-0.26172 2.0938l2.8809 1.5723c0.78585-1.3097 1.0493-2.6199 0.52539-3.9297s-1.5726-2.6182-3.4062-3.666c-1.0478-0.78585-2.0948-1.0486-3.1426-1.3106-0.5239-0.13097-0.98254-0.12994-1.4082-0.0645zm137.88 1.6367-3.1426 1.834 2.8809 17.812 3.1445-1.834-0.78711-3.9297 5.7637-3.4043 3.1426 2.6191 3.1445-1.834zm-126 4.4531-1.0469 2.6191 4.4531 2.0957-5.7637 12.836 3.4062 1.3086 5.7617-12.834 4.4531 2.0957 1.0488-2.6211zm126.26 0 5.2402 4.1914-3.9297 2.3574zm-16.502 4.1914-10.74 3.9297 5.7637 15.717 3.4043-1.0488-2.6192-6.8106 6.5488-2.3574-1.0469-2.6191-6.5488 2.3574-1.3106-3.668 7.5957-2.8809zm-92.207 2.8809-11.525 14.145 3.4062 1.0488 2.6191-3.1426 6.5488 2.0938 0.26172 4.1914 3.4043 1.0488-1.3086-18.336zm72.445 2.8984c-0.55664 0.0327-1.1294 0.11316-1.7188 0.24414-1.3098 0.5239-2.3565 0.78642-3.4043 1.5723-0.78585 0.5239-1.3101 1.3099-1.834 2.0957s-0.78688 1.5713-1.0488 2.6191c-0.26195 1.3098-2.3e-4 2.8814 0.26172 4.4531 0.5239 2.6195 1.8343 4.4542 3.668 5.502s3.9296 1.309 6.2871 0.78515 4.1905-1.8324 5.2383-3.666 1.311-4.193 0.78711-6.8125c-0.78585-2.6195-1.8343-4.7139-3.668-5.7617-1.3752-0.78585-2.8984-1.1295-4.5684-1.0312zm-63.539 0.24414-0.52344 2.8828 4.9766 1.0469-2.8809 13.621 3.1426 0.52539 2.8828-13.623 4.9766 1.0488 0.52344-2.8809zm-8.3828 1.5723 0.26367 6.5488-4.4531-1.3086zm23.838 1.3106-1.3086 16.764 12.834 1.0488 0.26367-2.8809-9.4316-0.78711 0.26172-4.4531 8.3828 0.78711 0.26172-2.8828-8.3809-0.78515 0.26172-3.668 9.168 0.78711 0.26172-2.8828zm48.129 0.27344c0.97004-0.11051 1.9036 0.18405 2.6895 0.77344 1.0478 0.78585 1.5718 2.096 2.0957 3.9297 0.5239 2.0956 0.26218 3.667-0.26172 4.7148s-1.5711 1.8338-2.8809 2.0957-2.6202 6.9e-4 -3.668-0.78516c-1.0478-0.78584-1.8335-2.096-2.3574-3.9297-0.5239-2.0956-0.26241-3.4053 0.52344-4.4531 0.5239-1.0478 1.5731-1.8338 2.8828-2.0957 0.32744-0.13098 0.65322-0.21316 0.97656-0.25zm-26.125 0.25c-1.3097 0-2.6184 0.26126-3.4043 0.78515-1.0478 0.5239-1.8338 1.0481-2.0957 1.834s-0.52539 1.5716-0.52539 2.3574c0 1.3098 0.52447 2.6204 1.5723 3.4062 0.78585 0.78585 2.096 1.3103 3.9297 1.5723 1.5717 0.26195 2.357 0.52343 2.8809 0.52343 0.5239 0.26195 1.0486 0.52321 1.3105 0.78516 0 0.26195 0.26172 0.52493 0.26172 1.0488s-0.26126 1.0464-0.78515 1.5703c-0.5239 0.5239-1.3096 0.78711-2.3574 0.78711s-2.0972-0.26321-2.6211-0.78711-1.0466-1.3096-1.3086-2.3574l-3.4062 0.52344c0.26195 1.8336 1.0479 3.4056 2.0957 4.1914 1.3098 1.0478 2.881 1.3106 4.9766 1.3106 1.5717 0 2.6202-0.26126 3.668-0.78516 0.78585-0.5239 1.5718-1.3098 2.0957-2.0957s0.78516-1.5733 0.78516-2.6211-0.26126-1.8333-0.78516-2.6191c-0.26195-0.5239-1.0481-1.3084-1.834-1.5703s-2.0943-0.78687-3.666-1.0488-2.6206-0.78493-3.1445-1.0469c-0.26195-0.26195-0.52344-0.52493-0.52344-1.0488s0.26149-0.78492 0.52344-1.0469c0.5239-0.5239 1.3096-0.78711 2.3574-0.78711 0.78585 0 1.5718 0.26344 2.0957 0.52539s0.78688 1.0462 1.0488 1.832l3.4043-0.26172c0-1.5717-0.78618-2.8802-1.834-3.666-1.0478-1.0478-2.6192-1.3106-4.7148-1.3106z"/>
  <path d="m274.74 82.646c-24.885 0-47.675 7.5959-66.797 20.693 6.5487-2.0956 13.882-3.1426 21.217-3.1426 45.841 0 70.203 27.767 70.203 67.846 0 2.8814-0.26149 5.4996-0.52344 8.1191-0.5239 3.4054-0.78711 7.0729-0.78711 10.74 0 22.79 20.956 43.746 46.104 43.746 30.648 0 54.224-41.65 39.293-74.918-17.551-42.96-59.462-73.084-108.71-73.084zm-47.838 22.561c-16.536 0.49116-33.891 7.9557-44.631 22.756-28.291 36.673-33.53 88.015-8.9062 130.45 12.312 21.48 30.648 37.46 51.342 47.414-4.977-4.7151-9.6921-10.479-13.359-16.766-23.052-39.816-11.001-74.654 23.576-94.562 2.3575-1.3098 4.9764-2.6202 7.334-3.668 3.1434-1.3098 6.55-2.8812 9.6934-4.7148 19.646-11.264 27.504-39.817 14.668-61.82-7.4656-13.097-23.181-19.581-39.717-19.09zm164.67 85.102c-1.5717 6.8107-4.1921 13.359-7.8594 19.908-22.79 39.816-58.938 46.889-93.516 26.719-2.3576-1.3098-4.715-2.8814-6.8106-4.4531-2.8814-2.0956-5.7628-4.1917-8.9062-6.0254-19.646-11.264-48.2-3.6676-60.773 18.074-15.455 26.457 8.9076 67.844 45.057 71.512 45.841 6.2868 92.992-15.193 117.62-57.629 12.312-21.48 17.289-45.316 15.193-68.105z" fill="#002678"/>
 </g>
</svg>