<?xml version="1.0" encoding="utf-8"?>
<!-- Generator: Adobe Illustrator 24.1.2, SVG Export Plug-In . SVG Version: 6.00 Build 0)  -->
<svg version="1.1" id="Layer_1" xmlns="http://www.w3.org/2000/svg" xmlns:xlink="http://www.w3.org/1999/xlink" x="0px" y="0px"
	 viewBox="0 0 216 216" style="enable-background:new 0 0 216 216;" xml:space="preserve">
<style type="text/css">
	.st0{fill:#FFFFFF;}
	.st1{stroke:#000000;stroke-miterlimit:10;}
</style>
<g>
	<circle class="st0" cx="108" cy="108" r="101.5"/>
	<path d="M108,9c54.59,0,99,44.41,99,99s-44.41,99-99,99S9,162.59,9,108S53.41,9,108,9 M108,4C50.56,4,4,50.56,4,108
		s46.56,104,104,104s104-46.56,104-104S165.44,4,108,4L108,4z"/>
</g>
<g>
	<circle cx="108.5" cy="66.5" r="28"/>
	<path d="M108.5,39c15.16,0,27.5,12.34,27.5,27.5S123.66,94,108.5,94S81,81.66,81,66.5S93.34,39,108.5,39 M108.5,38
		C92.76,38,80,50.76,80,66.5S92.76,95,108.5,95S137,82.24,137,66.5S124.24,38,108.5,38L108.5,38z"/>
</g>
<path class="st1" d="M163,169.5c0-39.21-24.18-71-54-71s-54,31.79-54,71H163z"/>
</svg>
