<?xml version="1.0" encoding="UTF-8" standalone="no"?>
<svg xmlns:xlink="http://www.w3.org/1999/xlink" xmlns="http://www.w3.org/2000/svg" xmlns:svg="http://www.w3.org/2000/svg" xmlns:rdf="http://www.w3.org/1999/02/22-rdf-syntax-ns#" xmlns:cc="http://creativecommons.org/ns#" xmlns:dc="http://purl.org/dc/elements/1.1/" width="500px" height="285px" viewBox="0 0 500 285" version="1.1" id="svg206">
  <metadata id="metadata210"></metadata>
  <title id="title2">hero/groups</title>
  <defs id="defs74">
    <linearGradient x1="70.505933" y1="0.14789258" x2="70.505933" y2="73.752802" id="linearGradient-1" gradientTransform="scale(1.1551158,0.86571403)" gradientUnits="userSpaceOnUse">
      <stop stop-color="#5679FF" offset="0%" id="stop4"></stop>
      <stop stop-color="#2B44FF" offset="100%" id="stop6"></stop>
    </linearGradient>
    <linearGradient x1="38.292474" y1="2.99196" x2="38.292474" y2="79.283312" id="linearGradient-2" gradientTransform="scale(1.0308423,0.97008049)" gradientUnits="userSpaceOnUse">
      <stop stop-color="#FFCB45" offset="0%" id="stop9"></stop>
      <stop stop-color="#FF9B21" offset="100%" id="stop11"></stop>
    </linearGradient>
    <linearGradient x1="50.070184" y1="3.9846471" x2="50.070184" y2="90.053024" id="linearGradient-3" gradientTransform="scale(0.82214715,1.2163273)" gradientUnits="userSpaceOnUse">
      <stop stop-color="#969DD5" offset="0%" id="stop14"></stop>
      <stop stop-color="#5C63AB" offset="100%" id="stop16"></stop>
    </linearGradient>
    <linearGradient x1="207.31359" y1="66.123104" x2="209.37387" y2="115.62561" id="linearGradient-4" gradientTransform="matrix(0.70224681,0,0,1.4240008,83.086832,11.5)" gradientUnits="userSpaceOnUse">
      <stop stop-color="#4D559E" offset="0%" id="stop19"></stop>
      <stop stop-color="#2F3676" offset="100%" id="stop21"></stop>
    </linearGradient>
    <linearGradient x1="92.979678" y1="129.02284" x2="182.05012" y2="113.97876" id="linearGradient-5" gradientTransform="matrix(1.2472191,0,0,0.80178372,83.086832,11.5)" gradientUnits="userSpaceOnUse">
      <stop stop-color="#4D559E" offset="0%" id="stop24"></stop>
      <stop stop-color="#2F3676" offset="100%" id="stop26"></stop>
    </linearGradient>
    <linearGradient x1="50%" y1="0%" x2="50%" y2="100%" id="linearGradient-6">
      <stop stop-color="#DABFA0" offset="0%" id="stop29"></stop>
      <stop stop-color="#B28B67" offset="100%" id="stop31"></stop>
    </linearGradient>
    <linearGradient x1="14.512679" y1="0.27948049" x2="14.512679" y2="28.67689" id="linearGradient-7" gradientTransform="scale(0.7766739,1.2875417)" gradientUnits="userSpaceOnUse">
      <stop stop-color="#BEC3F0" offset="0%" id="stop34"></stop>
      <stop stop-color="#8991DC" offset="100%" id="stop36"></stop>
    </linearGradient>
    <linearGradient x1="22.111084" y1="23.518235" x2="18.346423" y2="27.659143" id="linearGradient-8" gradientTransform="scale(0.755427,1.3237547)" gradientUnits="userSpaceOnUse">
      <stop stop-color="#A26456" offset="0%" id="stop39"></stop>
      <stop stop-color="#9A5A4D" offset="100%" id="stop41"></stop>
    </linearGradient>
    <linearGradient x1="21.163633" y1="5.4350564" x2="14.571766" y2="26.880102" id="linearGradient-9" gradientTransform="scale(0.91287094,1.0954451)" gradientUnits="userSpaceOnUse">
      <stop stop-color="#CA9384" offset="0%" id="stop44"></stop>
      <stop stop-color="#9A5A4D" offset="100%" id="stop46"></stop>
    </linearGradient>
    <linearGradient x1="13.765798" y1="0.23774509" x2="13.765798" y2="27.624434" id="linearGradient-10" gradientTransform="scale(0.91701094,1.0904995)" gradientUnits="userSpaceOnUse">
      <stop stop-color="#37357D" offset="0%" id="stop49"></stop>
      <stop stop-color="#191847" offset="100%" id="stop51"></stop>
    </linearGradient>
    <radialGradient cx="26.808088" cy="1.7552445" fx="26.808088" fy="1.7552445" r="107.49924" gradientTransform="scale(0.70341931,1.4216272)" id="radialGradient-11" gradientUnits="userSpaceOnUse">
      <stop stop-color="#EC7070" offset="0%" id="stop54"></stop>
      <stop stop-color="#F59D9D" offset="100%" id="stop56"></stop>
    </radialGradient>
    <linearGradient x1="14.334697" y1="-0.35658124" x2="38.61731" y2="37.016068" id="linearGradient-12" gradientTransform="scale(1.1902381,0.84016805)" gradientUnits="userSpaceOnUse" xlink:href="#linearGradient-3">
      <stop stop-color="#0093CB" offset="0%" id="stop59" style="stop-color:#0093cb"></stop>
      <stop stop-color="#005A9C" offset="100%" id="stop61" style="stop-color:#005a9f"></stop>
    </linearGradient>
    <linearGradient x1="12.563765" y1="55.653222" x2="17.03783" y2="54.141721" id="linearGradient-13" gradientTransform="scale(1.7175564,0.58222252)" gradientUnits="userSpaceOnUse">
      <stop stop-color="#C26E5E" offset="0%" id="stop64"></stop>
      <stop stop-color="#E1A494" offset="100%" id="stop66"></stop>
    </linearGradient>
    <linearGradient x1="29.338137" y1="51.306524" x2="38.715043" y2="31.33547" id="linearGradient-14" gradientTransform="scale(1.1388524,0.87807693)" gradientUnits="userSpaceOnUse">
      <stop stop-color="#F59D9D" offset="0%" id="stop69"></stop>
      <stop stop-color="#EE7979" offset="100%" id="stop71"></stop>
    </linearGradient>
    <linearGradient xlink:href="#linearGradient-6" id="linearGradient1035" x1="13.028542" y1="-1.1575561e-08" x2="13.028542" y2="26.057084" gradientTransform="scale(0.73472226,1.3610585)" gradientUnits="userSpaceOnUse"></linearGradient>
    <linearGradient xlink:href="#linearGradient-6" id="linearGradient1037" x1="13.028542" y1="-1.1575561e-08" x2="13.028542" y2="26.057084" gradientTransform="scale(0.73472226,1.3610585)" gradientUnits="userSpaceOnUse"></linearGradient>
    <linearGradient xlink:href="#linearGradient-2" id="linearGradient1923" gradientUnits="userSpaceOnUse" gradientTransform="scale(1.0308423,0.97008049)" x1="38.292474" y1="2.99196" x2="38.292474" y2="79.283312"></linearGradient>
  </defs>
  <g id="g1298">
    <g id="g2020" transform="matrix(0.93239698,0,0,0.93239698,54.067642,21.130968)" style="fill:#4e4e4e">
      <path d="m 345.71218,2.8039848 1.45196,8.8213532 c 1.35532,8.23405 -0.0215,11.644329 -3.68361,18.647917 l -5.13559,9.826562 c 0,0 -3.94351,-8.33808 -10.49456,-12.951731 -5.52005,-3.887668 -9.11561,-4.733933 -14.73877,-3.574077 -7.22118,1.490631 -15.40891,10.125118 -18.98298,20.770024 -4.27429,12.736944 -4.31725,18.901367 -4.4676,24.563185 -0.24056,9.076952 1.18993,14.442362 1.18993,14.442362 0,0 -6.23316,-11.538425 -6.17731,-28.437965 0.0387,-12.062508 1.93739,-22.999526 7.51759,-33.794784 4.91006,-9.489345 12.20856,-15.1855292 18.68658,-15.8556685 6.69709,-0.6916182 11.98948,2.5345014 16.07904,6.0312545 4.29147,3.668583 8.63449,11.684481 8.63449,11.684481 z" id="path2016" style="stroke-width:4.29576"></path>
      <path d="m 346.97943,102.62897 c 0,0 -4.54063,8.1147 -7.36724,11.24202 -2.83091,3.12732 -7.89132,8.63449 -14.14166,11.38807 -6.25463,2.75359 -9.52801,3.27338 -15.70532,2.68056 -6.17301,-0.59281 -11.91215,-4.16689 -13.92257,-5.65752 -2.01042,-1.49063 -7.14815,-5.8809 -10.0478,-9.97477 -2.90393,-4.09816 -7.44456,-12.28159 -7.44456,-12.28159 0,0 2.53021,8.20921 4.11535,11.68878 0.9107,2.00182 3.71154,8.13618 7.68942,13.47152 3.70294,4.97879 10.90694,13.54884 21.84826,15.48193 10.94131,1.93739 18.4589,-2.97696 20.31897,-4.17118 1.86006,-1.18993 6.15286,-3.99687 8.63556,-6.65192 2.5906,-2.7705 3.96533,-4.7571 5.69236,-8.2512 1.25458,-2.53832 2.34016,-8.49403 1.63729,-12.15376 z" id="path2018" style="stroke-width:4.29576"></path>
    </g>
    <path id="path2010" style="fill:#005a9c;fill-rule:evenodd;stroke-width:1px" d="m 253.13398,26.155268 -1.65834,16.318263 c 2.16311,-0.576296 5.42906,-0.742797 10.64164,-1.33707 L 275.478,39.613243 254.29335,88.465999 264.89459,87.25738 c 6.85125,-0.781093 14.34617,0.868585 18.70711,5.38635 0.61017,0.626246 1.17347,1.320342 1.70612,2.050407 0.12318,0.168131 0.23883,0.343869 0.35779,0.517489 0.50764,0.742731 0.99137,1.516963 1.42661,2.357481 1.73041,3.342993 2.88373,7.465423 3.44392,12.379023 0.79307,6.9563 -0.0598,13.08085 -2.5512,18.38387 -0.67645,1.43848 -1.42704,2.68176 -2.24597,3.76694 -0.52378,0.69408 -1.08229,1.30785 -1.66345,1.85858 -0.0488,0.0462 -0.10025,0.0918 -0.14951,0.13695 -0.5943,0.54632 -1.20659,1.025 -1.86056,1.42304 -0.59602,0.36281 -1.22875,0.64509 -1.87481,0.88409 -0.16521,0.0607 -0.33366,0.11462 -0.50185,0.16728 -0.66859,0.2104 -1.35138,0.3821 -2.07208,0.46427 -0.0319,0.004 -0.062,-2.7e-4 -0.094,0.003 -0.0319,0.004 -0.0623,-0.002 -0.0943,5.2e-4 -0.016,0.002 -0.0324,-10e-4 -0.0475,-0.003 -0.0359,0.004 -0.0724,0.001 -0.10958,0.004 -0.9498,0.091 -1.88586,0.12502 -2.79555,0.0671 -0.004,-4.3e-4 -0.0114,0.002 -0.0155,0.002 -0.24894,-0.0162 -0.48455,-0.086 -0.73042,-0.11329 -0.0514,-0.006 -0.10185,-0.014 -0.15213,-0.0239 -0.0626,-0.007 -0.12248,-0.0255 -0.18473,-0.034 -0.62429,-0.0718 -1.25005,-0.13759 -1.85165,-0.29214 -0.94807,-0.24356 -1.86842,-0.57572 -2.76775,-0.99956 -0.89927,-0.42294 -1.77513,-0.93745 -2.62523,-1.54263 -1.85274,-1.60321 -3.32638,-3.49769 -4.86801,-5.33449 l -16.13571,1.83959 c 1.46457,3.12655 3.15962,5.91418 5.03281,8.43539 l -0.0369,0.0907 c 0.204,0.28651 0.46254,0.54582 0.68394,0.82629 1.32079,1.68317 2.71765,3.26394 4.23282,4.65989 1.34939,1.24326 2.77262,2.36928 4.27619,3.38507 0.74811,0.50578 1.50754,0.97165 2.27693,1.4015 l 0.009,0.009 c 0.7663,0.42777 1.54343,0.81486 2.33083,1.16732 0.48874,0.21876 0.98725,0.39592 1.48409,0.58566 0.0666,0.0254 0.13127,0.0548 0.1978,0.0797 0.24104,0.0989 0.47996,0.20495 0.72488,0.28888 0.009,0.003 0.0177,0.002 0.0261,0.005 0.80493,0.27505 1.61614,0.51433 2.44234,0.71428 0.0123,0.003 0.0223,0.01 0.0348,0.0114 l 0.008,-4.5e-4 c 0.81987,0.19747 1.64791,0.35514 2.48824,0.47905 0.0164,0.003 0.0332,0.008 0.0483,0.0103 l 0.008,-4.5e-4 c 0.83614,0.12169 1.68475,0.20393 2.5411,0.25283 0.0203,0.002 0.0425,9.3e-4 0.0633,0.002 0.76445,0.0414 1.53603,0.0428 2.31677,0.0268 0.0201,-6.2e-4 0.0363,5e-4 0.0553,0.002 0.0286,0.003 0.0596,0.006 0.0891,0.006 0.0442,0.002 0.0886,0.001 0.13375,2e-4 l 0.008,-4.5e-4 c 0.0202,-6.1e-4 0.0419,0.002 0.0632,0.003 l 0.008,-4.5e-4 c 0.46969,-0.0149 0.95159,-0.0718 1.42862,-0.10782 0.0991,-0.007 0.19733,-0.01 0.29674,-0.0181 0.0625,-0.003 0.12604,-0.008 0.18914,-0.0135 0.24162,-0.0129 0.48116,-0.0238 0.72541,-0.0513 0.0319,-0.004 0.0617,-0.007 0.0931,-0.0106 0.70933,-0.0809 1.3765,-0.22507 2.06207,-0.34518 l -0.004,-0.0388 c 0.73656,-0.13802 1.49922,-0.23322 2.21395,-0.40967 0.10029,-0.0256 0.19766,-0.0543 0.29742,-0.0811 1.3404,-0.34508 2.62751,-0.78338 3.86874,-1.29224 5.78656,-2.37228 10.522,-6.48054 14.15156,-12.41533 5.26331,-8.60623 7.23671,-18.70218 5.91507,-30.29469 -1.06892,-9.375887 -4.11145,-17.298649 -9.11845,-23.770505 -3.80252,-4.914969 -8.61823,-8.449606 -14.4456,-10.613645 -0.1806,-0.06709 -0.37485,-0.11572 -0.55721,-0.180231 -0.75114,-0.265088 -1.50454,-0.525223 -2.28863,-0.745557 -0.97264,-0.27511 -1.96923,-0.516955 -2.99559,-0.721968 7.42517,-17.074628 15.0229,-34.074804 22.29321,-51.216195 z"></path>
    <path id="path2002" style="fill:#005a9c;stroke-width:4.00535" d="m 114.99023,24.46875 38.17579,128.85156 h 1.58789 l 23.86132,-79.849607 23.86719,79.849607 h 1.58789 l 28.60938,-96.550779 c 3.70567,-12.505627 3.66469,-15.583049 8.33203,-16.273437 l 3.49805,-16.027344 h -2.25586 c -14.51662,0 -17.43378,2.474993 -22.47461,19.613281 L 202.48438,102.89258 179.41406,24.46875 h -16.69531 l 3.81836,12.8125 c 3.18026,10.6715 2.8981,15.910526 -0.0859,26.011719 L 154.7559,102.89258 131.6934,24.46875 Z"></path>
  </g>
  <ellipse id="Floor-Copy-3" fill="#eaf5fe" fill-rule="nonzero" cx="255.89981" cy="268.99048" rx="231.94179" ry="5.009542"></ellipse>
  <g id="A-Human/Standing-Copy" transform="matrix(-1,0,0,1,473.16906,88.188196)">
    <g id="Head/Front" transform="translate(43.188336,0.538246)">
      <g id="Head" transform="translate(7.817244,13.905831)" fill="#edb3a7">
        <path d="m 19.189531,4.6673786 c 2.915311,5.5193014 2.568897,19.5194654 -1.198883,20.5059184 -1.502495,0.393372 -4.703152,-0.57015 -7.960772,-2.564391 l 2.044283,14.693605 H 0 L 4.156401,17.623907 C 1.838354,14.860129 0.2694825,11.473125 0.53165354,7.6779063 1.2870702,-3.2575928 16.27422,-0.85192234 19.189531,4.6673786 Z" id="Head-[skin]"></path>
      </g>
      <path d="M 22.23756,12.561907 C 20.587706,12.050913 18.192697,11.877619 17.185188,11.994851 17.758305,10.600136 17.985726,9.0462548 17.800323,7.5332775 17.62012,6.0631396 16.973365,4.8113599 16.375214,3.4996461 16.099497,2.8950318 15.787039,2.2937129 15.321181,1.8312518 14.84662,1.3600992 14.245889,1.0491006 13.615965,0.90072746 12.971329,0.74885304 12.297268,0.76149894 11.651631,0.89932694 11.366016,0.9602909 11.109748,1.0929287 10.829641,1.1666622 10.542793,1.2422081 10.403645,1.0598516 10.195442,0.87658903 9.6936899,0.43501219 8.9581237,0.21702482 8.3233469,0.13900742 7.6111583,0.05151589 6.8721644,0.16063315 6.1929432,0.39843381 5.5318233,0.62993211 4.8966999,1.0058491 4.4187109,1.553495 4.2058862,1.7972685 4.0127033,2.0747369 3.8871498,2.3810809 3.8356575,2.5067984 3.8271461,2.5812733 3.7036338,2.6273259 3.5894032,2.6699594 3.4558005,2.6711952 3.3379112,2.7117692 2.1979935,3.1039158 1.223375,3.9985208 0.69269974,5.1471561 0.38309104,5.8172654 0.23643226,6.9970911 0.27660167,8.3194818 0.31677108,9.6418726 1.4923521,13.092367 2.5918693,14.350944 c 0.9814354,1.123384 2.4240294,1.864714 3.8162479,2.189224 -0.9240889,1.072842 -1.5392239,2.413473 -1.9941049,3.776924 -0.4940876,1.481053 -0.7998835,3.01994 -0.9128046,4.587909 -0.1072596,1.489745 -0.1171961,3.065169 0.226651,4.523114 0.3216634,1.36341 1.00955,2.481893 2.1579022,3.191464 0.5260151,0.325045 1.0919686,0.56923 1.6611957,0.792408 0.5609852,0.219923 1.123665,0.43375 1.7113015,0.557161 1.1121499,0.233476 2.3936039,0.193396 3.2502949,-0.70574 0.308761,-0.324139 0.648333,-0.731444 0.873598,-1.127422 0.08099,-0.1424 0.129828,-0.235535 0.03143,-0.374722 -0.117889,-0.166704 -0.308568,-0.29444 -0.460003,-0.424853 -0.863584,-0.743555 -1.398149,-1.736196 -1.532908,-2.915849 -0.136722,-1.196912 0.179819,-2.741813 1.325514,-3.264167 1.414248,-0.644818 2.971727,0.09532 4.228725,0.78524 0.534219,-1.915092 1.631117,-3.639425 3.350853,-4.517883 1.902598,-0.971839 4.085803,-1.08557 6.04101,-1.919417 0.509492,-0.217287 1.028421,-0.463944 1.403541,-0.906674 0.156749,-0.185034 0.34065,-0.425059 0.403235,-0.66978 0.08223,-0.321462 -0.121895,-0.59098 -0.279569,-0.841591 -0.836047,-1.328809 -4.006561,-4.01339 -5.656415,-4.524383 z" id="hair" fill="#191847"></path>
    </g>
    <g id="Bottom/Skinny-Jeans-1" transform="translate(0,94.159033)">
      <path d="M 88.777927,70.864282 C 87.845832,55.0008 87.675234,43.624189 88.266133,36.734451 89.277895,24.937547 90.525195,14.696448 91.266006,10.97938 c 1.766557,-8.8638231 13.886144,-4.6849089 13.903674,0.07007 0.0262,7.196851 -3.31639,27.316755 -10.027789,60.359712 z" id="LegLower" fill="#edb3a7" transform="rotate(20,96.545964,38.598804)"></path>
      <path d="m 106.95298,77.338047 c -0.5036,-6.444959 -1.43921,-28.787184 -0.50309,-39.181326 1.06858,-11.864864 2.36454,-22.181014 3.1225,-25.937856 1.80744,-8.9586713 13.88443,-5.2985918 13.87814,-0.534719 -0.0143,10.815465 -9.73143,62.160521 -10.23877,65.402193 -0.50735,3.241672 -5.94229,4.302163 -6.25878,0.251708 z" id="Leg-Back" fill="#edb3a7"></path>
      <path d="m 87.761591,62.927703 2.321453,-51.764174 c 1.814425,-8.9436315 17.569436,-4.7092448 17.587046,0.08863 0.0394,10.892669 -6.23875,48.488566 -6.22697,51.733856 z" id="path87" fill="#1f28cf" transform="rotate(20,97.715842,34.459426)"></path>
      <path d="m 123.95362,15.420016 c 0,13.562364 -5.85282,45.44235 -5.85684,48.42882 L 103.91864,63.36317 C 106.397,35.645455 107.44215,21.69269 107.05408,21.504873 106.18094,21.082287 71.261054,26.413842 60.788012,26.816431 45.685834,27.396966 39.438365,17.98636 38.931422,0.12803268 H 68.184917 C 93.199254,3.1608364 109.63971,5.2702021 117.50628,6.4561296 c 5.05172,0.7615738 6.44734,5.2278034 6.44734,8.9638864 z" id="Leg-Front" fill="url(#linearGradient-1)" style="fill:url(#linearGradient-1)"></path>
      <g id="Left-[shoe]" transform="rotate(14,-211.09397,343.82676)" fill="#191847">
        <path d="m 0.99934776,4.3108231 c -0.33083855,1.0325643 -0.49625782,1.839282 -0.49625782,2.4201532 0,0.9214671 0.15113537,2.2661169 0.4534061,4.0339497 1.05243326,0 10.51082796,0 28.37518396,0 C 30.069051,8.2889113 29.643398,6.9521908 28.054721,6.7547642 26.466045,6.5573376 25.146304,6.3790772 24.0955,6.219983 L 11.351256,0.44928187 c -0.48675,-0.22040423 -1.060011,-0.004489 -1.280415,0.4822606 -0.0053,0.0116437 -0.01031,0.0233907 -0.01512,0.0352342 L 9.3892748,2.6088057 v 0 C 7.9185759,3.3057786 6.7234804,3.6542651 5.8039882,3.6542651 c -0.5778516,0 -1.3260007,-0.1833508 -2.2444475,-0.5500524 l 8.3e-6,-2.08e-5 C 2.5670691,2.7079316 1.4412728,3.1912632 1.0450125,4.1837431 c -0.016695,0.041816 -0.031926,0.084202 -0.0456647,0.12708 z" id="shoe"></path>
      </g>
      <g id="Right-[shoe]" transform="translate(104.8362,66.395063)" fill="#191847">
        <path d="m 0.99934776,4.3108231 c -0.33083855,1.0325643 -0.49625782,1.839282 -0.49625782,2.4201532 0,0.9214671 0.15113537,2.2661169 0.4534061,4.0339497 1.05243326,0 10.51082796,0 28.37518396,0 C 30.069051,8.2889113 29.643398,6.9521908 28.054721,6.7547642 26.466045,6.5573376 25.146304,6.3790772 24.0955,6.219983 L 11.351256,0.44928187 c -0.48675,-0.22040423 -1.060011,-0.004489 -1.280415,0.4822606 -0.0053,0.0116437 -0.01031,0.0233907 -0.01512,0.0352342 L 9.3892748,2.6088057 v 0 C 7.9185759,3.3057786 6.7234804,3.6542651 5.8039882,3.6542651 c -0.5778516,0 -1.3260007,-0.1833508 -2.2444475,-0.5500524 l 8.3e-6,-2.08e-5 C 2.5670691,2.7079316 1.4412728,3.1912632 1.0450125,4.1837431 c -0.016695,0.041816 -0.031926,0.084202 -0.0456647,0.12708 z" id="path92"></path>
      </g>
      <rect id="Base" fill="#2f3676" x="105.84238" y="77.159988" width="26.663767" height="3.5769532" rx="1.7884766"></rect>
      <path d="m 42.066059,3.0659598 h 44.542809 c 5.343248,0 9.674807,4.3315585 9.674807,9.6748062 v 20.473799 0 h -60.0225 c -2.137299,0 -3.869923,-1.732624 -3.869923,-3.869923 V 12.740766 c 0,-5.3432477 4.331559,-9.6748062 9.674807,-9.6748062 z" id="Seat" fill="#2f3676"></path>
      <path d="m 86.954792,3.9268202 c 3.915337,0 7.290435,2.7542263 8.075589,6.5900308 l 13.327449,65.110158 v 0 h -6.72667" id="Wheel-Stuff" fill="#2f3676"></path>
      <ellipse id="Front-Wheel" fill="#191847" cx="105.84238" cy="76.648994" rx="9.0556192" ry="9.1978798"></ellipse>
      <g id="Wheel" transform="translate(0.696586,7.153906)" fill="#191847">
        <path d="m 38.234836,0 c 21.116516,0 38.234835,17.387242 38.234835,38.835491 0,21.44825 -17.118319,38.835491 -38.234835,38.835491 C 17.118319,77.670982 0,60.283741 0,38.835491 0,17.387242 17.118319,0 38.234836,0 Z m 0,7.1539063 c -17.226632,0 -31.1915768,14.1843287 -31.1915768,31.6815847 0,17.497256 13.9649448,31.681585 31.1915768,31.681585 17.226631,0 31.191576,-14.184329 31.191576,-31.681585 0,-17.497256 -13.964945,-31.6815847 -31.191576,-31.6815847 z" id="path99"></path>
        <rect id="rect101" x="36.222477" y="5.1099329" width="4.0247197" height="67.451118"></rect>
        <path d="m 37.911157,5.3702541 0.186058,0.00145 c 1.056858,0.00824 1.911586,0.8629645 1.919823,1.9198227 l 0.491458,63.0592192 c 0.0083,1.068617 -0.851205,1.941654 -1.919823,1.949982 -0.01005,7.8e-5 -0.02011,7.8e-5 -0.03016,0 l -0.186058,-0.0015 c -1.056858,-0.0082 -1.911586,-0.862964 -1.919823,-1.919823 L 35.961175,7.3202365 c -0.0083,-1.0686172 0.851205,-1.9416541 1.919822,-1.9499824 0.01005,-7.84e-5 0.02011,-7.84e-5 0.03016,0 z" id="path103" transform="rotate(45,38.234836,38.835491)"></path>
        <path d="m 38.125824,5.631555 h 0.218023 c 1.06865,0 1.934962,0.8663117 1.934962,1.9349613 V 70.104466 c 0,1.068649 -0.866312,1.934961 -1.934962,1.934961 h -0.218023 c -1.06865,0 -1.934962,-0.866312 -1.934962,-1.934961 V 7.5665163 c 0,-1.0686496 0.866312,-1.9349613 1.934962,-1.9349613 z" id="path105" transform="rotate(90,38.234836,38.835491)"></path>
        <path d="m 38.372456,5.3717041 0.186058,-0.00145 c 1.068617,-0.00833 1.941654,0.8512055 1.949982,1.9198226 7.9e-5,0.010053 7.9e-5,0.020107 0,0.03016 L 40.017038,70.379455 c -0.0082,1.056859 -0.862965,1.911586 -1.919823,1.919823 l -0.186058,0.0015 c -1.068617,0.0083 -1.941654,-0.851205 -1.949982,-1.919823 -7.9e-5,-0.01005 -7.9e-5,-0.02011 0,-0.03016 L 36.452633,7.2915268 c 0.0082,-1.0568582 0.862965,-1.9115859 1.919823,-1.9198227 z" id="path107" transform="rotate(135,38.234836,38.835491)"></path>
      </g>
    </g>
    <g id="Body/Long-Sleeve-1" transform="translate(32.352553,37.602294)">
      <path d="m 41.963087,10.270818 18.665952,7.132614 c 4.549628,-0.02689 8.472488,0.41634 11.768579,1.329686 0.833313,0.424979 1.970684,1.436575 -0.879658,1.989747 -2.850341,0.553171 -5.825493,1.262502 -5.963496,2.314969 -0.138004,1.052467 1.849175,1.720692 1.403789,3.211847 -0.296924,0.994103 -3.31029,-0.467685 -9.040098,-4.385363 L 40.722842,19.729403 Z" id="Hand" fill="#edb3a7" transform="rotate(-50,57.031835,18.411148)"></path>
      <path d="m 68.458931,32.918107 7.670373,-4.279893 c 1.076261,-4.159636 2.362801,-6.25249 3.859619,-6.278561 1.149867,-0.543427 -0.852619,4.712662 1.327166,4.256855 2.179785,-0.455807 7.500018,-4.474816 8.41672,-3.658806 1.356202,1.207236 0.146929,4.914148 -1.277882,6.758138 -2.662971,3.446415 -4.867795,4.624985 -10.317362,6.16833 -2.849314,0.80694 -5.929927,2.424382 -9.241839,4.852326 z" id="path112" fill="#edb3a7"></path>
      <path d="m 33.176484,20.689804 c 6.051331,0.891989 14.31237,0.871945 23.785685,-3.308502 l 2.16462,8.18086 c -6.875599,5.037433 -15.990082,8.627444 -23.246655,7.26497 -5.718579,-1.073705 -7.536693,-8.596381 -2.70365,-12.137328 z" id="Sleeve" fill="#ff9b21" transform="rotate(-9,44.759912,25.249709)"></path>
      <path d="m 33.0131,2.902442 c 0.597185,7.792915 3.061906,16.202667 5.622109,24.68865 l 0.659326,2.18345 v 0 l 0.65684,2.184768 c 0.300569,1.005056 0.598224,2.009882 0.890031,3.013584 6.493498,1.644906 17.382265,-0.294807 32.666502,-5.818978 3.791155,7.966436 5.543711,13.645893 5.257668,17.038373 -13.113606,6.957652 -24.352831,10.059164 -33.612107,10.263122 0.298438,5.577848 -0.370066,10.888414 -2.616784,15.740772 -4.61799,9.97372 -31.658884,0.736943 -40.7508613,2.554966 C -1.6773325,63.327424 1.0388632,56.028328 3.7005007,49.358366 L 3.9707449,48.682098 C 5.5881671,44.635865 7.1066014,40.779748 7.1098888,36.319675 7.1195892,23.159319 17.523293,2.902442 19.05399,2.902442 v 0 z" id="Clothes" fill="url(#linearGradient-2)" style="fill:url(#linearGradient1923)"></path>
    </g>
  </g>
  <g id="g2000">
    <g id="g130" transform="translate(177.05189,150.11376)">
      <path d="m 76.545494,104.68731 3.451965,7.97632 c 1.131772,0.49842 2.28008,0.74763 3.444923,0.74763 1.164843,0 2.42008,-0.24921 3.765709,-0.74763 v -7.97632 z" id="Path-2" fill="#b28b67"></path>
      <g id="g121" transform="translate(77.514821,109.53395)" fill="#e4e4e4">
        <path d="M 0.90538595,4.3874553 C 0.63020118,5.1720017 0.4926088,5.7927786 0.4926088,6.2497861 c 0,0.7865883 0.14798668,1.9344162 0.44396004,3.4434838 1.03050736,0 10.29185016,0 27.78402916,0 C 29.442606,7.5796798 29.025821,6.4386205 27.470242,6.2700921 25.914664,6.1015636 24.622418,5.9493959 23.593505,5.8135889 L 11.100942,0.88211042 C 10.604383,0.68609219 10.04107,0.9107946 9.8157542,1.3947645 L 9.193663,2.7309943 v 0 C 7.753604,3.3259484 6.5834065,3.6234256 5.6830707,3.6234256 c -0.568099,0 -1.3042977,-0.1577803 -2.2085963,-0.4733407 l 1.7e-6,-4.8e-6 C 2.4234042,2.7833022 1.2738495,3.3369731 0.90538595,4.3874553 Z" id="path119"></path>
      </g>
      <polygon id="leg-[skin]" fill="#b28b67" points="27.994075,66.583975 2.8766423,116.31924 8.8026576,116.31924 73.637513,7.7546159 53.549935,7.7546159 "></polygon>
      <path d="m 37.37987,101.08758 11.737547,2.33269 C 58.122392,89.636177 95.813875,33.120192 99.855198,6.7508182 L 73.747725,6.6349498 C 59.939571,25.649021 45.959513,87.072926 37.37987,101.08758 Z" id="Pant-Copy" fill="#2f3676" transform="matrix(-0.97437006,-0.22495105,-0.22495105,0.97437006,147.85492,16.845941)"></path>
      <g id="g127" transform="translate(0.937988,109.53395)" fill="#e4e4e4">
        <path d="m 0.95346908,4.3356479 c -0.29664645,0.809071 -0.44496967,1.447117 -0.44496967,1.9141382 0,0.7865883 0.15276044,1.9344162 0.45828133,3.4434838 1.06374956,0 10.62384526,0 28.68028826,0 C 30.392368,7.5796798 29.962138,6.4386205 28.356379,6.2700921 26.750621,6.1015636 25.41669,5.9493959 24.354586,5.8135889 L 11.413982,0.8648806 C 10.923691,0.67738488 10.371538,0.89713822 10.144168,1.3702587 L 9.4902328,2.7309943 v 0 C 8.0037203,3.3259484 6.7957745,3.6234256 5.8663955,3.6234256 c -0.6034534,0 -1.3906532,-0.1670767 -2.3615993,-0.5012299 l 5.2e-6,-1.51e-5 C 2.4658195,2.7646127 1.3317179,3.3040152 0.95346908,4.3356479 Z" id="path125"></path>
      </g>
      <path d="m 5.7846233,107.06994 13.1922027,2.46401 C 29.177,94.598105 71.865144,33.356127 76.545494,4.846635 H 47.176677 C 31.546609,25.456111 15.507496,91.887029 5.7846233,107.06994 Z" id="Pant" fill="url(#linearGradient-3)" style="fill:url(#linearGradient-3)"></path>
    </g>
    <path d="m 261.71248,116.95091 c 14.82675,-12.24324 23.22105,-18.769911 25.18291,-19.580001 1.43865,-0.594047 7.97607,-0.204992 12.16183,0.47341 1.68011,0.272301 2.09633,-1.134689 1.93276,-1.785923 -1.3305,-5.296992 -5.54676,-4.895351 -9.45298,-6.272713 -4.27961,-1.509019 -0.36448,-5.51926 -3.71775,-6.76122 -0.79537,2.506194 -1.92876,7.520806 -4.58957,8.872847 -1.18259,0.600907 -10.76075,6.496932 -28.7345,17.68808 z" id="Arm" fill="#b28b67"></path>
    <path d="m 241.02747,113.44658 11.98507,-21.963889 c 0.25725,-5.408926 1.18288,-10.058051 2.77689,-13.947376 0.69585,-0.977197 2.29681,-2.297394 2.94497,1.108147 0.64815,3.40554 1.52378,6.964346 3.10293,7.161453 1.57914,0.197107 2.71759,-2.144032 4.93859,-1.567762 1.48068,0.38418 -0.92243,3.920204 -7.20932,10.608071 l -4.34723,20.372766 z" id="path134" fill="#b28b67"></path>
    <path d="m 221.15613,136.05852 3.51786,-7.68244 c 14.17171,-13.80554 15.08268,-18.20022 22.36959,-41.268574 l 20.15572,7.055306 c -13.08532,25.410548 -25.09658,34.166358 -46.04317,41.895708 z" id="Coat-Back" fill="#191847"></path>
    <path d="m 219.75497,162.71501 38.72039,-3.07829 c -10.88405,-19.16051 -16.99479,-35.68638 -18.33223,-49.57761 l -11.83269,-0.65708 c -7.8843,14.18133 -8.88205,30.94901 -8.55547,53.31298 z" id="Shirt" fill="#dde3e9"></path>
    <path d="m 211.96813,176.28559 34.8753,-3.06723 c -5.83238,-29.91123 -9.33215,-49.83511 -10.4993,-59.77166 l -3.54795,-7.92198 c -1.8836,0.0822 -3.28527,0.14765 -4.20502,0.19647 l -0.76636,0.067 c -6.96608,15.68468 -16.37423,45.64684 -15.85667,70.49735 z" id="Coat-Front" fill="url(#linearGradient-4)" style="fill:url(#linearGradient-4)"></path>
    <path d="m 220.6716,130.72722 c 21.16972,-1.5695 43.78735,-11.6158 67.85289,-30.13889 L 276.66312,87.107506 c -26.31109,28.037254 -42.38814,20.500554 -48.12883,24.972794 -3.82713,2.98149 -6.44802,9.19713 -7.86269,18.64692 z" id="Clothes-Front" fill="url(#linearGradient-5)" style="fill:url(#linearGradient-5)"></path>
    <polygon id="Light" fill-opacity="0.2" fill="#ffffff" points="137.58477,156.06165 148.74232,147.3377 149.2167,154.68304 " transform="translate(83.086832,11.5)"></polygon>
    <g id="g150" transform="translate(206.02883,76.444909)">
      <g id="g144" transform="rotate(-34,22.826241,-7.4418921)" fill="url(#linearGradient-6)" style="fill:url(#linearGradient1037)">
        <path d="M 17.386751,4.4374918 C 20.028181,9.6849454 19.71431,22.995547 16.300498,23.933413 14.938946,24.307468 12.038289,23.39106 9.0862356,21.494446 L 10.93984,35.465216 H 0 L 3.766452,16.756521 C 1.6658863,14.12875 0.24414578,10.908331 0.48170682,7.2997392 1.1661551,-3.0971436 14.745322,-0.80996181 17.386751,4.4374918 Z" id="path142" style="fill:url(#linearGradient1035)"></path>
      </g>
      <g id="Hijab" transform="rotate(-34,24.841221,6.7509352)">
        <path d="M 23.126365,2.4346977 C 22.875784,2.2752965 22.351524,1.939072 22.085929,1.8172135 22.023078,1.7878905 21.583009,1.4532743 21.571175,1.4574746 21.237989,1.5773182 20.273177,2.0196415 20.190366,2.401852 c -0.01284,0.028964 -0.02544,0.056135 -0.03771,0.07988 -0.136712,0.2648857 -0.26215,0.5363602 -0.381818,0.811129 -0.262592,0.6031605 -0.489269,1.2335566 -0.705761,1.8589948 -0.421678,1.2180634 -0.788012,2.4645039 -1.124819,3.7137821 -0.342901,1.2717511 -0.633931,2.5583441 -0.959728,3.8353471 -0.468809,1.837532 -1.068826,3.629988 -1.534398,5.46677 -0.2973,1.172823 -0.462657,2.359411 -0.384586,3.566515 7.66e-4,0.01451 0.0012,0.02883 0.0024,0.04358 4.71e-4,0.006 0.0012,0.012 0.0017,0.01804 0.01328,0.18556 0.03221,0.371577 0.05743,0.558148 0.02208,0.159532 0.04422,0.319651 0.06783,0.479737 0.42527,-0.903828 0.749948,-1.899734 1.094497,-2.844986 0.03371,-0.09254 0.06585,-0.185756 0.09727,-0.27927 0.111101,-0.191692 0.22438,-0.382014 0.338926,-0.571619 0.722364,-1.195623 1.447584,-2.386842 2.140274,-3.60409 1.2459,-2.189311 2.480172,-4.424906 3.957283,-6.4353107 0.436162,-0.5936689 0.88248,-1.1782375 1.313167,-1.7767664 C 24.377417,6.9811361 24.616134,6.6348374 24.84711,6.282374 25.012231,6.0303395 25.730107,5.1518557 25.470148,4.6240413 25.337142,4.3539891 23.776399,2.8482534 23.126365,2.4346977 Z" id="Front" fill="#2c2c2c"></path>
        <path d="m 22.165034,1.8612757 c 0.243686,0.08728 0.12513,-0.45318 -0.110899,-0.643369 C 20.960664,0.33680182 16.780188,0.01706701 13.14225,0.82195922 10.705171,1.3611616 7.8707881,2.7032087 5.9242214,4.4285163 4.1694439,5.9838851 2.9626382,8.4772228 2.3413182,10.886206 c -0.6523649,2.529479 -0.751169,5.166559 -0.3877175,7.760417 0.079847,0.569757 0.2514195,1.112718 0.3470141,1.670389 0.1076527,0.628012 0.1628738,1.232664 0.3547829,1.843666 0.1175211,0.374059 0.3172289,0.740764 0.4175028,1.116962 0.1144616,0.42927 0.044693,0.826398 -0.038784,1.263023 -0.1360281,0.711636 -0.3046909,1.421815 -0.5443823,2.101473 -0.3599421,1.020605 -0.7967318,1.976474 -1.0705877,3.035569 -0.3643814,1.409212 -1.8886089,5.995024 -0.77470411,7.244985 H 21.848861 C 21.314917,35.370367 19.712182,33.543431 19.387724,31.881693 19.196625,30.902787 19.105709,28.764993 19.085703,28.687298 18.607859,25.17658 17.674827,23.50006 17.090464,22.89163 16.506101,22.2832 15.727773,22.096104 15.68767,21.568338 c -0.165754,-2.182797 0.648645,-4.274259 1.245819,-6.311418 0.711726,-2.427969 1.233312,-4.916171 1.967053,-7.3359104 0.324908,-1.0715051 1.999217,-6.5129139 3.264492,-6.0597339 z" id="Turban" fill="url(#linearGradient-7)" style="fill:url(#linearGradient-7)"></path>
        <path d="m 6.5518348,23.261505 c 4.3792802,1.46196 3.8914702,4.480245 9.4072072,7.536932 l -0.460936,0.297665 C 10.668362,28.971712 9.5393431,24.41529 6.2309012,23.677315 Z M 10.125485,7.4293823 c 0.676793,5.4697867 0.874381,8.5941337 4.40009,14.5773367 l -0.37511,0.12223 C 10.521904,16.919407 9.946721,12.667445 9.7752895,7.4594228 Z M 4.0031108,11.350962 c 1.4900847,3.853596 2.1694796,6.129201 6.3305452,9.2476 l -0.321312,0.239791 C 5.8815881,18.34322 4.6786694,15.366937 3.6896901,11.5115 Z M 14.73051,4.3724238 C 13.930902,7.0765013 13.758924,8.519928 13.930902,12.214662 h -0.392249 c -0.732762,-3.4867184 -0.0806,-6.7690962 0.698845,-7.8422382 z" id="Shade" fill-opacity="0.2" fill="#000000"></path>
      </g>
    </g>
  </g>
  <g id="Group-4-Copy" transform="translate(31.365811,82.635496)">
    <g id="Stool" transform="matrix(-1,0,0,1,88.347351,116.97882)" fill="#275799" fill-rule="nonzero">
      <path d="M 10.967795,5.2101407 C 9.9778932,10.685031 0.44996533,69.719283 0.44996533,69.719283 c 0,0 0.21492835,1.490844 1.76495887,1.710148 1.5501148,0.219223 2.3707043,-1.140152 2.3707043,-1.140152 L 18.023077,6.644618 Z" id="Fill-52"></path>
      <path d="m 42.472624,6.2209244 c 1.051303,5.4784596 13.46724,64.1673296 13.46724,64.1673296 0,0 0.743024,1.32988 2.283997,1.017613 1.540973,-0.312186 1.821874,-1.864743 1.821874,-1.864743 L 49.644675,5.2101407 Z" id="Fill-53"></path>
      <path d="m 58.517639,6.2209235 c 1.051303,5.4784545 13.46724,64.1672735 13.46724,64.1672735 0,0 0.743024,1.329879 2.283997,1.017693 1.540973,-0.312267 1.821874,-1.864822 1.821874,-1.864822 L 65.68969,5.2101407 Z" id="Fill-54"></path>
      <path d="M 66.825531,7.4430581 H 9.7151841 C 7.5519446,7.4430581 5.7983036,5.7768607 5.7983036,3.721489 5.7983036,1.6661974 7.5519446,0 9.7151841,0 H 66.825531 c 2.16324,0 3.916881,1.6661974 3.916881,3.721489 0,2.0553717 -1.753641,3.7215691 -3.916881,3.7215691" id="Fill-55"></path>
    </g>
    <g id="A-Human/Standing" transform="matrix(-1,0,0,1,121.67238,0)">
      <g transform="matrix(-1,0,0,1,118.67893,3.885775)" id="g189">
        <g id="g164" transform="translate(12.356616,0.126913)">
          <polygon id="Neck" fill="url(#linearGradient-8)" points="23.068491,47.51277 7.5747141,47.51277 13.278411,20.362616 19.310763,20.362616 " style="fill:url(#linearGradient-8)"></polygon>
          <g id="g162" transform="rotate(-18,25.998129,3.5313208)">
            <path d="M 21.564903,29.347997 C 17.225436,30.461285 0.58681005,21.94466 1.4568464,9.6031167 2.3268829,-2.7384268 19.588041,-0.02344447 22.945693,6.2055069 26.303346,12.434458 25.90437,28.23471 21.564903,29.347997 Z" fill="url(#linearGradient-9)" id="path159" style="fill:url(#linearGradient-9)"></path>
            <path d="m 14.900271,0.60292045 c 3.823358,0.33045083 7.237432,1.50520835 8.205009,2.20286785 0,3.6473784 -0.70137,4.7295449 -6.692026,4.6341559 -1.463495,0.7788079 -2.590512,2.1166649 -3.76182,3.8700698 l -0.02052,0.02933 c 0.521538,7.322348 1.901359,10.983522 4.139464,10.983522 3.357158,0 6.205467,-2.147529 7.678507,-2.147529 1.073797,0 0.834051,1.354029 0.122283,2.357945 -0.587232,0.828263 -3.447002,1.626609 -3.447002,2.910695 0,0.667725 0.610957,0.71961 1.197475,0.722659 l 0.266652,4e-6 c 0.433816,0.0011 0.795328,0.02494 0.795328,0.329563 0,1.259723 0.397096,3.628229 -1.772695,3.628229 -2.195902,0 -8.49194,-0.806346 -9.570911,-4.090365 -0.696224,-2.119069 -1.146422,-6.509809 -1.350595,-13.172221 -0.132792,-0.01914 -0.268615,-0.02738 -0.406347,-0.02738 -1.8814489,0 -3.4066643,1.536875 -3.4066643,3.432706 0,0.962427 0.3930676,1.832346 1.026266,2.455651 -0.7882558,1.121126 -1.6716645,2.29229 -2.6839566,3.500778 C 1.4157564,19.924537 -2.0628446,12.69181 1.6551678,6.2264836 2.6828382,3.0592209 5.665927,1.869972 8.4135817,1.0844363 10.639324,0.1462842 12.949854,0.04050672 14.900271,0.60292045 Z" id="Hair" fill="url(#linearGradient-10)" style="fill:url(#linearGradient-10)"></path>
          </g>
        </g>
        <g id="g179" transform="translate(8.317677,91.08052)">
          <path d="m 93.823403,12.545286 c -0.0065,4.877284 -1.880757,17.430912 -4.093655,30.610271 l -0.318268,1.886261 c -2.988916,17.63062 -6.450505,35.776774 -6.760527,37.725904 -0.55361,3.480589 -6.48416,4.619239 -6.829516,0.270259 -0.329711,-4.151977 -0.829133,-14.448765 -0.955275,-24.432484 l -0.01378,-1.245868 c -0.0078,-0.828868 -0.01293,-1.653693 -0.01496,-2.470739 l -7.05e-4,-1.219266 c 0.0067,-4.849989 0.129312,-9.352632 0.435759,-12.700694 0.298366,-3.259782 0.612979,-6.410686 0.929844,-9.362576 -5.572403,10.004909 -14.046382,24.146988 -25.421676,42.425644 l -6.322206,-2.886801 c 4.964631,-16.347746 9.035555,-27.888819 12.212769,-34.62322 1.89974,-4.026674 3.758125,-7.851379 5.463797,-11.272259 l 0.461313,-0.922804 C 65.56915,18.395742 68.030261,13.791283 69.359272,11.638059 72.19546,7.042953 76.795879,7.6535767 80.036581,9.9291101 83.976584,4.5855611 93.829337,8.1223508 93.823403,12.545286 Z" id="Legs-[skin]" fill="#9a5a4d"></path>
          <path d="m 54.742414,67.674913 2.81937,-55.698219 c 2.026458,-9.6312859 19.162301,-5.1647104 19.154312,-0.0035 -0.01815,11.717538 -7.067308,52.196511 -7.072714,55.687557 z" id="path167" fill="#000000" transform="rotate(20,65.729255,36.990831)"></path>
          <path d="m 94.606691,16.432473 c 0,14.561932 -6.620859,49.985696 -6.625248,53.192273 L 72.510399,69.103286 C 75.214759,39.342733 76.355213,24.361627 75.931761,24.159968 74.978994,23.706236 36.874765,29.430735 25.446686,29.862995 8.9673409,30.486317 2.1501657,20.382135 1.596994,1.207621 h 31.921122 c 27.295393,3.2563261 45.235052,5.5211552 53.818976,6.7944875 5.512388,0.817703 7.269599,4.4189265 7.269599,8.4303645 z" id="path169" fill="#000000"></path>
          <g id="g173" transform="rotate(14,-244.50258,208.31683)" fill="#e4e4e4">
            <path d="M 1.2532875,4.5536452 C 0.7837403,5.8957293 0.54896671,6.9224148 0.54896671,7.6337017 c 0,0.9893807 0.16491739,2.4331333 0.49475219,4.3312573 1.1484046,0 11.4693101,0 30.9627171,0 C 32.811047,9.3064589 32.346579,7.8712201 30.613031,7.6592428 28.879483,7.4472656 27.439396,7.2558671 26.292768,7.0850474 L 12.167069,0.79132368 c -0.419608,-0.18695665 -0.911325,0.001644 -1.098282,0.42125162 -0.0032,0.00707 -0.0062,0.014191 -0.0092,0.021351 L 10.24544,3.2077211 v 0 c -1.6047692,0.7483405 -2.9088455,1.122511 -3.9121862,1.122511 -0.7146393,0 -1.6679769,-0.2528755 -2.8600129,-0.7586266 l 3.8e-6,-9e-6 C 2.6274695,3.2127552 1.6509348,3.6074932 1.2920935,4.4532684 1.278079,4.4863001 1.2651369,4.5197765 1.2532875,4.5536452 Z" id="path171"></path>
          </g>
          <g id="g177" transform="translate(73.511633,74.208912)" fill="#e4e4e4">
            <path d="M 1.2532875,4.5536452 C 0.7837403,5.8957293 0.54896671,6.9224148 0.54896671,7.6337017 c 0,0.9893807 0.16491739,2.4331333 0.49475219,4.3312573 1.1484046,0 11.4693101,0 30.9627171,0 C 32.811047,9.3064589 32.346579,7.8712201 30.613031,7.6592428 28.879483,7.4472656 27.439396,7.2558671 26.292768,7.0850474 L 12.167069,0.79132368 c -0.419608,-0.18695665 -0.911325,0.001644 -1.098282,0.42125162 -0.0032,0.00707 -0.0062,0.014191 -0.0092,0.021351 L 10.24544,3.2077211 v 0 c -1.6047692,0.7483405 -2.9088455,1.122511 -3.9121862,1.122511 -0.7146393,0 -1.6679769,-0.2528755 -2.8600129,-0.7586266 l 3.8e-6,-9e-6 C 2.6274695,3.2127552 1.6509348,3.6074932 1.2920935,4.4532684 1.278079,4.4863001 1.2651369,4.5197765 1.2532875,4.5536452 Z" id="path175"></path>
          </g>
        </g>
        <g id="g187" transform="translate(0.432519,30.976514)">
          <path d="M 21.968184,6.1139968 26.62618,4.8896199 C 45.497153,18.502888 55.249858,46.974123 78.105271,60.508914 l -4.615423,6.865667 C 35.775795,66.021867 23.42256,31.333802 21.968184,6.1139968 Z" id="path181" fill="#ee7979" transform="rotate(1,50.036728,36.132101)"></path>
          <path d="m 9.4821522,65.041894 c 19.0336398,0 33.0343858,0 42.0022388,0 1.919288,0 1.557635,-2.769806 1.28019,-4.167465 C 49.562534,44.743751 37.062955,27.355661 37.062955,4.3940478 L 24.947532,2.4953032 C 14.926521,18.602919 11.461082,38.434657 9.4821522,65.041894 Z" id="path183" fill="#dde3e9"></path>
          <path d="M 23.568563,14.075619 C 14.567917,19.876557 8.5915244,20.115117 5.6393853,14.791299 1.2111766,6.805573 2.81041,2.4088393 7.5427607,0.96360804 12.275111,-0.48162318 16.495377,2.4953032 24.035277,2.4953032 c 5.026599,0 4.871028,3.8601053 -0.466714,11.5803158 z" id="hood" fill="#ed7575"></path>
          <path d="M 0.14971819,76.563634 C 20.208613,80.262262 32.102892,77.336106 35.832554,67.785166 39.562216,58.234225 37.269656,36.568734 28.954873,2.7886906 L 23.810475,2.4953032 C 14.847229,18.650071 1.9197624,49.878509 0.14971819,76.563634 Z" id="Clothes-Body" fill="url(#radialGradient-11)" style="fill:url(#radialGradient-11)"></path>
        </g>
      </g>
    </g>
  </g>
  <g id="Laptop" transform="translate(70.339167,143.68695)">
    <path d="M 18.263064,42.0158 0.24375731,36.29629 c 0,0 -1.1202217,-1.35413 2.17821439,-1.710421 3.2983374,-0.356291 37.7614023,-1.410708 37.7614023,-1.410708 z" id="Fill-20" fill="#005a9c" fill-rule="nonzero" style="fill:#005a9f"></path>
    <path d="m 68.659455,41.335751 h -49.92321 c -0.924749,0 -1.674543,-0.844335 -1.674543,-1.886066 L 21.593781,2.4188658 c 0,-1.0416211 0.7496,-1.88606605 1.674349,-1.88606605 h 49.92321 c 0.924846,0 1.674543,0.84444495 1.674543,1.88606605 l -4.53208,37.0308192 c 0,1.041731 -0.749599,1.886066 -1.674348,1.886066" id="Fill-22" fill="url(#linearGradient-12)" fill-rule="nonzero" style="fill:url(#linearGradient-12)"></path>
    <circle id="Oval" fill="#ffffff" cx="46.643841" cy="21.2743" r="5.100369"></circle>
  </g>
  <g id="g201" transform="matrix(-0.8660254,-0.5,-0.5,0.8660254,117.81515,163.57011)">
    <path d="M 30.172824,40.634832 20.742707,37.960845 C 13.883644,37.712885 7.9886917,36.804492 3.0578503,35.235667 1.8192247,34.550027 0.14640666,32.971537 4.4656733,32.328176 8.78494,31.684815 13.298764,30.816798 13.550084,29.258177 c 0.25132,-1.558621 -2.716596,-2.679551 -1.983891,-4.872017 0.48847,-1.461645 4.970579,0.906036 13.446328,7.10304 l 25.831807,4.267871 z" fill="url(#linearGradient-13)" transform="rotate(11,26.260353,32.301281)" id="path197" style="fill:url(#linearGradient-13)"></path>
    <path d="m 24.606234,5.6600483 7.350404,-1.033032 c 9.531507,17.7472477 3.679914,8.0264597 14.387801,22.3592577 8.554004,11.449766 17.37378,5.150284 32.597628,-1.68761 l 7.779249,10.869673 C 75.799632,43.720119 55.866432,63.362614 39.215223,51.738739 22.188272,39.852566 16.474206,28.097374 24.606234,5.6600483 Z" id="path199" fill="url(#linearGradient-14)" transform="matrix(-0.99026807,0.1391731,0.1391731,0.99026807,102.98229,-7.2012233)" style="fill:url(#linearGradient-14)"></path>
  </g>
</svg>
