<?xml version="1.0" encoding="utf-8"?>
<!-- Generator: Adobe Illustrator 24.1.2, SVG Export Plug-In . SVG Version: 6.00 Build 0)  -->
<svg version="1.1" xmlns="http://www.w3.org/2000/svg" xmlns:xlink="http://www.w3.org/1999/xlink" x="0px" y="0px"
	 viewBox="0 0 829.22 829.45" style="enable-background:new 0 0 829.22 829.45;" xml:space="preserve">
<style type="text/css">
	.st0{display:none;}
	.st1{display:inline;fill:#FFFFFF;}
	.st2{display:inline;}
	.st3{fill:#898989;}
	.st4{display:inline;fill:url(#SVGID_1_);}
	.st5{fill:#91B3FA;}
	.st6{fill:#BDD0FB;}
	.st7{opacity:0.5;}
	.st8{fill:url(#SVGID_2_);}
	.st9{fill:url(#SVGID_3_);}
	.st10{fill:url(#SVGID_4_);}
	.st11{fill:url(#SVGID_5_);}
	.st12{fill:url(#SVGID_6_);}
	.st13{fill:url(#SVGID_7_);}
	.st14{fill:url(#SVGID_8_);}
	.st15{fill:url(#SVGID_9_);}
	.st16{fill:url(#SVGID_10_);}
	.st17{fill:url(#SVGID_11_);}
	.st18{fill:url(#SVGID_12_);}
	.st19{fill:url(#SVGID_13_);}
	.st20{fill:url(#SVGID_14_);}
	.st21{fill:url(#SVGID_15_);}
	.st22{fill:url(#SVGID_16_);}
	.st23{fill:url(#SVGID_17_);}
	.st24{fill:url(#SVGID_18_);}
	.st25{fill:url(#SVGID_19_);}
	.st26{fill:url(#SVGID_20_);}
	.st27{fill:url(#SVGID_21_);}
	.st28{fill:url(#SVGID_22_);}
	.st29{fill:url(#SVGID_23_);}
	.st30{fill:url(#SVGID_24_);}
	.st31{fill:url(#SVGID_25_);}
	.st32{fill:url(#SVGID_26_);}
	.st33{fill:url(#SVGID_27_);}
	.st34{fill:url(#SVGID_28_);}
	.st35{fill:url(#SVGID_29_);}
	.st36{fill:url(#SVGID_30_);}
	.st37{fill:url(#SVGID_31_);}
	.st38{fill:url(#SVGID_32_);}
	.st39{fill:url(#SVGID_33_);}
	.st40{fill:url(#SVGID_34_);}
	.st41{fill:url(#SVGID_35_);}
	.st42{fill:url(#SVGID_36_);}
	.st43{fill:url(#SVGID_37_);}
	.st44{fill:url(#SVGID_38_);}
	.st45{fill:url(#SVGID_39_);}
	.st46{fill:url(#SVGID_40_);}
	.st47{fill:url(#SVGID_41_);}
	.st48{display:inline;fill:url(#SVGID_42_);}
	.st49{fill:#FFFFFF;}
	.st50{fill:url(#SVGID_43_);}
	.st51{fill:url(#SVGID_44_);}
	.st52{opacity:0.58;fill:#FFFFFF;}
	.st53{fill:url(#SVGID_45_);}
	.st54{fill:url(#SVGID_46_);}
	.st55{fill:url(#SVGID_47_);}
	.st56{clip-path:url(#SVGID_49_);fill:url(#SVGID_50_);}
	.st57{fill:url(#SVGID_51_);}
	.st58{fill:url(#SVGID_52_);}
	.st59{fill:url(#SVGID_53_);}
	.st60{fill:url(#SVGID_54_);}
	.st61{fill:url(#SVGID_55_);}
	.st62{fill:url(#SVGID_56_);}
	.st63{fill:url(#SVGID_57_);}
	.st64{opacity:0.65;fill:#FFFFFF;}
	.st65{opacity:0.85;fill:#FFFFFF;}
	.st66{fill:url(#SVGID_58_);}
	.st67{fill:url(#SVGID_59_);}
	.st68{fill:#B57039;}
	.st69{fill:url(#SVGID_60_);}
	.st70{fill:url(#SVGID_61_);}
	.st71{fill:url(#SVGID_62_);}
	.st72{fill:url(#SVGID_63_);}
	.st73{fill:url(#SVGID_64_);}
</style>
<g id="Background" class="st0">
	<rect x="-2428.21" y="-186.7" class="st1" width="3500" height="1500"/>
</g>
<g id="Text" class="st0">
	<g class="st2">
		<path class="st3" d="M-1967.24,1086.15c2.43,0,4.65-0.13,6.65-0.38s3.86-0.63,5.57-1.13s3.35-1.11,4.9-1.82
			c1.55-0.72,3.11-1.53,4.68-2.43v-19.05h-13.6c-0.37,0-0.67-0.12-0.92-0.35c-0.25-0.23-0.38-0.5-0.38-0.8v-2.8h19.55v25.15
			c-1.77,1.23-3.6,2.33-5.5,3.3c-1.9,0.97-3.93,1.77-6.1,2.42c-2.17,0.65-4.5,1.15-7,1.5s-5.23,0.52-8.2,0.52
			c-5.1,0-9.76-0.86-13.97-2.57c-4.22-1.72-7.83-4.15-10.85-7.3c-3.02-3.15-5.36-6.96-7.02-11.42c-1.67-4.47-2.5-9.43-2.5-14.9
			c0-5.47,0.83-10.43,2.5-14.88c1.67-4.45,4.03-8.25,7.1-11.4c3.07-3.15,6.79-5.58,11.17-7.3c4.38-1.72,9.29-2.57,14.73-2.57
			c2.7,0,5.19,0.18,7.47,0.55c2.28,0.37,4.41,0.91,6.38,1.63c1.97,0.72,3.8,1.6,5.5,2.65c1.7,1.05,3.33,2.26,4.9,3.63l-1.35,2.2
			c-0.3,0.5-0.72,0.75-1.25,0.75c-0.3,0-0.58-0.07-0.85-0.2c-0.5-0.2-1.22-0.67-2.17-1.4c-0.95-0.73-2.23-1.5-3.85-2.3
			c-1.62-0.8-3.64-1.52-6.08-2.15c-2.43-0.63-5.38-0.95-8.85-0.95c-4.6,0-8.75,0.73-12.45,2.2c-3.7,1.47-6.86,3.57-9.48,6.3
			c-2.62,2.73-4.63,6.07-6.05,10c-1.42,3.93-2.13,8.35-2.13,13.25c0,5,0.72,9.48,2.15,13.45c1.43,3.97,3.44,7.33,6.02,10.08
			c2.58,2.75,5.68,4.86,9.3,6.33C-1975.6,1085.42-1971.61,1086.15-1967.24,1086.15z"/>
		<path class="st3" d="M-1917.7,1085.15h33.55v4.35h-38.65v-70.75h5.1V1085.15z"/>
		<path class="st3" d="M-1812.55,1054.1c0,5.47-0.82,10.42-2.45,14.88c-1.63,4.45-3.93,8.25-6.9,11.4
			c-2.97,3.15-6.52,5.58-10.65,7.3c-4.13,1.72-8.72,2.58-13.75,2.58c-4.97,0-9.52-0.86-13.65-2.58c-4.13-1.72-7.68-4.15-10.65-7.3
			s-5.28-6.95-6.92-11.4c-1.65-4.45-2.48-9.41-2.48-14.88c0-5.43,0.83-10.38,2.48-14.83c1.65-4.45,3.96-8.25,6.92-11.4
			s6.52-5.59,10.65-7.33c4.13-1.73,8.68-2.6,13.65-2.6c5.03,0,9.62,0.86,13.75,2.57c4.13,1.72,7.68,4.16,10.65,7.33
			c2.97,3.17,5.27,6.98,6.9,11.42C-1813.36,1043.73-1812.55,1048.67-1812.55,1054.1z M-1817.85,1054.1c0-4.93-0.68-9.37-2.05-13.3
			c-1.37-3.93-3.29-7.27-5.77-10c-2.48-2.73-5.48-4.82-8.98-6.27c-3.5-1.45-7.38-2.17-11.65-2.17c-4.2,0-8.04,0.73-11.53,2.17
			c-3.48,1.45-6.48,3.54-9,6.27c-2.52,2.73-4.47,6.07-5.85,10c-1.38,3.93-2.08,8.37-2.08,13.3c0,4.97,0.69,9.41,2.08,13.32
			c1.38,3.92,3.33,7.24,5.85,9.98c2.52,2.73,5.52,4.82,9,6.25c3.48,1.43,7.32,2.15,11.53,2.15c4.27,0,8.15-0.72,11.65-2.15
			c3.5-1.43,6.49-3.52,8.98-6.25c2.48-2.73,4.41-6.06,5.77-9.98C-1818.53,1063.51-1817.85,1059.07-1817.85,1054.1z"/>
		<path class="st3" d="M-1761.65,1027.35c-0.3,0.57-0.73,0.85-1.3,0.85c-0.44,0-1-0.31-1.68-0.93c-0.69-0.62-1.62-1.3-2.79-2.05
			s-2.63-1.44-4.39-2.08c-1.76-0.63-3.92-0.95-6.5-0.95c-2.57,0-4.84,0.37-6.8,1.1c-1.96,0.73-3.59,1.73-4.92,3
			c-1.32,1.27-2.32,2.73-3.01,4.4c-0.69,1.67-1.03,3.42-1.03,5.25c0,2.4,0.51,4.38,1.53,5.95c1.02,1.57,2.36,2.9,4.03,4
			s3.56,2.02,5.68,2.77c2.12,0.75,4.3,1.49,6.54,2.23c2.24,0.73,4.41,1.54,6.53,2.43c2.12,0.88,4.01,1.99,5.68,3.32
			c1.67,1.33,3.01,2.98,4.03,4.93c1.02,1.95,1.53,4.38,1.53,7.27c0,2.97-0.51,5.76-1.52,8.38c-1.02,2.62-2.49,4.89-4.43,6.82
			c-1.93,1.93-4.3,3.46-7.1,4.58c-2.8,1.12-6,1.67-9.6,1.67c-4.67,0-8.68-0.82-12.05-2.47c-3.37-1.65-6.32-3.91-8.85-6.78l1.4-2.2
			c0.4-0.5,0.87-0.75,1.4-0.75c0.3,0,0.68,0.2,1.15,0.6c0.47,0.4,1.04,0.89,1.7,1.47c0.67,0.58,1.47,1.22,2.4,1.9
			c0.93,0.68,2.02,1.32,3.25,1.9c1.23,0.58,2.65,1.07,4.25,1.48c1.6,0.4,3.42,0.6,5.46,0.6c2.8,0,5.31-0.42,7.51-1.27
			c2.2-0.85,4.06-2.01,5.58-3.48c1.52-1.47,2.68-3.21,3.48-5.22c0.8-2.02,1.2-4.18,1.2-6.48c0-2.5-0.51-4.56-1.53-6.18
			c-1.02-1.62-2.36-2.97-4.03-4.05c-1.67-1.08-3.56-1.99-5.68-2.73c-2.12-0.73-4.3-1.45-6.53-2.15c-2.24-0.7-4.42-1.48-6.54-2.35
			c-2.12-0.87-4.01-1.98-5.68-3.32c-1.67-1.35-3.01-3.03-4.03-5.05c-1.02-2.02-1.53-4.54-1.53-7.57c0-2.37,0.45-4.65,1.35-6.85
			c0.9-2.2,2.22-4.14,3.96-5.83c1.74-1.68,3.88-3.03,6.43-4.05c2.55-1.02,5.47-1.52,8.74-1.52c3.67,0,6.97,0.58,9.89,1.75
			c2.92,1.17,5.58,2.95,7.98,5.35L-1761.65,1027.35z"/>
		<path class="st3" d="M-1709.4,1027.35c-0.3,0.57-0.73,0.85-1.3,0.85c-0.44,0-1-0.31-1.68-0.93c-0.69-0.62-1.61-1.3-2.78-2.05
			c-1.17-0.75-2.63-1.44-4.39-2.08c-1.76-0.63-3.92-0.95-6.5-0.95c-2.58,0-4.84,0.37-6.8,1.1c-1.96,0.73-3.6,1.73-4.92,3
			c-1.32,1.27-2.32,2.73-3.01,4.4c-0.69,1.67-1.03,3.42-1.03,5.25c0,2.4,0.51,4.38,1.53,5.95c1.02,1.57,2.36,2.9,4.03,4
			c1.67,1.1,3.56,2.02,5.68,2.77c2.12,0.75,4.3,1.49,6.53,2.23c2.24,0.73,4.41,1.54,6.53,2.43c2.12,0.88,4.01,1.99,5.68,3.32
			c1.67,1.33,3.01,2.98,4.03,4.93c1.02,1.95,1.53,4.38,1.53,7.27c0,2.97-0.51,5.76-1.53,8.38c-1.02,2.62-2.49,4.89-4.42,6.82
			c-1.93,1.93-4.3,3.46-7.1,4.58c-2.8,1.12-6,1.67-9.6,1.67c-4.67,0-8.68-0.82-12.05-2.47c-3.37-1.65-6.32-3.91-8.85-6.78l1.4-2.2
			c0.4-0.5,0.87-0.75,1.4-0.75c0.3,0,0.68,0.2,1.15,0.6c0.47,0.4,1.03,0.89,1.7,1.47c0.67,0.58,1.47,1.22,2.4,1.9
			c0.93,0.68,2.02,1.32,3.25,1.9c1.23,0.58,2.65,1.07,4.26,1.48c1.6,0.4,3.42,0.6,5.46,0.6c2.8,0,5.31-0.42,7.51-1.27
			c2.2-0.85,4.06-2.01,5.58-3.48c1.52-1.47,2.68-3.21,3.48-5.22c0.8-2.02,1.2-4.18,1.2-6.48c0-2.5-0.51-4.56-1.53-6.18
			c-1.02-1.62-2.36-2.97-4.03-4.05c-1.67-1.08-3.56-1.99-5.68-2.73c-2.12-0.73-4.3-1.45-6.53-2.15c-2.24-0.7-4.41-1.48-6.53-2.35
			c-2.12-0.87-4.01-1.98-5.68-3.32c-1.67-1.35-3.01-3.03-4.03-5.05c-1.02-2.02-1.53-4.54-1.53-7.57c0-2.37,0.45-4.65,1.35-6.85
			c0.9-2.2,2.22-4.14,3.96-5.83c1.74-1.68,3.88-3.03,6.43-4.05c2.55-1.02,5.47-1.52,8.74-1.52c3.67,0,6.97,0.58,9.89,1.75
			c2.92,1.17,5.58,2.95,7.98,5.35L-1709.4,1027.35z"/>
		<path class="st3" d="M-1638.15,1089.5h-3.95c-0.47,0-0.85-0.13-1.15-0.38c-0.3-0.25-0.53-0.58-0.7-0.98l-8.35-20.55h-34.75
			l-8.3,20.55c-0.13,0.37-0.37,0.68-0.7,0.95c-0.33,0.27-0.73,0.4-1.2,0.4h-3.9l28.95-70.75h5.1L-1638.15,1089.5z M-1685.5,1063.8
			h31.7l-14.45-35.75c-0.23-0.57-0.47-1.21-0.7-1.92c-0.23-0.72-0.47-1.48-0.7-2.27c-0.23,0.8-0.47,1.56-0.7,2.27
			c-0.23,0.72-0.47,1.38-0.7,1.98L-1685.5,1063.8z"/>
		<path class="st3" d="M-1620.35,1057.5v32h-5.1v-70.75h18.05c8.17,0,14.27,1.58,18.3,4.73s6.05,7.77,6.05,13.88
			c0,2.7-0.47,5.17-1.4,7.4c-0.93,2.23-2.28,4.19-4.03,5.88c-1.75,1.68-3.86,3.07-6.32,4.15c-2.47,1.08-5.25,1.79-8.35,2.13
			c0.8,0.5,1.52,1.17,2.15,2l24.35,30.6h-4.45c-0.53,0-0.99-0.1-1.38-0.3c-0.38-0.2-0.76-0.53-1.13-1l-22.65-28.7
			c-0.57-0.73-1.17-1.25-1.82-1.55c-0.65-0.3-1.66-0.45-3.03-0.45H-1620.35z M-1620.35,1053.7h12.3c3.13,0,5.94-0.38,8.42-1.13
			s4.58-1.83,6.3-3.23s3.03-3.08,3.92-5.05c0.9-1.97,1.35-4.18,1.35-6.65c0-5.03-1.65-8.77-4.95-11.2c-3.3-2.43-8.1-3.65-14.4-3.65
			h-12.95V1053.7z"/>
		<path class="st3" d="M-1541.8,1060.3v29.2h-5.15v-29.2l-26.15-41.55h4.45c0.47,0,0.84,0.11,1.13,0.33s0.56,0.52,0.83,0.92
			l20.25,32.5c0.46,0.77,0.87,1.51,1.2,2.23c0.33,0.72,0.63,1.44,0.9,2.17c0.27-0.73,0.57-1.46,0.9-2.17
			c0.33-0.72,0.73-1.46,1.2-2.23l20.2-32.5c0.2-0.37,0.45-0.67,0.75-0.9c0.3-0.23,0.68-0.35,1.15-0.35h4.5L-1541.8,1060.3z"/>
	</g>
	<g class="st2">
		<path class="st3" d="M129.45,1019.93c0.27,0.12,0.55,0.38,0.85,0.78l45.8,61.3c-0.1-1-0.15-1.97-0.15-2.9v-59.35h4.5v70.75H178
			c-0.77,0-1.38-0.33-1.85-1l-46-61.4c0.1,1,0.15,1.95,0.15,2.85v59.55h-4.45v-70.75h2.5
			C128.81,1019.75,129.18,1019.81,129.45,1019.93z"/>
		<path class="st3" d="M243.85,1019.75v4.25H206.6v28.6h31v4.15h-31v29.5h37.25v4.25h-42.4v-70.75H243.85z"/>
		<path class="st3" d="M250.9,1019.75h4.25c0.97,0,1.58,0.45,1.85,1.35l17.85,58.15c0.2,0.67,0.38,1.38,0.53,2.15
			c0.15,0.77,0.31,1.57,0.47,2.4c0.17-0.83,0.33-1.63,0.5-2.4c0.17-0.77,0.37-1.48,0.6-2.15l20-58.15c0.13-0.37,0.37-0.68,0.7-0.95
			c0.33-0.27,0.73-0.4,1.2-0.4h1.4c0.47,0,0.85,0.13,1.15,0.38c0.3,0.25,0.53,0.58,0.7,0.98l20,58.15c0.23,0.67,0.44,1.37,0.63,2.1
			c0.18,0.73,0.36,1.52,0.53,2.35c0.17-0.8,0.32-1.58,0.45-2.33c0.13-0.75,0.3-1.46,0.5-2.13l17.85-58.15
			c0.1-0.37,0.33-0.68,0.67-0.95c0.35-0.27,0.76-0.4,1.22-0.4h3.9l-22.25,70.75H321l-20.9-61.4c-0.27-0.8-0.5-1.65-0.7-2.55
			c-0.2,0.9-0.43,1.75-0.7,2.55l-20.95,61.4h-4.55L250.9,1019.75z"/>
		<path class="st3" d="M393.5,1028.35c-0.3,0.57-0.73,0.85-1.3,0.85c-0.44,0-1-0.31-1.68-0.93c-0.69-0.62-1.62-1.3-2.79-2.05
			c-1.17-0.75-2.63-1.44-4.39-2.08c-1.76-0.63-3.92-0.95-6.5-0.95c-2.57,0-4.84,0.37-6.8,1.1c-1.96,0.73-3.59,1.73-4.92,3
			c-1.32,1.27-2.32,2.73-3.01,4.4c-0.69,1.67-1.03,3.42-1.03,5.25c0,2.4,0.51,4.38,1.53,5.95c1.02,1.57,2.36,2.9,4.03,4
			c1.67,1.1,3.56,2.02,5.68,2.77c2.12,0.75,4.3,1.49,6.54,2.23c2.24,0.73,4.41,1.54,6.53,2.43c2.12,0.88,4.01,1.99,5.68,3.32
			c1.67,1.33,3.01,2.98,4.03,4.93c1.02,1.95,1.53,4.38,1.53,7.27c0,2.97-0.51,5.76-1.52,8.38c-1.02,2.62-2.49,4.89-4.43,6.82
			c-1.93,1.93-4.3,3.46-7.1,4.58c-2.8,1.12-6,1.67-9.6,1.67c-4.67,0-8.68-0.82-12.05-2.47c-3.37-1.65-6.32-3.91-8.85-6.78l1.4-2.2
			c0.4-0.5,0.87-0.75,1.4-0.75c0.3,0,0.68,0.2,1.15,0.6c0.47,0.4,1.04,0.89,1.7,1.47c0.67,0.58,1.47,1.22,2.4,1.9
			c0.93,0.68,2.02,1.32,3.25,1.9c1.23,0.58,2.65,1.07,4.25,1.48c1.6,0.4,3.42,0.6,5.46,0.6c2.8,0,5.31-0.42,7.51-1.27
			c2.2-0.85,4.06-2.01,5.58-3.48c1.52-1.47,2.68-3.21,3.48-5.22c0.8-2.02,1.2-4.18,1.2-6.48c0-2.5-0.51-4.56-1.53-6.18
			c-1.02-1.62-2.36-2.97-4.03-4.05c-1.67-1.08-3.56-1.99-5.68-2.73c-2.12-0.73-4.3-1.45-6.53-2.15c-2.24-0.7-4.42-1.48-6.54-2.35
			c-2.12-0.87-4.01-1.98-5.68-3.32c-1.67-1.35-3.01-3.03-4.03-5.05c-1.02-2.02-1.53-4.54-1.53-7.57c0-2.37,0.45-4.65,1.35-6.85
			c0.9-2.2,2.22-4.14,3.95-5.83c1.74-1.68,3.88-3.03,6.43-4.05c2.55-1.02,5.47-1.52,8.74-1.52c3.67,0,6.97,0.58,9.89,1.75
			c2.92,1.17,5.58,2.95,7.98,5.35L393.5,1028.35z"/>
		<path class="st3" d="M416.59,1086.15h33.55v4.35h-38.65v-70.75h5.1V1086.15z"/>
		<path class="st3" d="M505.04,1019.75v4.25h-37.25v28.6h31v4.15h-31v29.5h37.25v4.25h-42.4v-70.75H505.04z"/>
		<path class="st3" d="M567.94,1019.75v4.35h-24.85v66.4h-5.1v-66.4h-25v-4.35H567.94z"/>
		<path class="st3" d="M626.39,1019.75v4.35h-24.85v66.4h-5.1v-66.4h-25v-4.35H626.39z"/>
		<path class="st3" d="M681.04,1019.75v4.25h-37.25v28.6h31v4.15h-31v29.5h37.25v4.25h-42.4v-70.75H681.04z"/>
		<path class="st3" d="M704.34,1058.5v32h-5.1v-70.75h18.05c8.17,0,14.27,1.58,18.3,4.73c4.03,3.15,6.05,7.77,6.05,13.88
			c0,2.7-0.47,5.17-1.4,7.4c-0.93,2.23-2.27,4.19-4.02,5.88c-1.75,1.68-3.86,3.07-6.33,4.15c-2.47,1.08-5.25,1.79-8.35,2.13
			c0.8,0.5,1.52,1.17,2.15,2l24.35,30.6h-4.45c-0.53,0-0.99-0.1-1.38-0.3c-0.38-0.2-0.76-0.53-1.13-1l-22.65-28.7
			c-0.57-0.73-1.18-1.25-1.83-1.55c-0.65-0.3-1.66-0.45-3.02-0.45H704.34z M704.34,1054.7h12.3c3.13,0,5.94-0.38,8.43-1.13
			c2.48-0.75,4.58-1.83,6.3-3.23s3.03-3.08,3.93-5.05c0.9-1.97,1.35-4.18,1.35-6.65c0-5.03-1.65-8.77-4.95-11.2
			c-3.3-2.43-8.1-3.65-14.4-3.65h-12.95V1054.7z"/>
	</g>
	<g class="st2">
		<path class="st3" d="M-793.32,1062v28.5h-5.1v-70.75h18.25c8.3,0,14.56,1.82,18.78,5.45c4.22,3.63,6.32,8.82,6.32,15.55
			c0,3.1-0.57,5.95-1.72,8.55c-1.15,2.6-2.81,4.84-4.97,6.73c-2.17,1.88-4.8,3.35-7.9,4.4c-3.1,1.05-6.6,1.58-10.5,1.58H-793.32z
			 M-793.32,1057.9h13.15c3.13,0,5.93-0.43,8.4-1.3c2.47-0.87,4.56-2.07,6.28-3.6c1.72-1.53,3.03-3.34,3.95-5.42
			c0.92-2.08,1.38-4.36,1.38-6.83c0-5.43-1.67-9.62-5.03-12.55c-3.35-2.93-8.34-4.4-14.97-4.4h-13.15V1057.9z"/>
		<path class="st3" d="M-733.97,1058.5v32h-5.1v-70.75h18.05c8.17,0,14.27,1.58,18.3,4.73s6.05,7.77,6.05,13.88
			c0,2.7-0.47,5.17-1.4,7.4c-0.93,2.23-2.28,4.19-4.03,5.88c-1.75,1.68-3.86,3.07-6.32,4.15c-2.47,1.08-5.25,1.79-8.35,2.13
			c0.8,0.5,1.52,1.17,2.15,2l24.35,30.6h-4.45c-0.53,0-0.99-0.1-1.38-0.3c-0.38-0.2-0.76-0.53-1.13-1l-22.65-28.7
			c-0.57-0.73-1.17-1.25-1.82-1.55c-0.65-0.3-1.66-0.45-3.03-0.45H-733.97z M-733.97,1054.7h12.3c3.13,0,5.94-0.38,8.42-1.13
			c2.48-0.75,4.58-1.83,6.3-3.23s3.03-3.08,3.92-5.05c0.9-1.97,1.35-4.18,1.35-6.65c0-5.03-1.65-8.77-4.95-11.2
			c-3.3-2.43-8.1-3.65-14.4-3.65h-12.95V1054.7z"/>
		<path class="st3" d="M-635.07,1019.75v4.25h-37.25v28.6h31v4.15h-31v29.5h37.25v4.25h-42.4v-70.75H-635.07z"/>
		<path class="st3" d="M-584.12,1028.35c-0.3,0.57-0.73,0.85-1.3,0.85c-0.44,0-0.99-0.31-1.68-0.93c-0.69-0.62-1.62-1.3-2.79-2.05
			c-1.17-0.75-2.63-1.44-4.39-2.08c-1.76-0.63-3.92-0.95-6.5-0.95c-2.57,0-4.84,0.37-6.8,1.1c-1.96,0.73-3.59,1.73-4.92,3
			c-1.32,1.27-2.32,2.73-3.01,4.4c-0.69,1.67-1.03,3.42-1.03,5.25c0,2.4,0.51,4.38,1.53,5.95c1.02,1.57,2.36,2.9,4.03,4
			c1.67,1.1,3.56,2.02,5.68,2.77c2.12,0.75,4.3,1.49,6.54,2.23c2.24,0.73,4.41,1.54,6.53,2.43c2.12,0.88,4.01,1.99,5.68,3.32
			c1.67,1.33,3.01,2.98,4.03,4.93c1.02,1.95,1.53,4.38,1.53,7.27c0,2.97-0.51,5.76-1.53,8.38c-1.02,2.62-2.49,4.89-4.43,6.82
			c-1.93,1.93-4.3,3.46-7.1,4.58c-2.8,1.12-6,1.67-9.6,1.67c-4.67,0-8.68-0.82-12.05-2.47c-3.37-1.65-6.32-3.91-8.85-6.78l1.4-2.2
			c0.4-0.5,0.87-0.75,1.4-0.75c0.3,0,0.68,0.2,1.15,0.6c0.47,0.4,1.04,0.89,1.7,1.47c0.67,0.58,1.47,1.22,2.4,1.9
			c0.94,0.68,2.02,1.32,3.26,1.9c1.23,0.58,2.65,1.07,4.25,1.48c1.6,0.4,3.42,0.6,5.46,0.6c2.8,0,5.31-0.42,7.51-1.27
			c2.2-0.85,4.06-2.01,5.58-3.48c1.52-1.47,2.68-3.21,3.48-5.22c0.8-2.02,1.2-4.18,1.2-6.48c0-2.5-0.51-4.56-1.53-6.18
			c-1.02-1.62-2.36-2.97-4.03-4.05c-1.67-1.08-3.56-1.99-5.68-2.73c-2.12-0.73-4.3-1.45-6.53-2.15c-2.24-0.7-4.42-1.48-6.54-2.35
			c-2.12-0.87-4.01-1.98-5.68-3.32c-1.67-1.35-3.01-3.03-4.03-5.05c-1.02-2.02-1.53-4.54-1.53-7.57c0-2.37,0.45-4.65,1.35-6.85
			c0.9-2.2,2.22-4.14,3.96-5.83c1.74-1.68,3.88-3.03,6.44-4.05c2.55-1.02,5.46-1.52,8.74-1.52c3.67,0,6.97,0.58,9.89,1.75
			c2.92,1.17,5.58,2.95,7.98,5.35L-584.12,1028.35z"/>
		<path class="st3" d="M-531.87,1028.35c-0.3,0.57-0.73,0.85-1.3,0.85c-0.44,0-1-0.31-1.68-0.93c-0.69-0.62-1.61-1.3-2.78-2.05
			c-1.17-0.75-2.63-1.44-4.39-2.08c-1.75-0.63-3.92-0.95-6.49-0.95c-2.58,0-4.84,0.37-6.8,1.1c-1.96,0.73-3.6,1.73-4.92,3
			c-1.32,1.27-2.32,2.73-3.01,4.4c-0.69,1.67-1.03,3.42-1.03,5.25c0,2.4,0.51,4.38,1.53,5.95c1.02,1.57,2.36,2.9,4.03,4
			c1.67,1.1,3.56,2.02,5.68,2.77c2.12,0.75,4.3,1.49,6.53,2.23c2.24,0.73,4.41,1.54,6.53,2.43c2.12,0.88,4.02,1.99,5.68,3.32
			c1.67,1.33,3.01,2.98,4.03,4.93c1.02,1.95,1.53,4.38,1.53,7.27c0,2.97-0.51,5.76-1.53,8.38c-1.02,2.62-2.49,4.89-4.42,6.82
			c-1.93,1.93-4.3,3.46-7.1,4.58c-2.8,1.12-6,1.67-9.6,1.67c-4.67,0-8.68-0.82-12.05-2.47c-3.37-1.65-6.32-3.91-8.85-6.78l1.4-2.2
			c0.4-0.5,0.87-0.75,1.4-0.75c0.3,0,0.68,0.2,1.15,0.6c0.47,0.4,1.03,0.89,1.7,1.47c0.67,0.58,1.47,1.22,2.4,1.9
			c0.93,0.68,2.02,1.32,3.25,1.9c1.23,0.58,2.65,1.07,4.26,1.48c1.6,0.4,3.42,0.6,5.46,0.6c2.8,0,5.31-0.42,7.51-1.27
			c2.2-0.85,4.06-2.01,5.58-3.48c1.52-1.47,2.68-3.21,3.48-5.22c0.8-2.02,1.2-4.18,1.2-6.48c0-2.5-0.51-4.56-1.53-6.18
			c-1.02-1.62-2.36-2.97-4.03-4.05c-1.67-1.08-3.56-1.99-5.68-2.73c-2.12-0.73-4.3-1.45-6.53-2.15c-2.24-0.7-4.41-1.48-6.53-2.35
			c-2.12-0.87-4.02-1.98-5.68-3.32c-1.67-1.35-3.01-3.03-4.03-5.05c-1.02-2.02-1.53-4.54-1.53-7.57c0-2.37,0.45-4.65,1.35-6.85
			c0.9-2.2,2.22-4.14,3.96-5.83c1.73-1.68,3.88-3.03,6.43-4.05c2.55-1.02,5.46-1.52,8.74-1.52c3.67,0,6.97,0.58,9.89,1.75
			c2.92,1.17,5.58,2.95,7.98,5.35L-531.87,1028.35z"/>
	</g>
</g>
<g id="Metaphor_illustration">
	<g class="st0">
		<linearGradient id="SVGID_1_" gradientUnits="userSpaceOnUse" x1="-1247.7224" y1="903.6504" x2="-1879.464" y2="336.9404">
			<stop  offset="0" style="stop-color:#DAE3FE"/>
			<stop  offset="1" style="stop-color:#E9EFFD"/>
		</linearGradient>
		<path class="st4" d="M-1458.24,707.49c-21.26,21.92-40.29,34.8-54.86,44.53c-142.07,94.86-304.47,67.52-354.68,58.17
			c-81.01-15.08-149.39-25.71-208.14-78.79c-133.5-120.61-127.01-372.22-25-528.09c12.1-18.48,113.95-169.47,276.7-190.74
			c3.98-0.52,6.95-0.82,9.55-1.09c25.18-2.67,181.2-16.73,308.41,89.85c18.21,15.26,47.52,42.78,74.69,84.75
			C-1332.18,339.54-1331.87,577.23-1458.24,707.49z"/>
		<g class="st2">
			<path class="st5" d="M-1834.96,423.16c-16.44-50.69-47.86-91.02-84.94-114.66c-33.14-21.13-57.13-54.14-66.18-92.35
				c-0.95-4.02-2.08-8.04-3.38-12.07c-19.77-60.97-73.15-98.28-119.23-83.34c-46.08,14.94-67.41,76.48-47.65,137.44
				c4.04,12.47,9.49,23.94,15.99,34.18c20.76,32.68,29.05,71.94,21.73,109.97c-6.54,33.99-4.46,72.22,7.86,110.23
				c18.38,56.68,55.5,100.41,98.3,122.33c16.19,8.29,30.81,19.47,42.95,32.99c20.17,22.48,48.45,32.97,74.32,24.58
				c27.91-9.05,45.2-37.54,46.24-70.7c0.59-18.77,4.87-37.18,11.92-54.59C-1820.35,526.08-1818.34,474.42-1834.96,423.16z"/>
			<path class="st6" d="M-2071.52,180.37c19.08,38.34,36.92,77.27,54.35,116.38c4.36,9.78,8.57,19.62,12.8,29.45l6.35,14.75
				l6.23,14.8c4.11,9.88,8.36,19.71,12.37,29.64l12.01,29.79c7.75,19.96,15.67,39.85,23.05,59.96c3.7,10.05,7.6,20.02,11.1,30.14
				l10.64,30.31c13.77,40.56,26.54,81.48,37.2,122.96l-1.78,0.48l-9.16-30.74l-2.27-7.69l-2.47-7.63l-4.96-15.25l-4.93-15.25
				c-1.63-5.09-3.46-10.11-5.18-15.17c-3.51-10.1-6.93-20.22-10.5-30.3c-14.54-40.21-29.62-80.22-45.52-119.92
				c-8.1-19.79-16.04-39.64-24.28-59.38l-6.14-14.82l-6.26-14.76c-4.17-9.85-8.34-19.69-12.61-29.5
				c-8.37-19.68-16.88-39.3-25.56-58.85c-8.57-19.6-17.33-39.12-26.14-58.6L-2071.52,180.37z"/>
			<g class="st7">
				<path class="st6" d="M-2113.87,301.61c-0.45-0.04-0.88-0.26-1.15-0.66c-33.19-47.47-32.76-85.89-26.57-109.77
					c6.73-25.94,21.16-40.38,21.77-40.99c0.61-0.6,1.59-0.6,2.2,0.01c0.6,0.61,0.6,1.6-0.01,2.2c-0.14,0.14-14.5,14.55-20.98,39.72
					c-5.98,23.21-6.31,60.62,26.15,107.04c0.49,0.7,0.32,1.67-0.38,2.17C-2113.17,301.55-2113.52,301.64-2113.87,301.61z"/>
			</g>
		</g>
		<g class="st2">
			<path class="st6" d="M-1958.44,540.36c-15.76-29.67-39.66-51.28-65.23-61.92c-22.85-9.51-41.35-27.38-51.15-50.11
				c-1.03-2.39-2.17-4.77-3.42-7.12c-18.95-35.69-56.12-53.03-83.03-38.75c-26.91,14.29-33.36,54.8-14.41,90.48
				c3.87,7.3,8.51,13.83,13.67,19.47c16.45,18.02,25.91,41.49,25.56,65.89c-0.31,21.81,5.18,45.31,16.99,67.55
				c17.62,33.18,45.42,56.28,74.35,65.22c10.94,3.38,21.23,8.73,30.23,15.8c14.97,11.76,33.64,15.19,48.75,7.17
				c16.3-8.65,23.88-28.21,20.88-48.91c-1.7-11.71-1.07-23.6,1.39-35.18C-1938.08,602.64-1942.51,570.36-1958.44,540.36z"/>
			<linearGradient id="SVGID_2_" gradientUnits="userSpaceOnUse" x1="-2132.6384" y1="553.9263" x2="-1963.8328" y2="553.9263">
				<stop  offset="0" style="stop-color:#DAE3FE"/>
				<stop  offset="1" style="stop-color:#E9EFFD"/>
			</linearGradient>
			<path class="st8" d="M-2131.7,415.43c16.04,21.72,31.37,43.93,46.47,66.31c3.78,5.59,7.46,11.24,11.17,16.88l5.56,8.46l5.49,8.51
				c3.63,5.69,7.35,11.32,10.92,17.05l10.71,17.18c7,11.54,14.09,23.03,20.87,34.7c3.4,5.83,6.91,11.6,10.19,17.5l9.92,17.65
				c12.99,23.67,25.4,47.68,36.57,72.26l-1.05,0.49l-9.06-18.08l-2.25-4.52l-2.37-4.47l-4.75-8.92l-4.73-8.93
				c-1.57-2.98-3.25-5.9-4.87-8.85c-3.28-5.89-6.52-11.8-9.84-17.66c-13.43-23.37-27.17-46.56-41.39-69.47
				c-7.2-11.4-14.29-22.86-21.57-34.21l-5.43-8.53l-5.5-8.48c-3.67-5.66-7.33-11.31-11.06-16.93c-7.35-11.3-14.78-22.55-22.3-33.74
				c-7.46-11.23-15.04-22.39-22.64-33.52L-2131.7,415.43z"/>
			<g class="st7">
				<linearGradient id="SVGID_3_" gradientUnits="userSpaceOnUse" x1="-2171.8809" y1="444.1818" x2="-2136.0967" y2="444.1818">
					<stop  offset="0" style="stop-color:#DAE3FE"/>
					<stop  offset="1" style="stop-color:#E9EFFD"/>
				</linearGradient>
				<path class="st9" d="M-2136.99,493.53c-0.3,0.04-0.61-0.04-0.86-0.26c-28.92-26.05-34.46-51.27-34.02-67.84
					c0.48-18,7.74-29.64,8.04-30.13c0.31-0.49,0.95-0.63,1.44-0.32c0.49,0.31,0.63,0.95,0.32,1.44c-0.07,0.11-7.29,11.72-7.72,29.18
					c-0.4,16.1,5.05,40.64,33.33,66.12c0.43,0.39,0.46,1.05,0.08,1.48C-2136.53,493.39-2136.75,493.5-2136.99,493.53z"/>
			</g>
		</g>
		<g class="st2">
			<path class="st5" d="M-1970.68,728.9c0,0-10.01-69.39,68.06-74.73c78.07-5.34,459.07,8.01,459.07,8.01s-16.01,77.4,0,110.76
				c-73.4-0.67-497.77,0-497.77,0S-1973.17,757.65-1970.68,728.9z"/>
			<linearGradient id="SVGID_4_" gradientUnits="userSpaceOnUse" x1="-1720.3694" y1="472.5233" x2="-1691.4033" y2="884.1453">
				<stop  offset="0" style="stop-color:#09005D"/>
				<stop  offset="1" style="stop-color:#1A0F91"/>
			</linearGradient>
			<path class="st10" d="M-1436.21,764.25c-62.6,0-471.39,0-480.42,0c-9.79,0-47.15,2.65-46.26-39.16
				c0.43-20.1,11.13-32.33,22.14-40.18c10.2-7.28,22.43-10.66,34.96-10.66c64.11,0,392.64,0,437.57,0
				c49.82,0,35.14-42.75,35.14-42.75l-0.44,0.1l-467.97-0.62c0,0-69.39,41.08-76.79,82.98c-1.75,9.9-1.46,19.07-0.01,26.88
				c4.24,22.7,24.09,39.41,47.19,39.41h494.91c4.42,0,8.01-3.58,8.01-8C-1428.2,767.82-1431.79,764.25-1436.21,764.25z"/>
			<linearGradient id="SVGID_5_" gradientUnits="userSpaceOnUse" x1="-1732.5526" y1="-465.6892" x2="-1631.1025" y2="975.967">
				<stop  offset="0" style="stop-color:#09005D"/>
				<stop  offset="1" style="stop-color:#1A0F91"/>
			</linearGradient>
			<path class="st11" d="M-1464.47,57.25h-447.45v606h447.45c17.08,0,29.55-14.92,29.55-32v-544
				C-1434.92,70.16-1447.39,57.25-1464.47,57.25z"/>
			<linearGradient id="SVGID_6_" gradientUnits="userSpaceOnUse" x1="-1978.3024" y1="385.088" x2="-1911.2942" y2="385.088">
				<stop  offset="0" style="stop-color:#09005D"/>
				<stop  offset="1" style="stop-color:#1A0F91"/>
			</linearGradient>
			<path class="st12" d="M-1911.29,56.31c0,0-72.06,14.36-66.73,69.9c5.34,55.54-0.28,587.65-0.28,587.65s21.63-51.69,67.01-51.69
				C-1911.29,547.41-1911.29,56.31-1911.29,56.31z"/>
			<path class="st6" d="M-1490.92,684.25c0,0.55-0.45,1-1,1h-349c-0.55,0-1-0.45-1-1v-1c0-0.55,0.45-1,1-1h349c0.55,0,1,0.45,1,1
				V684.25z"/>
			<path class="st6" d="M-1483.92,718.59c0,0.55-0.73,1.66-1.37,1.66h-406.2c-0.64,0-3.43-1.11-3.43-1.66v-1.48
				c0-0.55,2.78,0.14,3.43,0.14h406.2c0.64,0,1.37-0.7,1.37-0.14V718.59z"/>
			<path class="st6" d="M-1475.92,749.25c0,1.1-0.9,2-2,2h-255c-1.1,0-2-0.9-2-2l0,0c0-1.1,0.9-2,2-2h255
				C-1476.81,747.25-1475.92,748.14-1475.92,749.25L-1475.92,749.25z"/>
			<g>
				<g>
					<path class="st5" d="M-1895.92,597.42c-0.87,0-1-0.71-1-1.58V372.75c0-0.87,0.13-1.58,1-1.58c0.87,0,1,0.71,1,1.58v223.09
						C-1894.92,596.71-1895.04,597.42-1895.92,597.42z"/>
				</g>
				<g>
					<path class="st5" d="M-1895.92,339.52c-0.87,0-1-0.71-1-1.58V230.35c0-0.87,0.13-1.58,1-1.58c0.87,0,1,0.71,1,1.58v107.59
						C-1894.92,338.81-1895.04,339.52-1895.92,339.52z"/>
				</g>
				<g>
					<path class="st5" d="M-1895.92,137c-0.87,0-1-0.71-1-1.58V75.3c0-0.87,0.13-1.58,1-1.58c0.87,0,1,0.71,1,1.58v60.12
						C-1894.92,136.29-1895.04,137-1895.92,137z"/>
				</g>
			</g>
			<g>
				<g>
					<linearGradient id="SVGID_7_" gradientUnits="userSpaceOnUse" x1="-1314.7899" y1="-283.9149" x2="-1808.7899" y2="494.0843">
						<stop  offset="0" style="stop-color:#FE7062"/>
						<stop  offset="1" style="stop-color:#FF928E"/>
					</linearGradient>
					<path class="st13" d="M-1678.99,377.57h-89.86l-9.85,34.04c-1.56,5.39-6.41,9.09-11.92,9.09h-53.58
						c-8.68,0-14.69-8.85-11.63-17.13l86.94-235.9c1.82-4.94,6.46-8.22,11.63-8.22h69.13c5.18,0,9.81,3.27,11.63,8.22l86.92,235.9
						c3.05,8.29-2.95,17.13-11.63,17.13h-55.72c-5.48,0-10.31-3.65-11.89-9L-1678.99,377.57z M-1695.41,321.08l-28.27-93.91
						l-27.98,93.91H-1695.41z"/>
				</g>
				<g>
					<linearGradient id="SVGID_8_" gradientUnits="userSpaceOnUse" x1="-1102.3711" y1="-149.0379" x2="-1596.3718" y2="628.9623">
						<stop  offset="0" style="stop-color:#FE7062"/>
						<stop  offset="1" style="stop-color:#FF928E"/>
					</linearGradient>
					<path class="st14" d="M-1470.02,281.92h97.1c6.04,0,10.94,5,10.94,11.16v12.09c0,2.88-1.09,5.65-3.05,7.73l-73.34,77.98h68.22
						c6.04,0,10.94,5,10.94,11.16v7.49c0,6.16-4.9,11.16-10.94,11.16h-107.22c-6.04,0-10.94-5-10.94-11.16v-13.13
						c0-2.88,1.09-5.65,3.05-7.73l72.54-77.13h-57.31c-6.04,0-10.94-5-10.94-11.16v-7.31
						C-1480.96,286.92-1476.06,281.92-1470.02,281.92z"/>
				</g>
				<linearGradient id="SVGID_9_" gradientUnits="userSpaceOnUse" x1="-1177.3538" y1="-196.652" x2="-1671.3549" y2="581.3488">
					<stop  offset="0" style="stop-color:#FE7062"/>
					<stop  offset="1" style="stop-color:#FF928E"/>
				</linearGradient>
				<ellipse class="st15" cx="-1563.62" cy="411.67" rx="8.85" ry="9.03"/>
				<linearGradient id="SVGID_10_" gradientUnits="userSpaceOnUse" x1="-1158.4341" y1="-184.6366" x2="-1652.4349" y2="593.364">
					<stop  offset="0" style="stop-color:#FE7062"/>
					<stop  offset="1" style="stop-color:#FF928E"/>
				</linearGradient>
				<ellipse class="st16" cx="-1537.07" cy="411.67" rx="8.85" ry="9.03"/>
				<linearGradient id="SVGID_11_" gradientUnits="userSpaceOnUse" x1="-1139.5138" y1="-172.6219" x2="-1633.5143" y2="605.3781">
					<stop  offset="0" style="stop-color:#FE7062"/>
					<stop  offset="1" style="stop-color:#FF928E"/>
				</linearGradient>
				<ellipse class="st17" cx="-1510.52" cy="411.67" rx="8.85" ry="9.03"/>
			</g>
			<g>
				<linearGradient id="SVGID_12_" gradientUnits="userSpaceOnUse" x1="-1331.8214" y1="-294.7314" x2="-1825.8219" y2="483.2685">
					<stop  offset="0" style="stop-color:#FE7062"/>
					<stop  offset="1" style="stop-color:#FF928E"/>
				</linearGradient>
				<path class="st18" d="M-1840.19,524.59c2.12,0,3.98-0.2,5.55-0.59c1.58-0.39,3.08-0.93,4.5-1.63v-9.39h-6.34
					c-0.61,0-1.09-0.17-1.44-0.52c-0.35-0.35-0.53-0.77-0.53-1.27v-5.43h16.85v20.9c-1.28,0.95-2.62,1.78-4.01,2.48
					c-1.39,0.7-2.87,1.28-4.45,1.73c-1.58,0.45-3.26,0.79-5.06,1.02c-1.8,0.23-3.74,0.34-5.81,0.34c-3.69,0-7.09-0.65-10.19-1.96
					c-3.11-1.31-5.79-3.13-8.06-5.47c-2.27-2.33-4.03-5.12-5.31-8.36c-1.27-3.24-1.91-6.77-1.91-10.61c0-3.88,0.62-7.44,1.86-10.68
					c1.24-3.24,2.99-6.02,5.27-8.36c2.28-2.33,5.04-4.14,8.28-5.43c3.25-1.29,6.89-1.93,10.93-1.93c4.13,0,7.71,0.62,10.73,1.87
					c3.02,1.25,5.59,2.88,7.69,4.88l-2.73,4.36c-0.54,0.88-1.25,1.32-2.14,1.32c-0.56,0-1.13-0.19-1.72-0.57
					c-0.75-0.45-1.51-0.9-2.29-1.36c-0.78-0.45-1.65-0.85-2.59-1.18c-0.95-0.33-2.01-0.61-3.19-0.82c-1.18-0.21-2.54-0.32-4.08-0.32
					c-2.5,0-4.76,0.43-6.78,1.29c-2.02,0.86-3.74,2.08-5.17,3.68s-2.52,3.51-3.29,5.75c-0.77,2.24-1.16,4.74-1.16,7.5
					c0,2.98,0.41,5.63,1.23,7.95c0.82,2.32,1.96,4.28,3.43,5.88c1.47,1.6,3.22,2.82,5.25,3.66
					C-1844.81,524.17-1842.6,524.59-1840.19,524.59z"/>
				<linearGradient id="SVGID_13_" gradientUnits="userSpaceOnUse" x1="-1301.7456" y1="-275.6337" x2="-1795.7455" y2="502.3654">
					<stop  offset="0" style="stop-color:#FE7062"/>
					<stop  offset="1" style="stop-color:#FF928E"/>
				</linearGradient>
				<path class="st19" d="M-1803.38,523.74h20.28v7.93h-29.7v-51.65h9.42V523.74z"/>
				<linearGradient id="SVGID_14_" gradientUnits="userSpaceOnUse" x1="-1272.1897" y1="-256.8672" x2="-1766.1912" y2="521.1343">
					<stop  offset="0" style="stop-color:#FE7062"/>
					<stop  offset="1" style="stop-color:#FF928E"/>
				</linearGradient>
				<path class="st20" d="M-1730.81,505.84c0,3.79-0.62,7.29-1.86,10.52c-1.24,3.23-2.98,6.02-5.22,8.38
					c-2.24,2.36-4.94,4.2-8.09,5.52c-3.15,1.32-6.64,1.98-10.47,1.98c-3.83,0-7.33-0.66-10.49-1.98c-3.16-1.32-5.87-3.16-8.13-5.52
					c-2.25-2.36-4-5.15-5.24-8.38c-1.24-3.23-1.86-6.73-1.86-10.52s0.62-7.29,1.86-10.52c1.24-3.23,2.98-6.02,5.24-8.38
					c2.25-2.36,4.96-4.2,8.13-5.52c3.16-1.32,6.66-1.98,10.49-1.98c3.83,0,7.32,0.67,10.47,2c3.15,1.33,5.85,3.17,8.09,5.52
					c2.24,2.35,3.98,5.13,5.22,8.36C-1731.43,498.55-1730.81,502.05-1730.81,505.84z M-1740.48,505.84c0-2.83-0.37-5.38-1.1-7.63
					c-0.74-2.25-1.79-4.16-3.17-5.73c-1.38-1.57-3.05-2.77-5.03-3.61c-1.97-0.83-4.2-1.25-6.67-1.25c-2.47,0-4.7,0.42-6.69,1.25
					c-1.99,0.83-3.67,2.04-5.06,3.61c-1.39,1.57-2.46,3.48-3.2,5.73c-0.75,2.25-1.12,4.79-1.12,7.63c0,2.83,0.37,5.38,1.12,7.63
					c0.75,2.25,1.82,4.16,3.2,5.72c1.39,1.56,3.08,2.76,5.06,3.59c1.98,0.83,4.21,1.25,6.69,1.25c2.47,0,4.7-0.42,6.67-1.25
					c1.97-0.83,3.65-2.03,5.03-3.59c1.38-1.56,2.43-3.47,3.17-5.72C-1740.84,511.22-1740.48,508.67-1740.48,505.84z"/>
				<linearGradient id="SVGID_15_" gradientUnits="userSpaceOnUse" x1="-1238.6129" y1="-235.5485" x2="-1732.6122" y2="542.4495">
					<stop  offset="0" style="stop-color:#FE7062"/>
					<stop  offset="1" style="stop-color:#FF928E"/>
				</linearGradient>
				<path class="st21" d="M-1696.24,489.41c-0.26,0.52-0.55,0.89-0.89,1.11c-0.34,0.21-0.74,0.32-1.21,0.32
					c-0.47,0-0.99-0.18-1.58-0.55c-0.58-0.37-1.27-0.78-2.07-1.23c-0.79-0.45-1.72-0.86-2.78-1.23c-1.06-0.37-2.32-0.55-3.76-0.55
					c-1.31,0-2.45,0.16-3.41,0.48c-0.97,0.32-1.79,0.77-2.45,1.34c-0.67,0.57-1.16,1.26-1.49,2.05c-0.33,0.8-0.49,1.67-0.49,2.63
					c0,1.21,0.33,2.23,1,3.04c0.67,0.81,1.55,1.5,2.64,2.07c1.1,0.57,2.35,1.08,3.75,1.54c1.4,0.45,2.83,0.94,4.29,1.45
					c1.46,0.51,2.89,1.11,4.29,1.79c1.4,0.68,2.65,1.54,3.75,2.57c1.1,1.04,1.98,2.3,2.64,3.8c0.67,1.5,1,3.32,1,5.47
					c0,2.33-0.39,4.52-1.17,6.55c-0.78,2.04-1.93,3.81-3.43,5.32c-1.51,1.51-3.34,2.7-5.52,3.57c-2.17,0.87-4.66,1.3-7.46,1.3
					c-1.61,0-3.2-0.16-4.76-0.48c-1.56-0.32-3.06-0.78-4.5-1.38c-1.44-0.6-2.78-1.31-4.03-2.14c-1.25-0.83-2.36-1.76-3.34-2.79
					l2.73-4.61c0.26-0.33,0.57-0.61,0.93-0.84c0.36-0.23,0.76-0.34,1.21-0.34c0.58,0,1.21,0.24,1.89,0.73
					c0.68,0.49,1.48,1.03,2.4,1.63c0.92,0.6,2.01,1.14,3.26,1.63c1.25,0.49,2.75,0.73,4.5,0.73c2.69,0,4.76-0.65,6.23-1.95
					c1.47-1.3,2.21-3.16,2.21-5.59c0-1.36-0.33-2.47-1-3.32c-0.67-0.86-1.55-1.58-2.64-2.16c-1.1-0.58-2.35-1.08-3.75-1.48
					c-1.4-0.4-2.83-0.84-4.27-1.32c-1.45-0.48-2.87-1.05-4.27-1.71c-1.4-0.67-2.65-1.54-3.75-2.61c-1.1-1.07-1.98-2.41-2.64-4.02
					c-0.67-1.61-1-3.59-1-5.95c0-1.88,0.37-3.71,1.1-5.5c0.74-1.79,1.81-3.37,3.22-4.75c1.41-1.38,3.15-2.49,5.2-3.32
					c2.05-0.83,4.4-1.25,7.04-1.25c2.99,0,5.74,0.48,8.27,1.43c2.52,0.95,4.67,2.29,6.44,4L-1696.24,489.41z"/>
				<linearGradient id="SVGID_16_" gradientUnits="userSpaceOnUse" x1="-1211.8309" y1="-218.5414" x2="-1705.8302" y2="559.4567">
					<stop  offset="0" style="stop-color:#FE7062"/>
					<stop  offset="1" style="stop-color:#FF928E"/>
				</linearGradient>
				<path class="st22" d="M-1658.66,489.41c-0.26,0.52-0.55,0.89-0.89,1.11c-0.34,0.21-0.74,0.32-1.21,0.32
					c-0.47,0-0.99-0.18-1.58-0.55c-0.58-0.37-1.27-0.78-2.07-1.23c-0.79-0.45-1.72-0.86-2.78-1.23c-1.06-0.37-2.32-0.55-3.76-0.55
					c-1.31,0-2.45,0.16-3.42,0.48c-0.97,0.32-1.79,0.77-2.45,1.34c-0.67,0.57-1.16,1.26-1.49,2.05c-0.33,0.8-0.49,1.67-0.49,2.63
					c0,1.21,0.33,2.23,1,3.04c0.67,0.81,1.55,1.5,2.64,2.07c1.1,0.57,2.35,1.08,3.75,1.54c1.4,0.45,2.83,0.94,4.29,1.45
					c1.46,0.51,2.89,1.11,4.29,1.79c1.4,0.68,2.65,1.54,3.75,2.57c1.1,1.04,1.98,2.3,2.64,3.8c0.67,1.5,1,3.32,1,5.47
					c0,2.33-0.39,4.52-1.17,6.55c-0.78,2.04-1.93,3.81-3.43,5.32c-1.51,1.51-3.34,2.7-5.52,3.57c-2.17,0.87-4.66,1.3-7.46,1.3
					c-1.61,0-3.2-0.16-4.76-0.48c-1.56-0.32-3.06-0.78-4.5-1.38c-1.44-0.6-2.78-1.31-4.03-2.14c-1.25-0.83-2.36-1.76-3.34-2.79
					l2.73-4.61c0.26-0.33,0.57-0.61,0.93-0.84c0.36-0.23,0.76-0.34,1.21-0.34c0.58,0,1.21,0.24,1.89,0.73
					c0.68,0.49,1.48,1.03,2.4,1.63c0.92,0.6,2.01,1.14,3.26,1.63c1.25,0.49,2.75,0.73,4.5,0.73c2.68,0,4.76-0.65,6.23-1.95
					c1.47-1.3,2.21-3.16,2.21-5.59c0-1.36-0.33-2.47-1-3.32c-0.67-0.86-1.55-1.58-2.64-2.16c-1.1-0.58-2.35-1.08-3.75-1.48
					c-1.4-0.4-2.83-0.84-4.27-1.32c-1.45-0.48-2.87-1.05-4.27-1.71c-1.4-0.67-2.65-1.54-3.75-2.61c-1.1-1.07-1.98-2.41-2.64-4.02
					c-0.67-1.61-1-3.59-1-5.95c0-1.88,0.37-3.71,1.1-5.5c0.74-1.79,1.81-3.37,3.22-4.75c1.41-1.38,3.15-2.49,5.2-3.32
					c2.05-0.83,4.4-1.25,7.04-1.25c2.99,0,5.74,0.48,8.27,1.43c2.52,0.95,4.67,2.29,6.44,4L-1658.66,489.41z"/>
				<linearGradient id="SVGID_17_" gradientUnits="userSpaceOnUse" x1="-1173.8323" y1="-194.4153" x2="-1667.8312" y2="583.582">
					<stop  offset="0" style="stop-color:#FE7062"/>
					<stop  offset="1" style="stop-color:#FF928E"/>
				</linearGradient>
				<path class="st23" d="M-1603.7,531.67h-7.29c-0.82,0-1.49-0.21-2.01-0.63c-0.53-0.42-0.91-0.93-1.14-1.55l-3.78-10.54h-20.98
					l-3.78,10.54c-0.19,0.55-0.56,1.05-1.1,1.5c-0.55,0.45-1.22,0.68-2.01,0.68h-7.32l19.89-51.65h9.63L-1603.7,531.67z
					 M-1636.49,512.16h16.15l-6.16-17.18c-0.28-0.76-0.59-1.66-0.93-2.7c-0.34-1.04-0.67-2.16-1-3.38
					c-0.33,1.21-0.65,2.35-0.96,3.39c-0.32,1.05-0.62,1.96-0.93,2.75L-1636.49,512.16z"/>
				<linearGradient id="SVGID_18_" gradientUnits="userSpaceOnUse" x1="-1145.2784" y1="-176.2819" x2="-1639.278" y2="601.7164">
					<stop  offset="0" style="stop-color:#FE7062"/>
					<stop  offset="1" style="stop-color:#FF928E"/>
				</linearGradient>
				<path class="st24" d="M-1588.75,511.48v20.18h-9.42v-51.65h15.45c3.46,0,6.41,0.36,8.88,1.09c2.46,0.73,4.48,1.74,6.06,3.05
					c1.58,1.31,2.73,2.88,3.47,4.7c0.74,1.82,1.1,3.83,1.1,6.02c0,1.74-0.25,3.38-0.75,4.93c-0.5,1.55-1.23,2.95-2.17,4.21
					c-0.95,1.26-2.11,2.37-3.5,3.32c-1.39,0.95-2.97,1.71-4.75,2.29c1.19,0.69,2.22,1.68,3.08,2.96l12.68,19.07h-8.48
					c-0.82,0-1.51-0.17-2.08-0.5c-0.57-0.33-1.06-0.81-1.45-1.43l-10.65-16.54c-0.4-0.62-0.84-1.06-1.31-1.32
					c-0.48-0.26-1.19-0.39-2.12-0.39H-1588.75z M-1588.75,504.59h5.88c1.77,0,3.32-0.23,4.64-0.68c1.32-0.45,2.4-1.08,3.26-1.88
					c0.85-0.8,1.49-1.74,1.91-2.84c0.42-1.09,0.63-2.3,0.63-3.61c0-2.62-0.85-4.63-2.54-6.04c-1.69-1.4-4.28-2.11-7.76-2.11h-6.02
					V504.59z"/>
				<linearGradient id="SVGID_19_" gradientUnits="userSpaceOnUse" x1="-1120.7786" y1="-160.7273" x2="-1614.7783" y2="617.2714">
					<stop  offset="0" style="stop-color:#FE7062"/>
					<stop  offset="1" style="stop-color:#FF928E"/>
				</linearGradient>
				<path class="st25" d="M-1530.08,511.59v20.07h-9.42v-20.07l-18.46-31.58h8.3c0.82,0,1.46,0.2,1.94,0.61
					c0.48,0.41,0.88,0.92,1.21,1.54l9.28,17.25c0.54,1.02,1,1.99,1.4,2.91c0.4,0.92,0.76,1.82,1.09,2.7c0.3-0.9,0.65-1.82,1.03-2.73
					c0.39-0.92,0.85-1.88,1.38-2.88l9.21-17.25c0.26-0.52,0.64-1.01,1.16-1.46c0.51-0.45,1.17-0.68,1.96-0.68h8.34L-1530.08,511.59z
					"/>
			</g>
		</g>
		<g class="st2">
			<g>
				<linearGradient id="SVGID_20_" gradientUnits="userSpaceOnUse" x1="-1981.2729" y1="542.9988" x2="-1954.2731" y2="446.9987">
					<stop  offset="0" style="stop-color:#09005D"/>
					<stop  offset="1" style="stop-color:#1A0F91"/>
				</linearGradient>
				<path class="st26" d="M-1967.08,635.52c0.02-0.66,0.04-1.26,0.06-1.78c0.05-1.47-0.55-2.88-1.65-3.87
					c-6.43-5.77-30.5-25.57-64.52-31.73c-1.83-0.33-3.42,0.5-4.32,1.8c2.84,0.34,6.64,1.07,11.76,2.41
					C-2008.93,606.77-1984.48,618.53-1967.08,635.52z"/>
				<linearGradient id="SVGID_21_" gradientUnits="userSpaceOnUse" x1="-1915.3118" y1="496.6519" x2="-2059.312" y2="712.6521">
					<stop  offset="0" style="stop-color:#4F52FF"/>
					<stop  offset="1" style="stop-color:#4042E2"/>
				</linearGradient>
				<path class="st27" d="M-2025.75,602.36c-5.12-1.35-8.92-2.07-11.76-2.41c-0.9,1.32-1.09,3.12-0.11,4.72
					c0.55,0.9,1.23,1.87,2.06,2.92c5.32,6.67,48.35,50.81,48.35,50.81s13.66,1.67,17.84-0.75c1.35-0.78,2.03-14.96,2.28-22.12
					C-1984.48,618.53-2008.93,606.77-2025.75,602.36z"/>
			</g>
			<linearGradient id="SVGID_22_" gradientUnits="userSpaceOnUse" x1="-1985.6229" y1="630.9056" x2="-1967.0344" y2="758.0908">
				<stop  offset="0" style="stop-color:#FEBBBA"/>
				<stop  offset="1" style="stop-color:#FF928E"/>
			</linearGradient>
			<path class="st28" d="M-1968.72,681.38v-26.29c0-2.23-1.41-4.23-3.53-4.91c-3.26-1.05-8.28-2.03-12.84-0.32
				c-2.68,1-4.48,3.54-4.7,6.39l-1.96,24.56L-1968.72,681.38z"/>
			<g>
				<linearGradient id="SVGID_23_" gradientUnits="userSpaceOnUse" x1="-2109.752" y1="774.1656" x2="-2111.752" y2="624.1655">
					<stop  offset="0" style="stop-color:#4F52FF"/>
					<stop  offset="1" style="stop-color:#4042E2"/>
				</linearGradient>
				<path class="st29" d="M-2073,658.09c-0.31-1.04-0.92-1.9-1.7-2.55c-5.52,1.09-17.01,4.13-40.56,12.45
					c-27.3,9.64-35.29,18.06-37.6,22.56c11.7,3.43,38.28,8.66,76.42,1.21l7.53-3.53C-2068.9,688.23-2069.43,669.85-2073,658.09z"/>
				<linearGradient id="SVGID_24_" gradientUnits="userSpaceOnUse" x1="-2155.1096" y1="367.2842" x2="-2126.1099" y2="590.2848">
					<stop  offset="0" style="stop-color:#09005D"/>
					<stop  offset="1" style="stop-color:#1A0F91"/>
				</linearGradient>
				<path class="st30" d="M-2115.27,667.99c23.55-8.32,35.05-11.36,40.56-12.45c-1.21-1.01-2.85-1.48-4.5-1.13
					c-13.56,2.82-54.53,12.47-75.94,29.82c-2.14,1.73-1.51,5.15,1.12,5.96c0.37,0.11,0.76,0.23,1.17,0.35
					C-2150.56,686.05-2142.57,677.63-2115.27,667.99z"/>
			</g>
			<linearGradient id="SVGID_25_" gradientUnits="userSpaceOnUse" x1="-2079.2783" y1="644.5933" x2="-2060.6897" y2="771.7795">
				<stop  offset="0" style="stop-color:#FEBBBA"/>
				<stop  offset="1" style="stop-color:#FF928E"/>
			</linearGradient>
			<path class="st31" d="M-2054.79,704.11l-16.05-19.23c-1.56-1.87-4.1-2.61-6.42-1.85c-2.57,0.84-5.98,2.58-9.28,6.17
				c-1.54,1.67-1.84,4.16-0.8,6.18l11.67,22.62L-2054.79,704.11z"/>
			<linearGradient id="SVGID_26_" gradientUnits="userSpaceOnUse" x1="-1937.1429" y1="600.0051" x2="-1982.1429" y2="757.0049">
				<stop  offset="0" style="stop-color:#4F52FF"/>
				<stop  offset="1" style="stop-color:#4042E2"/>
			</linearGradient>
			<path class="st32" d="M-1995.27,672.22c0,0,19.58-3.76,30.45,0c0,0,14.32,85.95,11.86,113.58l-42.31,8.6
				C-1995.27,794.4-1996.48,697.57-1995.27,672.22z"/>
			<linearGradient id="SVGID_27_" gradientUnits="userSpaceOnUse" x1="-1963.8574" y1="720.2216" x2="-1858.1957" y2="926.6531">
				<stop  offset="0" style="stop-color:#4F52FF"/>
				<stop  offset="1" style="stop-color:#4042E2"/>
			</linearGradient>
			<path class="st33" d="M-1821.64,822.81c0,0-138.35,7.77-194.5,3.89c-5.5-0.38-10.38-3.63-12.84-8.57
				c-12.04-24.09-48.13-96.39-51.29-103.29c0,0,14.66-12.25,25.48-13.94c0,0,51.24,57.01,53.38,86.09c0,0,118.66-34.13,130.38-33.81
				c11.72,0.32,47.66,16.36,47.66,16.36L-1821.64,822.81z"/>
			<linearGradient id="SVGID_28_" gradientUnits="userSpaceOnUse" x1="-1576.0186" y1="755.4869" x2="-1631.5186" y2="682.9869">
				<stop  offset="0" style="stop-color:#FEBBBA"/>
				<stop  offset="1" style="stop-color:#FF928E"/>
			</linearGradient>
			<path class="st34" d="M-1637.22,714.97c0,0-5.08-10.55-0.67-16.12c4.4-5.57,20.27-22.81,20.27-22.81l1.85-11.91l6.52,19.4
				l-14,29.27C-1623.24,712.81-1631.44,721.67-1637.22,714.97z"/>
			<linearGradient id="SVGID_29_" gradientUnits="userSpaceOnUse" x1="-1599.6382" y1="773.5681" x2="-1655.1382" y2="701.0682">
				<stop  offset="0" style="stop-color:#FEBBBA"/>
				<stop  offset="1" style="stop-color:#FF928E"/>
			</linearGradient>
			<path class="st35" d="M-1601.67,764.07c-5.13-18.01-12.18-35.16-21.58-51.26l-13.97,2.16l6.89,48.43
				C-1625.05,765-1610.66,768.64-1601.67,764.07z"/>
			<linearGradient id="SVGID_30_" gradientUnits="userSpaceOnUse" x1="-1673.5231" y1="727.4224" x2="-1865.5228" y2="1015.4218">
				<stop  offset="0" style="stop-color:#FE7062"/>
				<stop  offset="1" style="stop-color:#FF928E"/>
			</linearGradient>
			<path class="st36" d="M-1592.62,811.23c-1.79-16.27-4.74-32.02-9.05-47.16c-8.99,4.57-23.38,0.93-28.65-0.66l1.98,13.91
				l-5.3-18.73c-6.44-22.78-20.14-42.84-39.02-57.12l-13.15-9.95c-12.92-9.78-33.58-6.4-46.76,3.02
				c-29.27,20.92-72.71,55.98-87.54,68.05c-3.19,2.59-7.56,3.17-11.32,1.51l-2.47-1.1c-2.34-1.04-4.92,0.86-4.64,3.4l6.3,57.57
				l100.53-1.16c12.06,0,46.98-1.24,52.53-11.94l9.3-22.82c21.79,18.53,49.73,31.26,64.7,34.97
				C-1598.27,824.73-1591.8,818.7-1592.62,811.23z"/>
			<linearGradient id="SVGID_31_" gradientUnits="userSpaceOnUse" x1="-1720.9297" y1="728.1885" x2="-1632.9296" y2="665.1884">
				<stop  offset="0" style="stop-color:#FEBBBA"/>
				<stop  offset="1" style="stop-color:#FF928E"/>
			</linearGradient>
			<path class="st37" d="M-1663.23,660.63l-30.91,30.02c-2.06,2-2.25,5.27-0.41,7.47c9.53,11.36,17.71,17.31,24.52,17.76
				c2.89,0.19,5.62-1.33,7.17-3.77l16.43-25.9L-1663.23,660.63z"/>
			<linearGradient id="SVGID_32_" gradientUnits="userSpaceOnUse" x1="-1537.4188" y1="786.8677" x2="-1669.8633" y2="896.9324">
				<stop  offset="0" style="stop-color:#FEBBBA"/>
				<stop  offset="1" style="stop-color:#FF928E"/>
			</linearGradient>
			<polygon class="st38" points="-1600.85,808.57 -1574.26,798.22 -1543.36,822.81 -1598.7,823.02 			"/>
			<g>
				<linearGradient id="SVGID_33_" gradientUnits="userSpaceOnUse" x1="-1633.0338" y1="685.1899" x2="-1650.6548" y2="627.0718">
					<stop  offset="0" style="stop-color:#FEBBBA"/>
					<stop  offset="1" style="stop-color:#FF928E"/>
				</linearGradient>
				<path class="st39" d="M-1611.41,653.69c0,0-4.22,29.66-15.61,38.78c-11.39,9.12-33.59,2.25-41.08-20.1l14.94-38.23
					L-1611.41,653.69z"/>
				<linearGradient id="SVGID_34_" gradientUnits="userSpaceOnUse" x1="-1627.9768" y1="607.8472" x2="-1653.4769" y2="677.8474">
					<stop  offset="0" style="stop-color:#4F52FF"/>
					<stop  offset="1" style="stop-color:#4042E2"/>
				</linearGradient>
				<path class="st40" d="M-1654.85,658.87c0.87,0.28,1.77-0.28,1.91-1.18c0.41-2.74,1.44-8.16,3.52-11.85c0,0-1.09-3.89,9.83,1.99
					s27.32,14.51,36.98,9.37c9.41-5.01,18.95-30.24-5.93-25.57c-0.95,0.18-1.82-0.58-1.75-1.54c0.31-4.15-0.11-13.68-9.77-16.75
					c-9.04-2.86-13.99,1.22-16.03,3.68c-0.6,0.72-1.71,0.71-2.29-0.04c-2.71-3.54-10.06-11.06-20.89-6.29
					c-8.92,3.93-10.3,9.42-10.16,12.84c0.05,1.11-1.08,1.86-2.09,1.4c-2.73-1.26-7.12-1.91-11.33,3.36
					c-5.82,7.29,2.5,13.61,4.99,15.27c0.41,0.27,0.66,0.72,0.67,1.21c0.02,3.79,0.61,20.32,8.9,29.65c0.72,0.81,2.04,0.57,2.46-0.43
					l6.38-15.2c0.3-0.71,1.08-1.07,1.81-0.83L-1654.85,658.87z"/>
				<linearGradient id="SVGID_35_" gradientUnits="userSpaceOnUse" x1="-1651.2856" y1="690.7233" x2="-1668.9064" y2="632.6057">
					<stop  offset="0" style="stop-color:#FEBBBA"/>
					<stop  offset="1" style="stop-color:#FF928E"/>
				</linearGradient>
				<path class="st41" d="M-1654.71,661.96c0,0-3.9-15.87-9.81-10.72c-5.92,5.15,1.54,16.49,8.32,18.65L-1654.71,661.96z"/>
			</g>
			<linearGradient id="SVGID_36_" gradientUnits="userSpaceOnUse" x1="-1656.5535" y1="567.1953" x2="-1738.5536" y2="872.1952">
				<stop  offset="0" style="stop-color:#FE7062"/>
				<stop  offset="1" style="stop-color:#FF928E"/>
			</linearGradient>
			<path class="st42" d="M-1699.22,728.9c0,0,1.19-36.71-13.89-37.45c-18.73-0.92-48.83,12.66-30.91,66.46
				c9.9,29.73,24.82,51.79,65.78,61.13c1.99-15.06,8.82-25.56,13.87-31.48C-1681.06,775.8-1695.2,757.48-1699.22,728.9z"/>
			<linearGradient id="SVGID_37_" gradientUnits="userSpaceOnUse" x1="-1740.8933" y1="786.2326" x2="-1569.8934" y2="603.2326">
				<stop  offset="0" style="stop-color:#FEBBBA"/>
				<stop  offset="1" style="stop-color:#FF928E"/>
			</linearGradient>
			<path class="st43" d="M-1666.25,787.67c-0.29,0-0.59-0.09-0.84-0.27c-19.22-13.54-29.89-32.07-33.58-58.29
				c-0.01-0.08-0.02-0.17-0.01-0.25c0.32-9.81-1.31-35.39-12.5-35.94c-5.41-0.26-11.08,0.76-15.97,2.87
				c-0.74,0.32-1.61-0.02-1.93-0.76c-0.32-0.74,0.02-1.61,0.76-1.93c5.3-2.29,11.43-3.39,17.28-3.11
				c16.02,0.78,15.37,36.01,15.29,38.84c3.59,25.3,13.87,43.16,32.35,56.18c0.66,0.47,0.82,1.38,0.35,2.05
				C-1665.33,787.45-1665.79,787.67-1666.25,787.67z"/>
			<linearGradient id="SVGID_38_" gradientUnits="userSpaceOnUse" x1="-1717.5931" y1="775.6172" x2="-1608.5933" y2="588.6176">
				<stop  offset="0" style="stop-color:#FE7062"/>
				<stop  offset="1" style="stop-color:#FF928E"/>
			</linearGradient>
			<path class="st44" d="M-1691.28,816.82c-0.16,0-0.32-0.03-0.48-0.08c-33.98-11.73-45.87-34.98-53.66-58.36
				c-1.76-5.3-3.13-10.4-4.05-15.17c-0.15-0.8,0.37-1.57,1.16-1.72c0.8-0.15,1.57,0.37,1.72,1.16c0.9,4.64,2.23,9.62,3.95,14.79
				c7.55,22.67,19.05,45.21,51.83,56.52c0.77,0.27,1.17,1.1,0.91,1.87C-1690.1,816.44-1690.67,816.82-1691.28,816.82z"/>
			<linearGradient id="SVGID_39_" gradientUnits="userSpaceOnUse" x1="-1565.7623" y1="752.7613" x2="-1698.2065" y2="862.8257">
				<stop  offset="0" style="stop-color:#FEBBBA"/>
				<stop  offset="1" style="stop-color:#FF928E"/>
			</linearGradient>
			<path class="st45" d="M-1593.33,822.81l-0.06-14.24c0,0-39.91,0.88-70.98-21.01c-5.05,5.92-11.88,16.42-13.87,31.48
				C-1657.51,823.77-1630.12,825.25-1593.33,822.81z"/>
			<g>
				
					<linearGradient id="SVGID_40_" gradientUnits="userSpaceOnUse" x1="-9276.207" y1="518.1506" x2="-9378.4922" y2="546.1843" gradientTransform="matrix(-0.9988 -0.0494 -0.0494 0.9988 -10905.5078 -181.7234)">
					<stop  offset="0" style="stop-color:#09005D"/>
					<stop  offset="1" style="stop-color:#1A0F91"/>
				</linearGradient>
				<path class="st46" d="M-1644.49,827.78c0.1,0,0.19,0.01,0.29,0.01l126.95-0.14c3.14,0,5.68-2.55,5.68-5.69
					c0-3.14-2.56-5.73-5.69-5.68l-126.95,0.14c-3.14,0-5.68,2.55-5.68,5.69C-1649.88,825.15-1647.49,827.63-1644.49,827.78z"/>
				<linearGradient id="SVGID_41_" gradientUnits="userSpaceOnUse" x1="-1547.9823" y1="819.6737" x2="-1393.9823" y2="710.6736">
					<stop  offset="0" style="stop-color:#09005D"/>
					<stop  offset="1" style="stop-color:#1A0F91"/>
				</linearGradient>
				<path class="st47" d="M-1403.12,712.52h-105.73c-7.8,0-14.9,4.5-18.23,11.56l-48.88,103.64h131.39c5.03,0,9.54-3.07,11.39-7.75
					l37.9-95.9C-1393.08,718.52-1397.17,712.52-1403.12,712.52z"/>
				<path class="st5" d="M-1477.61,765.66c-2.29,7.12-0.6,14.03,3.78,15.44c4.38,1.41,9.79-3.22,12.08-10.34
					c2.29-7.12,0.6-14.03-3.78-15.44C-1469.91,753.91-1475.32,758.54-1477.61,765.66z"/>
			</g>
		</g>
	</g>
	<g class="st0">
		<linearGradient id="SVGID_42_" gradientUnits="userSpaceOnUse" x1="-160.7351" y1="870.7892" x2="-765.1937" y2="328.5538">
			<stop  offset="0" style="stop-color:#DAE3FE"/>
			<stop  offset="1" style="stop-color:#E9EFFD"/>
		</linearGradient>
		<path class="st48" d="M-362.16,683.1c-20.35,20.97-38.55,33.3-52.49,42.61c-135.93,90.76-291.32,64.6-339.36,55.66
			c-77.51-14.43-142.94-24.6-199.15-75.39c-127.74-115.41-121.52-356.15-23.92-505.28c11.57-17.68,109.03-162.15,264.75-182.5
			c3.81-0.5,6.65-0.78,9.14-1.04c24.09-2.55,173.37-16.01,295.09,85.97c17.42,14.6,45.46,40.93,71.47,81.09
			C-241.55,331.04-241.25,558.47-362.16,683.1z"/>
		<g class="st2">
			<path class="st5" d="M-1080.9,48.3c-0.86-3.66,4.29-6.09,7.44-3.54c32.01,25.95,108.91,103.67,89.74,239.49
				c-24.05,170.41,17.06,232.59,68.23,270.52c0,0-70.27-17.84-114.49-80.93C-1138.52,318.93-1065.61,113.36-1080.9,48.3z"/>
			<path class="st49" d="M-1056.54,101.52c4,18.97,7.57,38,10.33,57.11c2.87,19.1,5.08,38.26,6.58,57.46
				c1.42,19.2,2.43,38.42,2.48,57.65c0.16,19.23-0.64,38.44-1.52,57.72c-0.76,19.28-1.64,38.7-0.23,58.25
				c1.39,19.52,5.5,39.2,13.65,57.66c2.04,4.6,4.18,9.18,6.61,13.61c2.34,4.47,4.91,8.85,7.57,13.2
				c5.37,8.66,11.42,17.03,18.16,24.97c13.52,15.86,29.84,29.93,47.8,41.84c1.89,1.25,4.6,0.95,6.05-0.69
				c1.43-1.6,1.11-3.89-0.7-5.16l-0.01-0.01c-4.28-3-8.51-6.04-12.56-9.24c-2.06-1.57-4.03-3.21-6.04-4.83
				c-1.94-1.68-3.95-3.29-5.82-5.01c-7.63-6.79-14.7-14.04-21.11-21.7c-12.9-15.25-23.23-32.25-31.05-49.86
				c-3.8-8.85-6.83-17.93-9.05-27.17c-2.21-9.25-3.6-18.66-4.37-28.14c-1.54-18.98-0.84-38.21-0.25-57.49
				c0.57-19.29,0.98-38.67,0.47-58.04c-0.22-9.68-0.65-19.36-1.28-29.03c-0.28-4.84-0.67-9.67-1.05-14.5
				c-0.43-4.83-0.9-9.65-1.41-14.47c-2.08-19.28-4.84-38.49-8.29-57.6c-3.56-19.1-7.71-38.1-12.7-56.94
				c-0.14-0.54-0.76-0.88-1.39-0.75C-1056.26,100.49-1056.65,101-1056.54,101.52z"/>
		</g>
		<g class="st2">
			<g>
				<path class="st6" d="M-1010.57,414.78c-4.05,4.29-11.17,3.06-13.6-2.32c-13.44-29.66-43.84-116.97,6.37-217.55
					c42.4-84.93,57.33-135.02,62.53-158.22c1.1-4.91,7.82-5.56,9.85-0.96C-923.02,86.5-863.89,259.16-1010.57,414.78z"/>
				<path class="st49" d="M-1017.92,411.65c-0.14,0.03-0.29,0.04-0.44,0.04c-1.27-0.02-2.29-1.07-2.27-2.34
					c0.02-1.44,2.83-145.62,56.46-266.38c0.52-1.16,1.88-1.69,3.04-1.17c1.16,0.52,1.69,1.88,1.17,3.04
					c-53.24,119.88-56.04,263.15-56.06,264.58C-1016.04,410.54-1016.86,411.46-1017.92,411.65z"/>
			</g>
		</g>
		<g class="st2">
			
				<linearGradient id="SVGID_43_" gradientUnits="userSpaceOnUse" x1="-1091.2548" y1="172.7551" x2="-335.1048" y2="172.7551" gradientTransform="matrix(0.9997 -0.0259 0.0297 1.1442 58.619 280.8593)">
				<stop  offset="0" style="stop-color:#09005D"/>
				<stop  offset="1" style="stop-color:#1A0F91"/>
			</linearGradient>
			<path class="st50" d="M-1032.48,301.86l9.95,383.75c0.82,31.57,23.47,56.81,51.06,56.91c122.55,0.44,551.07-1.9,667.59-6.89
				c20.03-0.86,35.78-19.63,35.77-42.57c-0.06-89.21-1.97-303.68-18.06-402.86c-3.39-20.89-19.25-36.16-37.79-36.36
				c-102.7-1.1-557.03-1.26-673.47,4.76C-1017.52,259.65-1033.08,278.86-1032.48,301.86z"/>
			<linearGradient id="SVGID_44_" gradientUnits="userSpaceOnUse" x1="-1168.88" y1="804.1313" x2="-334.8815" y2="280.1331">
				<stop  offset="0" style="stop-color:#FE7062"/>
				<stop  offset="1" style="stop-color:#FF928E"/>
			</linearGradient>
			<path class="st51" d="M-1011.49,299.45l9.45,364.59c0.48,18.43,13.79,33.11,29.9,32.97l650.27-7.66
				c15.97-0.14,28.67-15.18,28.26-33.46l-8.28-361.36c-0.3-13.07-9.67-23.54-21.09-23.56l-665.92,1.86
				C-1001.66,272.82-1011.87,284.84-1011.49,299.45z"/>
			<path class="st5" d="M-1000.93,707.89c-0.51,0-0.92-0.41-0.92-0.92c0-0.51,0.41-0.93,0.92-0.93l713.43-4.58
				c0.51,0.04,0.93,0.41,0.93,0.92c0,0.51-0.41,0.93-0.92,0.93L-1000.93,707.89L-1000.93,707.89z"/>
		</g>
		<g class="st2">
			<path class="st5" d="M-785.16,742.58l491.98-5.59c-0.1-6.08-1.38-61.59-14.87-137.2c-18.83-105.5-51.46-196.24-96.98-269.7
				c-37.17-59.98-54.96-112.47-63.34-145.94c-3.96-15.8-6.26-28.99-7.59-38.89c-1.56-11.56-11.4-20.19-23.07-20.21
				c-71.35-0.1-366.91-2.14-445.36-2.85c-14.76-0.13-26.45,12.41-25.29,27.13c4,51.05,22.52,164.75,105.1,298.02
				C-790.98,566.1-785.18,740.87-785.16,742.58z"/>
			<path class="st52" d="M-853.08,250.83h332.77c9.63,0,17.43,5.2,17.43,11.62s-7.8,11.62-17.43,11.62h-332.77
				c-9.63,0-17.43-5.2-17.43-11.62S-862.7,250.83-853.08,250.83z"/>
			<path class="st52" d="M-821.38,306.82h332.77c9.63,0,17.43,5.2,17.43,11.62s-7.8,11.62-17.43,11.62h-332.77
				c-9.63,0-17.43-5.2-17.43-11.62S-831.01,306.82-821.38,306.82z"/>
			<path class="st52" d="M-789.69,362.81h332.77c9.63,0,17.43,5.2,17.43,11.62s-7.8,11.62-17.43,11.62h-332.77
				c-9.63,0-17.43-5.2-17.43-11.62S-799.32,362.81-789.69,362.81z"/>
			<path class="st52" d="M-748.49,451.55h332.77c9.63,0,17.43,5.2,17.43,11.62s-7.8,11.62-17.43,11.62h-332.77
				c-9.63,0-17.43-5.2-17.43-11.62S-758.12,451.55-748.49,451.55z"/>
			<path class="st52" d="M-717.85,507.54h332.77c9.63,0,17.43,5.2,17.43,11.62c0,6.42-7.8,11.62-17.43,11.62h-332.77
				c-9.63,0-17.43-5.2-17.43-11.62C-735.28,512.74-727.48,507.54-717.85,507.54z"/>
			<path class="st52" d="M-700.95,561.42h332.77c9.63,0,17.43,5.2,17.43,11.62c0,6.42-7.8,11.62-17.43,11.62h-332.77
				c-9.63,0-17.43-5.2-17.43-11.62C-718.38,566.62-710.58,561.42-700.95,561.42z"/>
			<path class="st52" d="M-685.1,648.04h332.77c9.63,0,17.43,5.2,17.43,11.62c0,6.42-7.8,11.62-17.43,11.62H-685.1
				c-9.63,0-17.43-5.2-17.43-11.62C-702.53,653.25-694.73,648.04-685.1,648.04z"/>
			<g>
				<path class="st49" d="M-812.71,201.21v23.5h-12.42v-66.75h21.74c4.46,0,8.32,0.52,11.59,1.57c3.26,1.05,5.96,2.51,8.08,4.39
					c2.12,1.88,3.69,4.12,4.71,6.74c1.02,2.62,1.52,5.48,1.52,8.59c0,3.23-0.54,6.19-1.62,8.89c-1.08,2.69-2.69,5.01-4.85,6.95
					c-2.15,1.94-4.85,3.45-8.08,4.52c-3.23,1.08-7.02,1.62-11.36,1.62H-812.71z M-812.71,191.52h9.32c2.28,0,4.26-0.28,5.96-0.85
					c1.69-0.57,3.09-1.38,4.2-2.45c1.11-1.06,1.94-2.35,2.49-3.88c0.55-1.52,0.83-3.22,0.83-5.1c0-1.78-0.28-3.4-0.83-4.85
					c-0.55-1.45-1.38-2.68-2.49-3.69c-1.11-1.02-2.51-1.79-4.2-2.33c-1.69-0.54-3.68-0.81-5.96-0.81h-9.32V191.52z"/>
				<path class="st49" d="M-755.01,198.63v26.08h-12.42v-66.75h20.36c4.55,0,8.46,0.47,11.7,1.41c3.25,0.94,5.91,2.25,7.99,3.95
					c2.08,1.69,3.6,3.72,4.57,6.07c0.97,2.35,1.45,4.95,1.45,7.78c0,2.25-0.33,4.37-0.99,6.37c-0.66,2-1.62,3.82-2.86,5.45
					c-1.25,1.63-2.79,3.06-4.62,4.29c-1.83,1.23-3.92,2.22-6.25,2.95c1.57,0.89,2.92,2.17,4.06,3.83l16.71,24.65h-11.17
					c-1.08,0-1.99-0.21-2.75-0.65c-0.75-0.43-1.39-1.05-1.92-1.85l-14.03-21.37c-0.52-0.8-1.1-1.37-1.73-1.71
					c-0.63-0.34-1.56-0.51-2.79-0.51H-755.01z M-755.01,189.72h7.75c2.34,0,4.38-0.29,6.12-0.88c1.74-0.58,3.17-1.39,4.29-2.42
					c1.12-1.03,1.96-2.25,2.52-3.67c0.55-1.42,0.83-2.97,0.83-4.66c0-3.38-1.12-5.98-3.35-7.8c-2.23-1.82-5.64-2.72-10.22-2.72
					h-7.94V189.72z"/>
				<path class="st49" d="M-665.28,157.96v9.88h-29.59v18.51h23.31v9.55h-23.31v18.88h29.59v9.92h-42.1v-66.75H-665.28z"/>
				<path class="st49" d="M-618.75,170.1c-0.34,0.68-0.73,1.15-1.18,1.43c-0.45,0.28-0.98,0.42-1.59,0.42
					c-0.62,0-1.31-0.24-2.08-0.72c-0.77-0.48-1.68-1.01-2.72-1.59c-1.05-0.58-2.27-1.11-3.67-1.59c-1.4-0.48-3.05-0.72-4.96-0.72
					c-1.72,0-3.22,0.21-4.5,0.62c-1.28,0.42-2.35,0.99-3.23,1.73c-0.88,0.74-1.53,1.62-1.96,2.65c-0.43,1.03-0.65,2.16-0.65,3.39
					c0,1.57,0.44,2.88,1.32,3.92c0.88,1.05,2.04,1.94,3.48,2.68c1.45,0.74,3.09,1.4,4.94,1.98c1.85,0.58,3.73,1.21,5.65,1.87
					c1.92,0.66,3.81,1.43,5.65,2.31c1.85,0.88,3.49,1.98,4.94,3.32c1.45,1.34,2.61,2.98,3.48,4.92c0.88,1.94,1.32,4.29,1.32,7.06
					c0,3.02-0.52,5.84-1.55,8.47c-1.03,2.63-2.54,4.92-4.52,6.88c-1.98,1.95-4.41,3.49-7.27,4.62c-2.86,1.12-6.14,1.69-9.83,1.69
					c-2.12,0-4.22-0.21-6.28-0.62c-2.06-0.42-4.04-1.01-5.93-1.78c-1.89-0.77-3.66-1.69-5.31-2.77c-1.65-1.08-3.12-2.28-4.41-3.6
					l3.6-5.95c0.34-0.43,0.75-0.79,1.22-1.08c0.48-0.29,1.01-0.44,1.59-0.44c0.77,0,1.6,0.32,2.49,0.95
					c0.89,0.63,1.95,1.33,3.16,2.1c1.22,0.77,2.65,1.47,4.29,2.1c1.65,0.63,3.62,0.95,5.93,0.95c3.54,0,6.28-0.84,8.22-2.52
					c1.94-1.68,2.91-4.09,2.91-7.22c0-1.75-0.44-3.19-1.32-4.29c-0.88-1.11-2.04-2.04-3.48-2.79c-1.45-0.75-3.09-1.39-4.94-1.92
					c-1.85-0.52-3.72-1.09-5.63-1.71c-1.91-0.62-3.79-1.35-5.63-2.22c-1.85-0.86-3.49-1.98-4.94-3.37
					c-1.45-1.38-2.61-3.12-3.49-5.19c-0.88-2.08-1.31-4.64-1.31-7.69c0-2.43,0.48-4.8,1.45-7.11c0.97-2.31,2.38-4.35,4.25-6.14
					c1.86-1.78,4.15-3.22,6.85-4.29c2.71-1.08,5.8-1.62,9.28-1.62c3.94,0,7.57,0.62,10.89,1.85c3.32,1.23,6.15,2.95,8.49,5.17
					L-618.75,170.1z"/>
				<path class="st49" d="M-569.22,170.1c-0.34,0.68-0.73,1.15-1.18,1.43c-0.45,0.28-0.98,0.42-1.59,0.42
					c-0.62,0-1.31-0.24-2.08-0.72c-0.77-0.48-1.68-1.01-2.72-1.59c-1.05-0.58-2.27-1.11-3.67-1.59c-1.4-0.48-3.05-0.72-4.96-0.72
					c-1.72,0-3.22,0.21-4.5,0.62c-1.28,0.42-2.35,0.99-3.23,1.73c-0.88,0.74-1.53,1.62-1.96,2.65c-0.43,1.03-0.65,2.16-0.65,3.39
					c0,1.57,0.44,2.88,1.32,3.92c0.88,1.05,2.04,1.94,3.49,2.68c1.45,0.74,3.09,1.4,4.94,1.98c1.85,0.58,3.73,1.21,5.66,1.87
					c1.92,0.66,3.81,1.43,5.65,2.31c1.85,0.88,3.49,1.98,4.94,3.32c1.45,1.34,2.61,2.98,3.49,4.92c0.88,1.94,1.32,4.29,1.32,7.06
					c0,3.02-0.52,5.84-1.55,8.47c-1.03,2.63-2.54,4.92-4.52,6.88c-1.99,1.95-4.41,3.49-7.27,4.62c-2.86,1.12-6.14,1.69-9.83,1.69
					c-2.12,0-4.22-0.21-6.28-0.62c-2.06-0.42-4.04-1.01-5.93-1.78c-1.89-0.77-3.66-1.69-5.31-2.77c-1.65-1.08-3.12-2.28-4.41-3.6
					l3.6-5.95c0.34-0.43,0.75-0.79,1.22-1.08c0.48-0.29,1.01-0.44,1.59-0.44c0.77,0,1.6,0.32,2.49,0.95
					c0.89,0.63,1.95,1.33,3.16,2.1c1.21,0.77,2.65,1.47,4.29,2.1c1.65,0.63,3.62,0.95,5.93,0.95c3.54,0,6.28-0.84,8.22-2.52
					c1.94-1.68,2.91-4.09,2.91-7.22c0-1.75-0.44-3.19-1.32-4.29c-0.88-1.11-2.04-2.04-3.49-2.79c-1.45-0.75-3.09-1.39-4.94-1.92
					c-1.85-0.52-3.72-1.09-5.63-1.71c-1.91-0.62-3.79-1.35-5.63-2.22c-1.85-0.86-3.49-1.98-4.94-3.37
					c-1.45-1.38-2.61-3.12-3.48-5.19c-0.88-2.08-1.32-4.64-1.32-7.69c0-2.43,0.49-4.8,1.46-7.11c0.97-2.31,2.38-4.35,4.25-6.14
					c1.86-1.78,4.15-3.22,6.85-4.29c2.71-1.08,5.8-1.62,9.28-1.62c3.94,0,7.57,0.62,10.89,1.85c3.32,1.23,6.15,2.95,8.49,5.17
					L-569.22,170.1z"/>
			</g>
		</g>
		<g class="st2">
			<linearGradient id="SVGID_45_" gradientUnits="userSpaceOnUse" x1="-910.4977" y1="696.8336" x2="-796.0585" y2="543.3178">
				<stop  offset="0" style="stop-color:#09005D"/>
				<stop  offset="1" style="stop-color:#1A0F91"/>
			</linearGradient>
			<path class="st53" d="M-899.68,507.26c0,0,52.37,138.12,68.92,166.86c19.21,33.35,75.3,12.1,72.51-15.81
				c-2.79-27.91-68.33-143.29-68.33-143.29L-899.68,507.26z"/>
			<linearGradient id="SVGID_46_" gradientUnits="userSpaceOnUse" x1="-717.7695" y1="325.5838" x2="-509.4647" y2="696.5799">
				<stop  offset="0" style="stop-color:#4F52FF"/>
				<stop  offset="1" style="stop-color:#4042E2"/>
			</linearGradient>
			<polygon class="st54" points="-828.92,406.65 -503.41,293.79 -506.83,599.21 -837.82,525.36 			"/>
			<ellipse class="st5" cx="-503.1" cy="447.38" rx="31.98" ry="156.96"/>
			<linearGradient id="SVGID_47_" gradientUnits="userSpaceOnUse" x1="-197.2092" y1="69.7834" x2="-622.5823" y2="597.8323">
				<stop  offset="0" style="stop-color:#4F52FF"/>
				<stop  offset="1" style="stop-color:#4042E2"/>
			</linearGradient>
			<path class="st55" d="M-500.67,593.61c-2.89-2.94-9.19-14.28-14.59-43.61c-5.22-28.34-8.09-65.1-8.09-103.5
				c0-38.41,2.87-75.16,8.09-103.5c5.4-29.33,11.7-40.67,14.59-43.61c2.89,2.94,9.19,14.28,14.59,43.61
				c5.22,28.34,8.09,65.1,8.09,103.5c0,38.41-2.87,75.16-8.09,103.5C-491.49,579.33-497.78,590.67-500.67,593.61z"/>
			<g>
				<defs>
					<path id="SVGID_48_" d="M-500.67,593.61c-2.89-2.94-9.19-14.28-14.59-43.61c-5.22-28.34-8.09-65.1-8.09-103.5
						c0-38.41,2.87-75.16,8.09-103.5c5.4-29.33,11.7-40.67,14.59-43.61c2.89,2.94,9.19,14.28,14.59,43.61
						c5.22,28.34,46.39,65.1,46.39,103.5c0,38.41-41.17,75.16-46.39,103.5C-491.49,579.33-497.78,590.67-500.67,593.61z"/>
				</defs>
				<clipPath id="SVGID_49_">
					<use xlink:href="#SVGID_48_"  style="overflow:visible;"/>
				</clipPath>
				<linearGradient id="SVGID_50_" gradientUnits="userSpaceOnUse" x1="-432.2495" y1="441.2986" x2="-659.2789" y2="454.325">
					<stop  offset="0" style="stop-color:#09005D"/>
					<stop  offset="1" style="stop-color:#1A0F91"/>
				</linearGradient>
				<path class="st56" d="M-459.68,445.33c0,26.67-14.37,48.29-42.8,48.29c-28.43,0-51.48-21.62-51.48-48.29
					c0-26.67,23.05-48.29,51.48-48.29C-474.05,397.04-459.68,418.66-459.68,445.33z"/>
			</g>
			<linearGradient id="SVGID_51_" gradientUnits="userSpaceOnUse" x1="-862.3053" y1="521.9599" x2="-870.6791" y2="311.2239">
				<stop  offset="0" style="stop-color:#09005D"/>
				<stop  offset="1" style="stop-color:#1A0F91"/>
			</linearGradient>
			<path class="st57" d="M-881.42,400.08c15.31-1.78,37.27-2.42,61.01,3.02c-7.82,40.86-6.64,83.45,2.4,127.55l-66.96,0
				c-10.68,0-19.78-7.75-21.44-18.3c-3.34-21.14-7.42-56.67-3.07-85.2C-907.3,412.83-895.81,401.76-881.42,400.08z"/>
			<path class="st6" d="M-841.23,431.38h-52.17c-1.77,0-3.33-0.93-4.18-2.48c-0.85-1.56-0.78-3.37,0.19-4.86
				c0.4-0.62,1.23-0.8,1.86-0.4c0.62,0.4,0.8,1.23,0.4,1.86c-0.42,0.65-0.45,1.44-0.08,2.12c0.37,0.68,1.05,1.08,1.82,1.08h52.17
				c1.14,0,2.07-0.93,2.07-2.07v-3.71c0-1.14-0.93-2.07-2.07-2.07h-52.56c-0.74,0-1.34-0.6-1.34-1.34c0-0.74,0.6-1.34,1.34-1.34
				h52.56c2.62,0,4.76,2.13,4.76,4.76v3.71C-836.47,429.24-838.61,431.38-841.23,431.38z"/>
			<path class="st6" d="M-845.88,454.48h-52.17c-1.77,0-3.33-0.93-4.18-2.48c-0.85-1.56-0.78-3.37,0.19-4.86
				c0.4-0.62,1.23-0.8,1.86-0.4c0.62,0.4,0.8,1.23,0.4,1.86c-0.42,0.65-0.45,1.44-0.08,2.12c0.37,0.68,1.05,1.08,1.82,1.08h52.17
				c1.14,0,2.07-0.93,2.07-2.07v-3.71c0-1.14-0.93-2.08-2.07-2.08h-52.56c-0.74,0-1.34-0.6-1.34-1.34c0-0.74,0.6-1.34,1.34-1.34
				h52.56c2.62,0,4.76,2.13,4.76,4.76v3.71C-841.13,452.35-843.26,454.48-845.88,454.48z"/>
			<path class="st6" d="M-781.62,398.38c-0.57,0-1.1-0.36-1.28-0.93c-0.22-0.71,0.17-1.46,0.87-1.69l246.54-78.45
				c0.71-0.22,1.46,0.17,1.69,0.87c0.23,0.71-0.17,1.46-0.87,1.69l-246.54,78.45C-781.35,398.36-781.49,398.38-781.62,398.38z"/>
			<path class="st6" d="M-814.96,412.01c-0.53,0-1.03-0.31-1.24-0.83c-0.28-0.69,0.05-1.47,0.73-1.75l12.69-5.19
				c0.69-0.28,1.47,0.05,1.75,0.73c0.28,0.69-0.05,1.47-0.73,1.75l-12.69,5.19C-814.62,411.98-814.79,412.01-814.96,412.01z"/>
			<path class="st6" d="M-841.23,481.54h-52.17c-1.77,0-3.33-0.93-4.18-2.48c-0.85-1.56-0.78-3.37,0.18-4.86
				c0.4-0.62,1.23-0.8,1.86-0.4c0.62,0.4,0.8,1.23,0.4,1.86c-0.42,0.65-0.45,1.44-0.08,2.12c0.37,0.68,1.05,1.08,1.82,1.08h52.17
				c1.14,0,2.07-0.93,2.07-2.08v-3.71c0-1.14-0.93-2.07-2.07-2.07h-52.56c-0.74,0-1.34-0.6-1.34-1.34c0-0.74,0.6-1.34,1.34-1.34
				h52.56c2.62,0,4.76,2.13,4.76,4.76v3.71C-836.47,479.41-838.61,481.54-841.23,481.54z"/>
			<path class="st6" d="M-836.35,511.58h-52.17c-1.77,0-3.33-0.93-4.18-2.48c-0.85-1.56-0.78-3.37,0.18-4.86
				c0.4-0.62,1.23-0.8,1.86-0.4c0.62,0.4,0.8,1.23,0.4,1.86c-0.42,0.65-0.45,1.44-0.08,2.12c0.37,0.68,1.05,1.08,1.82,1.08h52.17
				c1.14,0,2.07-0.93,2.07-2.07v-3.71c0-1.14-0.93-2.07-2.07-2.07h-52.56c-0.74,0-1.34-0.6-1.34-1.34c0-0.74,0.6-1.34,1.34-1.34
				h52.56c2.62,0,4.76,2.13,4.76,4.76v3.71C-831.59,509.45-833.72,511.58-836.35,511.58z"/>
			<path class="st6" d="M-789.75,674.89c-2.4,0-4.83-0.26-7.26-0.79c-10.61-2.31-19.24-9.31-23.69-19.19l-41.68-92.6
				c-0.3-0.68,0-1.47,0.67-1.77s1.47,0,1.77,0.67l41.68,92.6c4.1,9.1,12.05,15.54,21.82,17.67c9.6,2.09,19.31-0.39,26.65-6.81
				c0.39-0.34,0.79-0.7,1.19-1.06c0.55-0.5,1.4-0.46,1.9,0.09c0.5,0.55,0.46,1.4-0.09,1.9c-0.41,0.38-0.82,0.74-1.23,1.1
				C-774.15,672.05-781.8,674.89-789.75,674.89z"/>
			<path class="st6" d="M-867.32,549.41c-0.51,0-1-0.29-1.22-0.79l-4.65-10.33c-0.3-0.68,0-1.47,0.67-1.77
				c0.68-0.3,1.47,0,1.77,0.67l4.65,10.33c0.3,0.68,0,1.47-0.67,1.77C-866.95,549.37-867.14,549.41-867.32,549.41z"/>
			<path class="st6" d="M-467.31,443.94c-0.7,0-1.29-0.54-1.34-1.25c-0.93-13.07-5.46-22.81-13.46-28.96
				c-13.84-10.63-33.6-6.98-33.8-6.94c-0.73,0.14-1.43-0.34-1.57-1.06c-0.14-0.73,0.34-1.43,1.06-1.57
				c0.86-0.17,21.15-3.91,35.94,7.44c8.64,6.63,13.52,17.03,14.5,30.89c0.05,0.74-0.5,1.38-1.24,1.43
				C-467.24,443.94-467.27,443.94-467.31,443.94z"/>
		</g>
	</g>
	<g>
		<linearGradient id="SVGID_52_" gradientUnits="userSpaceOnUse" x1="922.994" y1="910.3084" x2="304.1626" y2="355.1797">
			<stop  offset="0" style="stop-color:#DAE3FE"/>
			<stop  offset="1" style="stop-color:#E9EFFD"/>
		</linearGradient>
		<path class="st58" d="M716.78,718.16c-20.83,21.47-39.47,34.09-53.74,43.62c-139.17,92.92-298.25,66.14-347.43,56.99
			c-79.35-14.77-146.34-25.19-203.89-77.18C-19.05,623.43-12.69,376.96,87.24,224.28c11.85-18.1,111.62-166,271.05-186.84
			c3.9-0.51,6.81-0.8,9.36-1.07c24.66-2.61,177.49-16.39,302.11,88.01c17.84,14.95,46.55,41.9,73.17,83.02
			C840.26,357.73,840.57,590.56,716.78,718.16z"/>
		<g>
			<path class="st5" d="M791.42,395.27c-0.5-2.85-4.49-3.14-5.38-0.39c-8.61,26.59-33.37,95.61-68.68,131.36
				c-57.49,58.21-98.05,154.82-64.77,207.01C652.59,733.26,845.55,705.6,791.42,395.27z"/>
			<path class="st6" d="M784.61,433.47c0,0-0.04,0.29-0.12,0.84c-0.1,0.56-0.25,1.43-0.46,2.49c-0.41,2.14-1.04,5.26-1.91,9.23
				c-1.77,7.92-4.41,19.21-8.03,32.64c-1.84,6.71-3.86,13.97-6.15,21.6c-2.25,7.64-4.77,15.67-7.46,23.93
				c-2.77,8.24-5.68,16.75-8.85,25.31c-0.79,2.14-1.58,4.29-2.37,6.45c-0.82,2.15-1.65,4.3-2.48,6.46
				c-1.63,4.33-3.39,8.62-5.11,12.93c-1.72,4.31-3.56,8.57-5.36,12.83c-1.89,4.22-3.76,8.43-5.63,12.6
				c-1.96,4.13-3.83,8.26-5.81,12.28c-0.99,2.01-1.98,4-2.96,5.98c-0.97,1.99-1.95,3.95-2.97,5.87c-3.98,7.74-8,15.14-12.05,22.02
				c-4.01,6.9-8.04,13.28-11.83,19.13c-1.95,2.89-3.82,5.65-5.59,8.29c-1.82,2.6-3.64,5-5.3,7.3c-0.84,1.14-1.65,2.24-2.43,3.31
				c-0.82,1.04-1.61,2.04-2.37,3c-1.52,1.92-2.91,3.69-4.17,5.28c-2.57,3.14-4.71,5.51-6.12,7.17c-1.42,1.64-2.18,2.52-2.18,2.52
				c-0.18,0.21-0.5,0.23-0.7,0.05c-0.2-0.18-0.23-0.48-0.06-0.69l0.01-0.02c0,0,0.72-0.9,2.08-2.59c1.34-1.7,3.37-4.15,5.86-7.33
				c1.21-1.62,2.55-3.41,4.01-5.37c0.73-0.98,1.49-1.99,2.27-3.04c0.75-1.08,1.53-2.2,2.33-3.36c1.59-2.32,3.32-4.77,5.08-7.39
				c1.72-2.65,3.53-5.43,5.42-8.33c3.67-5.88,7.57-12.29,11.45-19.22c3.88-6.92,7.86-14.29,11.78-22.01
				c1.01-1.92,1.97-3.88,2.93-5.86c0.96-1.98,1.93-3.97,2.91-5.97c1.95-4.01,3.79-8.13,5.71-12.25c1.83-4.16,3.68-8.36,5.53-12.57
				c1.76-4.25,3.64-8.47,5.37-12.76c1.73-4.28,3.51-8.55,5.15-12.85c0.83-2.15,1.67-4.29,2.5-6.42c0.8-2.15,1.6-4.29,2.4-6.42
				c3.2-8.52,6.13-16.99,8.94-25.19c2.75-8.22,5.41-16.17,7.75-23.77c2.39-7.58,4.51-14.79,6.44-21.46
				c1.88-6.68,3.64-12.79,5.07-18.24c1.47-5.44,2.67-10.21,3.65-14.14c0.95-3.93,1.71-7.02,2.17-9.14c0.23-1.04,0.4-1.84,0.52-2.37
				c0.1-0.55,0.15-0.83,0.15-0.83l0.01-0.05c0.05-0.27,0.31-0.45,0.58-0.4C784.47,432.96,784.64,433.21,784.61,433.47z"/>
		</g>
		<g>
			<path class="st6" d="M657.91,757.49c0,0,0.65-35.14,35.94-70.79c32.74-33.08,113.24-109.62,131.73-151.94
				c0.82-1.87,3.6-1.33,3.63,0.72c0.28,21.94-3.34,76.95-41.12,131.72C739.36,737.84,657.91,757.49,657.91,757.49z"/>
			<linearGradient id="SVGID_53_" gradientUnits="userSpaceOnUse" x1="667.2139" y1="662.6625" x2="812.9044" y2="662.6625">
				<stop  offset="0" style="stop-color:#DAE3FE"/>
				<stop  offset="1" style="stop-color:#E9EFFD"/>
			</linearGradient>
			<path class="st59" d="M812.9,574.08c0,0-0.07,0.91-0.34,2.6c-0.13,0.84-0.3,1.89-0.55,3.1c-0.22,1.22-0.56,2.61-0.94,4.16
				c-0.35,1.56-0.89,3.25-1.4,5.1c-0.54,1.85-1.26,3.8-1.96,5.92c-0.79,2.08-1.62,4.3-2.57,6.62c-1.03,2.27-2.03,4.71-3.24,7.18
				c-2.38,4.95-5.22,10.19-8.53,15.54c-1.7,2.65-3.32,5.45-5.29,8.11c-1.93,2.68-3.78,5.51-5.96,8.17
				c-4.14,5.49-8.81,10.84-13.7,16.13c-2.51,2.59-5,5.22-7.58,7.82c-2.61,2.51-5.22,5.03-7.84,7.55c-5.3,5.01-10.61,10-15.93,14.8
				c-5.32,4.8-10.6,9.47-15.74,13.96c-5.17,4.44-10.17,8.73-14.91,12.8c-4.74,4.07-9.25,7.86-13.32,11.46
				c-4.09,3.58-7.79,6.91-10.97,9.96c-1.59,1.52-3.02,3.01-4.37,4.35c-1.3,1.39-2.46,2.69-3.53,3.85c-2.01,2.42-3.63,4.31-4.56,5.71
				c-0.99,1.37-1.52,2.1-1.52,2.1l-0.02,0.03c-0.16,0.22-0.47,0.27-0.7,0.11c-0.21-0.16-0.27-0.45-0.13-0.67
				c0,0,0.49-0.77,1.41-2.22c0.88-1.48,2.37-3.52,4.32-6.07c1.03-1.22,2.15-2.6,3.42-4.06c1.31-1.41,2.69-2.99,4.23-4.59
				c3.1-3.2,6.63-6.77,10.65-10.47c3.99-3.74,8.37-7.71,13.03-11.87c4.65-4.16,9.56-8.55,14.64-13.09
				c5.07-4.54,10.29-9.25,15.54-14.09c2.62-2.43,5.26-4.87,7.91-7.33c2.63-2.48,5.26-4.96,7.9-7.45c2.61-2.52,5.23-5.05,7.83-7.56
				c2.52-2.55,5.03-5.1,7.53-7.62c4.87-5.16,9.48-10.41,13.7-15.69c2.2-2.57,4.08-5.31,6.04-7.91c1.99-2.58,3.68-5.28,5.44-7.83
				c3.44-5.15,6.37-10.24,8.96-14.99c1.3-2.37,2.39-4.73,3.51-6.93c1.03-2.24,2-4.38,2.88-6.39c1.67-4.07,3.03-7.67,3.99-10.69
				c0.49-1.51,0.91-2.86,1.23-4.05c0.35-1.18,0.6-2.2,0.8-3.03c0.4-1.65,0.54-2.55,0.54-2.55c0.01-0.03,0.04-0.06,0.07-0.05
				C812.88,574.02,812.91,574.05,812.9,574.08z"/>
		</g>
		<g>
			<path class="st6" d="M173.79,96.44C161.06,134.52,96.08,359.15,295.91,458c0,0,80.85-136.87-116.35-362.73
				C177.84,93.3,174.62,93.95,173.79,96.44z"/>
			<linearGradient id="SVGID_54_" gradientUnits="userSpaceOnUse" x1="186.0599" y1="285.0627" x2="253.2067" y2="285.0627">
				<stop  offset="0" style="stop-color:#DAE3FE"/>
				<stop  offset="1" style="stop-color:#E9EFFD"/>
			</linearGradient>
			<path class="st60" d="M187.75,134.66c0,0,1.55,19.15,5.02,47.78c0.86,7.16,1.85,14.9,2.96,23.08c1.12,8.18,2.32,16.81,3.69,25.71
				c1.33,8.91,2.83,18.1,4.4,27.42c0.82,4.66,1.64,9.35,2.47,14.06c0.89,4.7,1.72,9.43,2.66,14.14c0.93,4.71,1.83,9.43,2.82,14.11
				c0.97,4.68,1.94,9.35,2.98,13.96c0.51,2.31,1.02,4.6,1.53,6.89c0.54,2.28,1.07,4.55,1.6,6.8c1.03,4.51,2.16,8.95,3.25,13.31
				c4.41,17.44,9.14,33.56,13.76,47.16c1.1,3.42,2.3,6.65,3.42,9.72c0.56,1.54,1.1,3.04,1.63,4.49c0.54,1.45,1.12,2.84,1.65,4.2
				c1.09,2.7,2.04,5.26,3.04,7.58c1,2.31,1.93,4.43,2.76,6.35c0.42,0.96,0.82,1.86,1.19,2.72c0.4,0.84,0.78,1.62,1.13,2.35
				c0.7,1.46,1.3,2.7,1.79,3.71c0.97,2.01,1.49,3.09,1.49,3.09l0.04,0.08c0.48,1,0.06,2.19-0.94,2.67c-1,0.48-2.19,0.06-2.67-0.94
				l-0.01-0.01c0,0-0.52-1.1-1.49-3.15c-0.49-1.03-1.08-2.29-1.79-3.78c-0.35-0.74-0.73-1.54-1.13-2.4
				c-0.37-0.87-0.77-1.79-1.18-2.76c-0.83-1.95-1.75-4.1-2.75-6.45c-0.99-2.35-1.93-4.94-3.01-7.68c-0.53-1.38-1.09-2.79-1.63-4.25
				c-0.52-1.47-1.06-2.99-1.61-4.55c-1.1-3.11-2.29-6.37-3.37-9.83c-4.55-13.74-9.19-29.98-13.48-47.53
				c-1.07-4.39-2.16-8.85-3.16-13.39c-0.51-2.27-1.03-4.55-1.55-6.84c-0.49-2.3-0.99-4.61-1.48-6.92
				c-1.01-4.63-1.95-9.31-2.88-14.02c-0.97-4.7-1.82-9.43-2.72-14.16c-0.9-4.73-1.7-9.47-2.56-14.19c-0.8-4.73-1.59-9.44-2.37-14.11
				c-1.5-9.35-2.94-18.57-4.21-27.5c-1.3-8.93-2.44-17.57-3.5-25.77c-1.04-8.2-1.98-15.97-2.79-23.14
				c-3.26-28.68-4.67-47.88-4.67-47.88c-0.04-0.47,0.31-0.87,0.78-0.91C187.31,133.85,187.71,134.2,187.75,134.66z"/>
		</g>
		<g>
			<path class="st5" d="M68.59,143.3c0.07-3.97,5.42-5.21,7.21-1.67c17.34,34.22,65.63,122.54,121.13,163.49
				c90.37,66.68,165.95,189.04,131.94,266.9C328.88,572.01,61.34,575.64,68.59,143.3z"/>
			<path class="st6" d="M87.13,193.34c0,0,0.13,0.38,0.37,1.1c0.27,0.71,0.64,1.74,1.2,3.13c1.07,2.77,2.73,6.81,4.85,11.95
				c2.15,5.13,4.77,11.34,7.9,18.43c3.09,7.1,6.75,15.03,10.71,23.7c4.03,8.63,8.41,17.98,13.26,27.76
				c4.78,9.81,10.06,20.04,15.53,30.62c5.55,10.53,11.33,21.39,17.48,32.28c1.53,2.72,3.07,5.46,4.61,8.2
				c1.58,2.72,3.17,5.45,4.75,8.18c3.14,5.49,6.46,10.9,9.72,16.35c3.25,5.45,6.7,10.78,10,16.17c3.39,5.33,6.8,10.63,10.2,15.87
				c3.5,5.18,6.88,10.37,10.38,15.4c1.75,2.51,3.5,5,5.23,7.48c0.87,1.24,1.73,2.47,2.59,3.7c0.88,1.21,1.76,2.42,2.64,3.62
				c1.76,2.4,3.5,4.78,5.22,7.14c0.87,1.18,1.73,2.35,2.58,3.51c0.88,1.15,1.76,2.29,2.63,3.42c3.53,4.51,6.8,9.06,10.28,13.26
				c1.71,2.12,3.39,4.22,5.05,6.29c0.83,1.03,1.65,2.06,2.47,3.07c0.84,0.99,1.68,1.98,2.51,2.96c3.34,3.89,6.5,7.72,9.66,11.27
				c3.19,3.53,6.25,6.91,9.16,10.13c2.95,3.18,5.83,6.11,8.5,8.91c1.34,1.39,2.64,2.74,3.89,4.04c1.3,1.26,2.55,2.47,3.75,3.63
				c2.4,2.33,4.61,4.47,6.6,6.4c4.06,3.78,7.35,6.65,9.55,8.66c2.21,1.99,3.39,3.06,3.39,3.06l0.02,0.01
				c0.21,0.18,0.22,0.5,0.04,0.71c-0.18,0.2-0.49,0.22-0.7,0.05c0,0-1.21-1.03-3.48-2.97c-2.25-1.96-5.64-4.73-9.79-8.46
				c-2.04-1.9-4.29-4-6.75-6.29c-1.23-1.14-2.51-2.34-3.83-3.57c-1.28-1.28-2.61-2.61-3.99-3.98c-2.73-2.76-5.69-5.64-8.7-8.79
				c-2.96-3.19-6.07-6.55-9.32-10.06c-3.22-3.53-6.43-7.33-9.83-11.2c-0.84-0.97-1.7-1.95-2.55-2.94c-0.83-1.01-1.67-2.03-2.52-3.05
				c-1.69-2.05-3.41-4.14-5.15-6.25c-6.93-8.47-13.95-17.65-20.98-27.29c-0.88-1.2-1.77-2.41-2.66-3.62
				c-0.87-1.23-1.74-2.46-2.61-3.7c-1.75-2.48-3.51-4.97-5.28-7.48c-3.53-5.03-6.94-10.23-10.47-15.41
				c-3.44-5.24-6.87-10.54-10.3-15.88c-1.67-2.69-3.35-5.39-5.03-8.09c-1.67-2.7-3.36-5.4-4.97-8.15
				c-3.25-5.47-6.56-10.91-9.69-16.43c-1.58-2.75-3.16-5.49-4.74-8.22c-1.54-2.75-3.07-5.5-4.6-8.24
				c-6.12-10.93-11.88-21.84-17.41-32.41c-5.43-10.63-10.57-20.95-15.27-30.83c-4.75-9.85-9.05-19.26-12.99-27.95
				c-7.8-17.42-13.85-32.13-17.96-42.48c-2.04-5.18-3.59-9.27-4.6-12.08c-0.52-1.39-0.9-2.52-1.16-3.25
				c-0.23-0.74-0.35-1.12-0.35-1.12c-0.08-0.26,0.06-0.54,0.33-0.63c0.26-0.08,0.54,0.06,0.62,0.32L87.13,193.34z"/>
		</g>
		<g>
			<path class="st6" d="M333.13,578.07c0,0-12.16-53.64-77.58-97.06C194.86,440.72,47.18,349.02,5.39,290.05
				c-1.85-2.61-5.94-0.89-5.33,2.25c6.55,33.71,29.58,116.86,104.89,188.78C202.07,573.83,333.13,578.07,333.13,578.07z"/>
			<linearGradient id="SVGID_55_" gradientUnits="userSpaceOnUse" x1="37.3414" y1="458.8127" x2="316.4862" y2="458.8127">
				<stop  offset="0" style="stop-color:#DAE3FE"/>
				<stop  offset="1" style="stop-color:#E9EFFD"/>
			</linearGradient>
			<path class="st61" d="M37.46,346.22c0,0,0.48,1.34,1.59,3.76c0.55,1.21,1.23,2.7,2.12,4.42c0.44,0.86,0.88,1.8,1.41,2.77
				c0.53,0.97,1.09,2,1.68,3.09c1.14,2.2,2.62,4.53,4.13,7.11c1.53,2.57,3.37,5.23,5.23,8.14c1.98,2.83,4.12,5.82,6.38,8.96
				c1.18,1.53,2.39,3.11,3.63,4.72c1.25,1.6,2.47,3.29,3.87,4.89c5.41,6.54,11.53,13.43,18.43,20.29c1.74,1.7,3.49,3.43,5.27,5.18
				c0.91,0.86,1.75,1.79,2.71,2.62c0.94,0.85,1.88,1.69,2.83,2.55c1.9,1.71,3.81,3.44,5.75,5.18c0.98,0.86,1.91,1.78,2.94,2.6
				c1.02,0.83,2.04,1.67,3.07,2.51c8.13,6.82,16.89,13.42,26,19.82c4.63,3.09,9.28,6.25,13.98,9.34c4.79,3.02,9.6,6.06,14.41,9.09
				c4.84,2.97,9.67,5.95,14.49,8.91c4.85,2.92,9.67,5.82,14.46,8.71c4.81,2.85,9.59,5.67,14.31,8.46c4.74,2.75,9.43,5.47,14.03,8.14
				c9.24,5.32,18.16,10.47,26.63,15.34c8.47,4.89,16.49,9.49,23.81,13.9c7.36,4.35,13.93,8.63,19.71,12.49
				c2.88,1.94,5.5,3.89,7.97,5.62c2.4,1.82,4.57,3.55,6.54,5.07c3.81,3.25,6.76,5.84,8.59,7.81c1.88,1.91,2.89,2.92,2.89,2.92
				c0.19,0.2,0.19,0.51,0,0.71c-0.19,0.19-0.5,0.19-0.69,0.01l-0.03-0.03c0,0-1.03-0.97-2.97-2.78c-1.87-1.88-4.92-4.31-8.76-7.42
				c-2-1.46-4.19-3.11-6.62-4.84c-2.49-1.65-5.14-3.5-8.05-5.35c-5.83-3.7-12.53-7.69-19.92-11.94
				c-7.36-4.28-15.45-8.74-23.99-13.49c-8.55-4.75-17.56-9.75-26.88-14.93c-4.63-2.64-9.34-5.33-14.11-8.06
				c-4.75-2.76-9.55-5.56-14.4-8.38c-4.82-2.86-9.68-5.73-14.53-8.69c-4.84-2.97-9.69-5.95-14.55-8.93
				c-4.81-3.03-9.62-6.06-14.41-9.08c-4.76-3.15-9.41-6.37-14.08-9.52c-9.16-6.53-18-13.22-26.09-20.25
				c-1.03-0.86-2.05-1.72-3.06-2.57c-1.03-0.84-1.96-1.78-2.94-2.66c-1.93-1.79-3.84-3.56-5.73-5.31
				c-3.87-3.42-7.26-7.17-10.7-10.67c-6.79-7.09-12.79-14.2-18.08-20.93c-1.38-1.64-2.56-3.38-3.78-5.02
				c-1.21-1.65-2.39-3.27-3.54-4.85c-1.14-1.59-2.15-3.2-3.17-4.74c-1.01-1.55-2.01-3.04-2.94-4.51c-1.76-3-3.5-5.75-4.94-8.39
				c-1.42-2.66-2.81-5.04-3.87-7.3c-1.11-2.23-2.1-4.23-2.85-6.02c-0.8-1.76-1.41-3.29-1.9-4.54c-0.98-2.49-1.4-3.85-1.4-3.85
				c-0.01-0.03,0.01-0.07,0.04-0.08C37.41,346.17,37.45,346.19,37.46,346.22z"/>
		</g>
		<g>
			<g>
				<linearGradient id="SVGID_56_" gradientUnits="userSpaceOnUse" x1="410.3637" y1="393.486" x2="413.3643" y2="906.5374">
					<stop  offset="0" style="stop-color:#FE7062"/>
					<stop  offset="0.599" style="stop-color:#FF837B"/>
					<stop  offset="1" style="stop-color:#FF928E"/>
				</linearGradient>
				<path class="st62" d="M662.43,769.7H139.92c-21.1,0-38.2-17.1-38.2-38.2V391.27c0-20.27,15.83-37.01,36.07-38.14l542.68-30.25
					c22.72-1.27,41.5,17.49,40.27,40.21l-20.16,370.48C699.47,753.84,682.72,769.7,662.43,769.7z"/>
				<g>
					<linearGradient id="SVGID_57_" gradientUnits="userSpaceOnUse" x1="409.5613" y1="204.3893" x2="403.5605" y2="468.4157">
						<stop  offset="0" style="stop-color:#FE7062"/>
						<stop  offset="1" style="stop-color:#FF928E"/>
					</linearGradient>
					<path class="st63" d="M413.38,564.4L699,326.52c-5.57-2.66-11.88-4.01-18.53-3.64l-542.68,30.25
						c-9.33,0.52-17.72,4.36-24.06,10.34l213.76,198.8C350.7,583.85,388.88,584.8,413.38,564.4z"/>
				</g>
			</g>
			<path class="st64" d="M373.67,552.61c-14.2,0-28.34-5.08-39.69-15.11l-80.54-71.1c-2.36-2.09-2.59-5.69-0.5-8.06
				c2.09-2.37,5.7-2.59,8.06-0.5l80.54,71.1c17.11,15.1,42,16.35,60.54,3.03l41.73-30c2.57-1.84,6.13-1.25,7.97,1.3
				c1.84,2.56,1.26,6.13-1.3,7.97l-41.74,30C398.15,548.85,385.88,552.61,373.67,552.61z"/>
			<path class="st64" d="M227.25,441.37c-1.34,0-2.69-0.47-3.78-1.43l-10.84-9.57c-2.36-2.09-2.59-5.69-0.5-8.06
				c2.09-2.37,5.69-2.59,8.06-0.5l10.84,9.57c2.36,2.09,2.59,5.69,0.5,8.06C230.4,440.72,228.82,441.37,227.25,441.37z"/>
		</g>
		<g>
			<polygon class="st5" points="306.01,209.69 284.21,326.41 352.17,266.66 			"/>
			<path class="st5" d="M800.66,244.89L328.3,267.82c-12.13,0.59-22.29-9.09-22.29-21.23V52.25c0-21.12,16.78-38.43,37.89-39.08
				L769.62,0c31.7,0,57.4,25.7,57.4,57.4v159.82C827.02,232,815.42,244.18,800.66,244.89z"/>
			<path class="st65" d="M342.43,259.49c-7.39,0-14.36-2.79-19.75-7.93c-5.73-5.47-8.89-12.84-8.89-20.76V55.66
				c0-20.36,16.33-36.79,37.17-37.42L763.15,5.79c30.94,0,56.09,24.55,56.09,54.74v151c0,14.25-11.42,25.95-26,26.64l-0.02-0.5
				l0.02,0.5l-449.42,21.28C343.36,259.48,342.89,259.49,342.43,259.49z M763.17,6.78L350.99,19.23
				c-20.3,0.61-36.2,16.61-36.2,36.42V230.8c0,7.64,3.05,14.76,8.58,20.03c5.53,5.28,12.77,7.98,20.42,7.62l449.42-21.28
				c14.04-0.67,25.05-11.93,25.05-25.65v-151C818.25,30.89,793.54,6.78,763.17,6.78z"/>
			<g>
				<path class="st49" d="M380.88,94.25c0.53,0.05,1.01,0.16,1.44,0.35c0.43,0.18,0.85,0.46,1.26,0.82
					c0.41,0.36,0.87,0.84,1.38,1.44l52.64,62.32c-0.23-1.54-0.41-3.05-0.53-4.53c-0.12-1.48-0.2-2.86-0.25-4.14l-2.1-58.29
					l15.72-0.57l3.45,95.89l-9.22,0.33c-1.42,0.05-2.59-0.13-3.54-0.54c-0.94-0.41-1.88-1.17-2.8-2.29l-52.43-62.06
					c0.18,1.41,0.33,2.81,0.45,4.2c0.12,1.39,0.2,2.66,0.24,3.81l2.12,58.89l-15.72,0.57l-3.45-95.89l9.35-0.34
					C379.68,94.19,380.35,94.2,380.88,94.25z"/>
				<path class="st49" d="M530.29,88.77l0.51,14.19l-42.51,1.53l0.96,26.59l33.49-1.21l0.49,13.73l-33.49,1.21l0.98,27.12
					l42.51-1.53l0.51,14.26l-60.48,2.18l-3.45-95.89L530.29,88.77z"/>
				<path class="st49" d="M536.85,88.53l14.99-0.54c1.55-0.06,2.85,0.26,3.92,0.96c1.06,0.69,1.8,1.65,2.2,2.88l18.38,56.78
					c0.45,1.4,0.87,2.92,1.26,4.57c0.39,1.65,0.77,3.39,1.15,5.24c0.29-1.87,0.61-3.64,0.97-5.31c0.36-1.67,0.76-3.23,1.19-4.66
					l16.77-58.04c0.32-1.03,0.98-1.98,1.99-2.86c1.01-0.88,2.26-1.34,3.77-1.4l5.24-0.19c1.55-0.06,2.84,0.26,3.89,0.96
					c1.04,0.69,1.79,1.65,2.23,2.87l20.77,56.69c1.07,2.8,2.03,5.9,2.86,9.33c0.25-1.74,0.51-3.41,0.78-5.01s0.56-3.1,0.87-4.48
					l14.25-57.95c0.27-1.12,0.92-2.09,1.95-2.93c1.03-0.83,2.3-1.28,3.8-1.33l13.99-0.5l-26.32,96.96l-16.12,0.58l-23.31-64.77
					c-0.29-0.83-0.61-1.73-0.93-2.69c-0.32-0.96-0.64-1.99-0.94-3.09c-0.23,1.12-0.46,2.16-0.72,3.15c-0.25,0.98-0.5,1.9-0.73,2.75
					l-18.8,66.28l-16.12,0.58L536.85,88.53z"/>
				<path class="st49" d="M736.56,98.81c-0.45,0.99-0.99,1.7-1.62,2.12c-0.63,0.42-1.38,0.65-2.27,0.68
					c-0.88,0.03-1.89-0.27-3.02-0.92c-1.13-0.64-2.46-1.36-3.99-2.15c-1.53-0.79-3.32-1.48-5.36-2.1c-2.04-0.61-4.42-0.87-7.16-0.77
					c-2.48,0.09-4.62,0.47-6.43,1.13c-1.81,0.66-3.33,1.55-4.55,2.65c-1.22,1.11-2.12,2.41-2.68,3.91c-0.57,1.5-0.82,3.14-0.75,4.91
					c0.08,2.25,0.78,4.11,2.09,5.57c1.31,1.46,3.03,2.68,5.14,3.67c2.12,0.99,4.52,1.85,7.2,2.6c2.68,0.74,5.42,1.54,8.22,2.39
					c2.8,0.85,5.54,1.86,8.24,3.02c2.7,1.16,5.12,2.67,7.27,4.52c2.15,1.85,3.9,4.14,5.26,6.88c1.36,2.74,2.11,6.1,2.26,10.08
					c0.16,4.33-0.44,8.42-1.78,12.25c-1.35,3.83-3.39,7.21-6.14,10.12c-2.75,2.91-6.15,5.25-10.21,7.01
					c-4.05,1.76-8.73,2.74-14.04,2.93c-3.05,0.11-6.07-0.08-9.05-0.57c-2.98-0.49-5.85-1.24-8.61-2.25
					c-2.76-1.01-5.35-2.24-7.77-3.7c-2.42-1.46-4.59-3.11-6.52-4.94l4.87-8.74c0.46-0.64,1.03-1.18,1.7-1.62
					c0.67-0.44,1.42-0.68,2.26-0.71c1.1-0.04,2.32,0.37,3.63,1.23c1.31,0.86,2.86,1.81,4.65,2.85c1.79,1.04,3.88,1.98,6.28,2.8
					c2.4,0.82,5.25,1.17,8.57,1.05c5.08-0.18,8.98-1.53,11.67-4.04c2.7-2.51,3.97-6.02,3.8-10.53c-0.09-2.52-0.79-4.55-2.11-6.1
					s-3.04-2.82-5.15-3.83c-2.12-1.01-4.52-1.84-7.2-2.5c-2.68-0.66-5.41-1.38-8.18-2.16c-2.77-0.79-5.51-1.75-8.21-2.89
					c-2.7-1.14-5.12-2.67-7.27-4.59c-2.15-1.91-3.91-4.34-5.28-7.28c-1.37-2.94-2.13-6.6-2.29-10.97
					c-0.13-3.49,0.45-6.92,1.72-10.29c1.27-3.37,3.2-6.38,5.78-9.04c2.58-2.66,5.79-4.83,9.63-6.52c3.83-1.69,8.25-2.62,13.25-2.8
					c5.66-0.2,10.91,0.49,15.75,2.09c4.84,1.6,8.99,3.93,12.47,6.99L736.56,98.81z"/>
			</g>
		</g>
		<g>
			
				<linearGradient id="SVGID_58_" gradientUnits="userSpaceOnUse" x1="301.2709" y1="-421.7808" x2="249.9237" y2="-315.9428" gradientTransform="matrix(0.987 0.1608 -0.1608 0.987 -113.6537 747.7927)">
				<stop  offset="0" style="stop-color:#09005D"/>
				<stop  offset="1" style="stop-color:#1A0F91"/>
			</linearGradient>
			<path class="st66" d="M152.89,469c-0.26,0.5-16.77,12.65-16.77,12.65s3.65,26.09,18.45,36.39c16.28,11.33,39.27-9.33,39.27-9.33
				s18.3,4.35,28.03-33.74c2.23-8.74-10.65-9.48-26.21-7.87C175.61,469.18,152.89,469,152.89,469z"/>
			<linearGradient id="SVGID_59_" gradientUnits="userSpaceOnUse" x1="175.1173" y1="551.6155" x2="194.5629" y2="1139.8398">
				<stop  offset="0" style="stop-color:#4F52FF"/>
				<stop  offset="1" style="stop-color:#4042E2"/>
			</linearGradient>
			<path class="st67" d="M111.14,570.7c7.69-5.28,16.18-9.27,25.19-11.72c3.38-0.92,21.65,4.39,32.95,4.13
				c15.5-0.36,31.28-7.41,44.06-4.23c12.69,3.16,23.08,7.3,29.08,11.56c17.96,12.77,28.5,36.59,34.92,60.17
				c-12.17,12.49-27.47,18.04-27.47,18.04l-2.83,114.66L179.25,798l-77.38-38.85l2.77-112.05c0,0-24.57-11.44-26.38-15.61
				C76.46,627.33,89.46,585.61,111.14,570.7z"/>
			<path class="st68" d="M79.41,630.99c0,0-32.93,91.29,42.16,128.82c15.59-2.07,9.6-27.97,9.6-27.97s-32.63-7.22-22.83-83.38
				C99.31,641.05,79.41,630.99,79.41,630.99z"/>
			<path class="st68" d="M275.77,630.99c0,0,22.66,95.3-42.16,128.82c-15.59-2.07-9.6-27.97-9.6-27.97s26.3-12.95,22.83-83.38
				C255.86,641.05,275.77,630.99,275.77,630.99z"/>
			<linearGradient id="SVGID_60_" gradientUnits="userSpaceOnUse" x1="80.6769" y1="833.85" x2="233.6691" y2="643.3599">
				<stop  offset="0" style="stop-color:#09005D"/>
				<stop  offset="1" style="stop-color:#1A0F91"/>
			</linearGradient>
			<path class="st69" d="M227.87,766.22H122.76c-11.98,0-21.78-9.8-21.78-21.78V687.6c0-11.98,9.8-21.78,21.78-21.78h105.11
				c11.98,0,21.78,9.8,21.78,21.78v56.84C249.65,756.42,239.85,766.22,227.87,766.22z"/>
			<g>
				<linearGradient id="SVGID_61_" gradientUnits="userSpaceOnUse" x1="368.0193" y1="811.0537" x2="-4.9545" y2="806.5781">
					<stop  offset="0" style="stop-color:#09005D"/>
					<stop  offset="1" style="stop-color:#1A0F91"/>
				</linearGradient>
				<path class="st70" d="M316.55,796.42c-0.53-0.15-1.1-0.29-1.69-0.43c-17.01-3.91-56.34-1.81-56.34-1.81l-1.6,4.33l-2.65,21.53
					c0,0,37.45,6.75,55.91,6.73c1.88,0,3.61-0.28,5.18-0.77C329.21,821.7,330.85,800.44,316.55,796.42z"/>
				<path class="st68" d="M247.22,792.97l6.66,0.28c3.58,0.15,6.95,1.9,9.35,4.84c2.41,2.94,3.64,6.83,3.43,10.8
					c-0.17,3.16-1.46,6.12-3.6,8.21c-2.14,2.1-4.94,3.16-7.79,2.96l-10.19-0.73L247.22,792.97z"/>
			</g>
			<g>
				<linearGradient id="SVGID_62_" gradientUnits="userSpaceOnUse" x1="124.8828" y1="809.6742" x2="-248.0354" y2="805.1992">
					<stop  offset="0" style="stop-color:#09005D"/>
					<stop  offset="1" style="stop-color:#1A0F91"/>
				</linearGradient>
				<path class="st71" d="M81.17,798.22l-1.49-4.38c0,0-39.26-3.31-56.36,0.08c-0.59,0.12-1.16,0.24-1.7,0.37
					c-14.4,3.58-13.29,24.88,0.45,29.61c1.56,0.54,3.28,0.87,5.16,0.93c18.45,0.58,56.06-5.02,56.06-5.02L81.17,798.22z"/>
				<path class="st68" d="M91,792.98l-6.66,0.08c-3.58,0.04-6.99,1.68-9.47,4.55c-2.48,2.87-3.81,6.72-3.7,10.69
					c0.09,3.16,1.31,6.16,3.4,8.32c2.09,2.16,4.86,3.31,7.71,3.2l10.2-0.41L91,792.98z"/>
			</g>
			<linearGradient id="SVGID_63_" gradientUnits="userSpaceOnUse" x1="234.7156" y1="690.0956" x2="102.7029" y2="1032.1292">
				<stop  offset="0" style="stop-color:#4F52FF"/>
				<stop  offset="1" style="stop-color:#4042E2"/>
			</linearGradient>
			<path class="st72" d="M319.62,728.49c-7.72-17.76-26.59-20.64-42.65-12.34c-0.28,0.37-102.01,52.5-191.72,75.35
				c2.57,8.23,3.89,16.99,4.18,25.61c0.05,1.92,0.02,3.81-0.09,5.68c68.8-3.53,143.46-26.48,207.62-46.64
				C316.85,769.74,328.17,748.18,319.62,728.49z"/>
			<linearGradient id="SVGID_64_" gradientUnits="userSpaceOnUse" x1="202.573" y1="854.9754" x2="26.5738" y2="610.9761">
				<stop  offset="0" style="stop-color:#4F52FF"/>
				<stop  offset="1" style="stop-color:#4042E2"/>
			</linearGradient>
			<path class="st73" d="M247.71,818.46c-0.27-9.93,1.66-19.17,5.79-27.72c0.12-0.39,0.26-0.77,0.38-1.16
				c-5.12-1.59-11.74-3.74-20.43-6.69c-63.7-21.8-112.3-43.81-158.68-69.15c-18.02-9.84-38.51-3.25-44.27,18.07
				c-5.15,19.03,6.16,35.28,23.32,40.99c51.34,17.08,24.61,12.34,41.38,17.74c45.03,13.93,101.07,26.61,152.63,30.07
				C247.78,819.9,247.73,819.18,247.71,818.46z"/>
			<path class="st68" d="M136.34,558.98c0,0,6.85,29.69,40.11,29.07c33.88-0.62,36.9-29.17,36.9-29.17l-22.13-4.74l-1.85-24.66
				l-33.29,2.47l-0.62,23.43L136.34,558.98z"/>
			<path class="st68" d="M163.72,464.65c0,0-32.06,62.11,5.97,77.18c26.83,10.63,43.65-41.25,38.63-55.3
				c-7.76-21.72-12.87-19.15-12.87-19.15L163.72,464.65z"/>
			<path d="M216.04,458.99c15.84,4.35,2.3,38.71-21.55,30.58c-23.85-8.12-33.22-8.01-36.94-1.46c-3.72,6.55-4.51,29.8-12.58,18.31
				c-8.84-12.6-13.77-37.9-2.93-46.05c9.69-7.29,11.95-18.59,23.57-18.19c15.42,0.52,27.35-6.32,34.31-1.39
				C207.92,446.46,204.39,455.79,216.04,458.99z"/>
			<path class="st68" d="M156.09,493.46c0,0-6.84-7.36-7.93,1.51c-1.09,8.87,2.42,20.29,6.54,14.03
				C158.81,502.74,156.09,493.46,156.09,493.46z"/>
		</g>
	</g>
</g>
</svg>
