<?xml version="1.0" encoding="UTF-8"?>
<svg xmlns="http://www.w3.org/2000/svg" viewBox="0 0 275.84 275.84">
  <defs>
    <style>
      .cls-1 {
        fill: #162e51;
      }

      .cls-2 {
        fill: #dfe1e2;
      }

      .cls-3 {
        fill: #8a181a;
      }
    </style>
  </defs>
  <g id="Layer_2" data-name="Layer 2">
    <rect class="cls-2" width="275.83" height="275.83"/>
  </g>
  <g id="Layer_3" data-name="Layer 3">
    <polygon class="cls-1" points="90.93 140.37 48.25 109.36 101.01 109.35 104.93 97.27 11.08 97.28 87 152.45 90.93 140.37"/>
    <polygon class="cls-1" points="188.64 97.28 172.01 109.35 226.7 109.36 178.66 144.27 171.56 149.42 174.28 157.77 192.62 214.25 144.58 179.35 137.48 174.19 130.38 179.35 82.33 214.25 99.23 162.23 82.6 174.31 59.36 245.87 137.48 189.12 215.59 245.87 185.76 154.04 263.87 97.28 188.64 97.28"/>
    <path class="cls-3" d="M176.14,97.14l-.85.62-19.33,14.26,1.7-5.3c4.02-2.98,6.96-7.19,8.35-12l8.49-28.82c3.13,6.06,5.62,12.43,7.43,19,1.34,5.32-2.2,9.5-5.79,12.24ZM162.81,45.47l-19.43,66c-1.4,4.77-4.31,8.94-8.3,11.9l-1.69,5.29,11.45-8.44c5.11-3.77,8.84-9.12,10.63-15.21l14.2-48.21c-2.16-3.76-4.46-7.55-6.86-11.33ZM150.39,27.47l-29.71,100.76c-1.4,4.74-4.3,8.89-8.27,11.84l-1.71,5.32,11.75-8.68c4.94-3.65,8.54-8.82,10.27-14.71l24.87-84.43c-2.37-3.46-4.79-6.84-7.2-10.1ZM137.46,11.26l-38.7,131.29c-1.84,6.25-5.66,11.73-10.9,15.6l-1.69,5.32,10.47-7.7c7.08-5.24,12.26-12.66,14.74-21.11l33.57-114.31c-2.58-3.27-5.09-6.32-7.49-9.09Z"/>
  </g>
</svg>