<svg id="Layer_1" data-name="Layer 1" xmlns="http://www.w3.org/2000/svg" viewBox="0 0 252.79 238.78"><defs><style>.cls-1{fill:#fff;}.cls-2{fill:#162e51;}.cls-3{fill:#8a181a;}</style></defs><title>USAB_Logo_Star_wh_inner</title><g id="Layer_2" data-name="Layer 2"><path class="cls-1" d="M133.87,17.88c-2.58-3.27-5.09-6.32-7.49-9.09L87.68,140.08a29.88,29.88,0,0,1-10.9,15.6L75.09,161l69.79-51.4,19.33-14.26.85-.62c3.59-2.74,7.13-6.92,5.79-12.22a98.54,98.54,0,0,0-7.43-19l-4.86-9.14c-2.13-3.76-4.43-7.55-6.83-11.31l-5.22-7.92c-2.37-3.46-4.79-6.84-7.2-10.09Z" transform="translate(0 -4.63)"/><polygon class="cls-1" points="156.23 90.19 252.79 90.19 174.67 146.95 204.51 238.78 126.39 182.02 48.28 238.78 78.12 146.95 0 90.19 96.56 90.19 156.23 90.19"/><path class="cls-1" d="M133.87,17.88c-2.58-3.27-5.09-6.32-10.73-13.25L84.44,135.91c1.39,10.44-2.44,15.92-7.66,19.77L75.09,161l69.79-51.4,19.33-14.26.85-.62c3.59-2.74,7.13-6.92,5.79-12.22a98.54,98.54,0,0,0-7.43-19l-4.86-9.14c-2.13-3.76-4.43-7.55-6.83-11.31l-5.22-7.92c-2.37-3.46-4.79-6.84-7.2-10.09Z" transform="translate(0 -4.63)"/></g><polygon class="cls-2" points="79.85 133.27 37.17 102.26 89.92 102.26 93.85 90.18 0 90.18 75.92 145.35 79.85 133.27"/><polygon class="cls-2" points="177.56 90.18 160.93 102.26 215.62 102.26 167.58 137.17 160.48 142.33 163.19 150.67 181.54 207.15 133.5 172.25 126.39 167.09 119.3 172.25 71.25 207.15 88.15 155.14 71.52 167.22 48.28 238.77 126.39 182.02 204.51 238.77 174.68 146.94 252.79 90.18 177.56 90.18"/><path class="cls-3" d="M165.06,94.67l-.85.62-19.33,14.26,1.7-5.3a22.84,22.84,0,0,0,8.35-12l8.49-28.82a98.54,98.54,0,0,1,7.43,19C172.19,87.75,168.65,91.93,165.06,94.67ZM151.73,43,132.3,109A22.78,22.78,0,0,1,124,120.9l-1.69,5.29,11.45-8.44a29.11,29.11,0,0,0,10.63-15.21l14.2-48.21C156.43,50.57,154.13,46.78,151.73,43ZM139.31,25,109.6,125.76a22.78,22.78,0,0,1-8.27,11.84l-1.71,5.32,11.75-8.68a28.15,28.15,0,0,0,10.27-14.71L146.51,35.1C144.14,31.64,141.72,28.26,139.31,25ZM126.38,8.79,87.68,140.08a29.88,29.88,0,0,1-10.9,15.6L75.09,161l10.47-7.7a40.43,40.43,0,0,0,14.74-21.11L133.87,17.88C131.29,14.61,128.78,11.56,126.38,8.79Z" transform="translate(0 -4.63)"/></svg>